<?xml version="1.0" encoding="us-ascii" standalone="no"?><svg xmlns="http://www.w3.org/2000/svg" xmlns:xlink="http://www.w3.org/1999/xlink" contentStyleType="text/css" height="804px" preserveAspectRatio="none" style="width:2505px;height:804px;background:#FFFFFF;" version="1.1" viewBox="0 0 2505 804" width="2505px" zoomAndPan="magnify"><defs/><g><!--cluster javax--><g id="cluster_javax"><path d="M1130.5,6 L1174.5,6 A3.75,3.75 0 0 1 1177,8.5 L1184,28.2969 L2495.5,28.2969 A2.5,2.5 0 0 1 2498,30.7969 L2498,794.5 A2.5,2.5 0 0 1 2495.5,797 L1130.5,797 A2.5,2.5 0 0 1 1128,794.5 L1128,8.5 A2.5,2.5 0 0 1 1130.5,6 " fill="none" style="stroke:#000000;stroke-width:1.5;"/><line style="stroke:#000000;stroke-width:1.5;" x1="1128" x2="1184" y1="28.2969" y2="28.2969"/><text fill="#000000" font-family="sans-serif" font-size="14" font-weight="bold" lengthAdjust="spacing" textLength="43" x="1132" y="20.9951">javax</text></g><!--cluster ejb--><g id="cluster_ejb"><path d="M1823.5,110 L1848.5,110 A3.75,3.75 0 0 1 1851,112.5 L1858,132.2969 L2471.5,132.2969 A2.5,2.5 0 0 1 2474,134.7969 L2474,770.5 A2.5,2.5 0 0 1 2471.5,773 L1823.5,773 A2.5,2.5 0 0 1 1821,770.5 L1821,112.5 A2.5,2.5 0 0 1 1823.5,110 " fill="none" style="stroke:#000000;stroke-width:1.5;"/><line style="stroke:#000000;stroke-width:1.5;" x1="1821" x2="1858" y1="132.2969" y2="132.2969"/><text fill="#000000" font-family="sans-serif" font-size="14" font-weight="bold" lengthAdjust="spacing" textLength="24" x="1825" y="124.9951">ejb</text></g><!--cluster naming--><g id="cluster_naming"><path d="M1154.5,49 L1215.5,49 A3.75,3.75 0 0 1 1218,51.5 L1225,71.2969 L1794.5,71.2969 A2.5,2.5 0 0 1 1797,73.7969 L1797,489.5 A2.5,2.5 0 0 1 1794.5,492 L1154.5,492 A2.5,2.5 0 0 1 1152,489.5 L1152,51.5 A2.5,2.5 0 0 1 1154.5,49 " fill="none" style="stroke:#000000;stroke-width:1.5;"/><line style="stroke:#000000;stroke-width:1.5;" x1="1152" x2="1225" y1="71.2969" y2="71.2969"/><text fill="#000000" font-family="sans-serif" font-size="14" font-weight="bold" lengthAdjust="spacing" textLength="60" x="1156" y="63.9951">naming</text></g><!--class MessageDrivenBean--><g id="elem_MessageDrivenBean"><rect codeLine="2" fill="#F1F1F1" height="48" id="MessageDrivenBean" rx="2.5" ry="2.5" style="stroke:#181818;stroke-width:0.5;" width="178" x="2280" y="371"/><ellipse cx="2295" cy="387" fill="#B4A7E5" rx="11" ry="11" style="stroke:#181818;stroke-width:1.0;"/><path d="M2295.9531,383.7813 L2297.6719,383.7813 C2298.0625,383.7813 2298.25,383.75 2298.375,383.6719 C2298.6406,383.5156 2298.7813,383.2344 2298.7813,382.9375 C2298.7813,382.6719 2298.6719,382.4063 2298.4375,382.2344 C2298.2656,382.125 2298.125,382.0938 2297.6719,382.0938 L2292.5313,382.0938 C2292.0938,382.0938 2291.9688,382.1094 2291.8125,382.2031 C2291.5625,382.3594 2291.4063,382.6563 2291.4063,382.9375 C2291.4063,383.2188 2291.5469,383.4688 2291.7656,383.6406 C2291.9219,383.75 2292.1094,383.7813 2292.5313,383.7813 L2294.25,383.7813 L2294.25,390.2969 L2292.5313,390.2969 C2292.0938,390.2969 2291.9688,390.3125 2291.8125,390.4219 C2291.5625,390.5781 2291.4063,390.8594 2291.4063,391.1563 C2291.4063,391.4063 2291.5469,391.6719 2291.7656,391.8281 C2291.9219,391.9531 2292.125,392 2292.5313,392 L2297.6719,392 C2298.4219,392 2298.7813,391.7188 2298.7813,391.1563 C2298.7813,390.875 2298.6719,390.625 2298.4375,390.4531 C2298.2656,390.3281 2298.125,390.2969 2297.6719,390.2969 L2295.9531,390.2969 L2295.9531,383.7813 Z " fill="#000000"/><text fill="#000000" font-family="sans-serif" font-size="14" font-style="italic" lengthAdjust="spacing" textLength="146" x="2309" y="391.8467">MessageDrivenBean</text><line style="stroke:#181818;stroke-width:0.5;" x1="2281" x2="2457" y1="403" y2="403"/><line style="stroke:#181818;stroke-width:0.5;" x1="2281" x2="2457" y1="411" y2="411"/></g><!--class EnterpriseBean--><g id="elem_EnterpriseBean"><rect codeLine="3" fill="#F1F1F1" height="48" id="EnterpriseBean" rx="2.5" ry="2.5" style="stroke:#181818;stroke-width:0.5;" width="142" x="2293" y="536"/><ellipse cx="2308" cy="552" fill="#B4A7E5" rx="11" ry="11" style="stroke:#181818;stroke-width:1.0;"/><path d="M2308.9531,548.7813 L2310.6719,548.7813 C2311.0625,548.7813 2311.25,548.75 2311.375,548.6719 C2311.6406,548.5156 2311.7813,548.2344 2311.7813,547.9375 C2311.7813,547.6719 2311.6719,547.4063 2311.4375,547.2344 C2311.2656,547.125 2311.125,547.0938 2310.6719,547.0938 L2305.5313,547.0938 C2305.0938,547.0938 2304.9688,547.1094 2304.8125,547.2031 C2304.5625,547.3594 2304.4063,547.6563 2304.4063,547.9375 C2304.4063,548.2188 2304.5469,548.4688 2304.7656,548.6406 C2304.9219,548.75 2305.1094,548.7813 2305.5313,548.7813 L2307.25,548.7813 L2307.25,555.2969 L2305.5313,555.2969 C2305.0938,555.2969 2304.9688,555.3125 2304.8125,555.4219 C2304.5625,555.5781 2304.4063,555.8594 2304.4063,556.1563 C2304.4063,556.4063 2304.5469,556.6719 2304.7656,556.8281 C2304.9219,556.9531 2305.125,557 2305.5313,557 L2310.6719,557 C2311.4219,557 2311.7813,556.7188 2311.7813,556.1563 C2311.7813,555.875 2311.6719,555.625 2311.4375,555.4531 C2311.2656,555.3281 2311.125,555.2969 2310.6719,555.2969 L2308.9531,555.2969 L2308.9531,548.7813 Z " fill="#000000"/><text fill="#000000" font-family="sans-serif" font-size="14" font-style="italic" lengthAdjust="spacing" textLength="110" x="2322" y="556.8467">EnterpriseBean</text><line style="stroke:#181818;stroke-width:0.5;" x1="2294" x2="2434" y1="568" y2="568"/><line style="stroke:#181818;stroke-width:0.5;" x1="2294" x2="2434" y1="576" y2="576"/></g><!--class EntityBean--><g id="elem_EntityBean"><rect codeLine="4" fill="#F1F1F1" height="48" id="EntityBean" rx="2.5" ry="2.5" style="stroke:#181818;stroke-width:0.5;" width="109" x="2309.5" y="676.5"/><ellipse cx="2324.5" cy="692.5" fill="#B4A7E5" rx="11" ry="11" style="stroke:#181818;stroke-width:1.0;"/><path d="M2325.4531,689.2813 L2327.1719,689.2813 C2327.5625,689.2813 2327.75,689.25 2327.875,689.1719 C2328.1406,689.0156 2328.2813,688.7344 2328.2813,688.4375 C2328.2813,688.1719 2328.1719,687.9063 2327.9375,687.7344 C2327.7656,687.625 2327.625,687.5938 2327.1719,687.5938 L2322.0313,687.5938 C2321.5938,687.5938 2321.4688,687.6094 2321.3125,687.7031 C2321.0625,687.8594 2320.9063,688.1563 2320.9063,688.4375 C2320.9063,688.7188 2321.0469,688.9688 2321.2656,689.1406 C2321.4219,689.25 2321.6094,689.2813 2322.0313,689.2813 L2323.75,689.2813 L2323.75,695.7969 L2322.0313,695.7969 C2321.5938,695.7969 2321.4688,695.8125 2321.3125,695.9219 C2321.0625,696.0781 2320.9063,696.3594 2320.9063,696.6563 C2320.9063,696.9063 2321.0469,697.1719 2321.2656,697.3281 C2321.4219,697.4531 2321.625,697.5 2322.0313,697.5 L2327.1719,697.5 C2327.9219,697.5 2328.2813,697.2188 2328.2813,696.6563 C2328.2813,696.375 2328.1719,696.125 2327.9375,695.9531 C2327.7656,695.8281 2327.625,695.7969 2327.1719,695.7969 L2325.4531,695.7969 L2325.4531,689.2813 Z " fill="#000000"/><text fill="#000000" font-family="sans-serif" font-size="14" font-style="italic" lengthAdjust="spacing" textLength="77" x="2338.5" y="697.3467">EntityBean</text><line style="stroke:#181818;stroke-width:0.5;" x1="2310.5" x2="2417.5" y1="708.5" y2="708.5"/><line style="stroke:#181818;stroke-width:0.5;" x1="2310.5" x2="2417.5" y1="716.5" y2="716.5"/></g><!--class SessionBean--><g id="elem_SessionBean"><rect codeLine="5" fill="#F1F1F1" height="113.1875" id="SessionBean" rx="2.5" ry="2.5" style="stroke:#181818;stroke-width:0.5;" width="312" x="1957" y="644"/><ellipse cx="2063.25" cy="660" fill="#B4A7E5" rx="11" ry="11" style="stroke:#181818;stroke-width:1.0;"/><path d="M2064.2031,656.7813 L2065.9219,656.7813 C2066.3125,656.7813 2066.5,656.75 2066.625,656.6719 C2066.8906,656.5156 2067.0313,656.2344 2067.0313,655.9375 C2067.0313,655.6719 2066.9219,655.4063 2066.6875,655.2344 C2066.5156,655.125 2066.375,655.0938 2065.9219,655.0938 L2060.7813,655.0938 C2060.3438,655.0938 2060.2188,655.1094 2060.0625,655.2031 C2059.8125,655.3594 2059.6563,655.6563 2059.6563,655.9375 C2059.6563,656.2188 2059.7969,656.4688 2060.0156,656.6406 C2060.1719,656.75 2060.3594,656.7813 2060.7813,656.7813 L2062.5,656.7813 L2062.5,663.2969 L2060.7813,663.2969 C2060.3438,663.2969 2060.2188,663.3125 2060.0625,663.4219 C2059.8125,663.5781 2059.6563,663.8594 2059.6563,664.1563 C2059.6563,664.4063 2059.7969,664.6719 2060.0156,664.8281 C2060.1719,664.9531 2060.375,665 2060.7813,665 L2065.9219,665 C2066.6719,665 2067.0313,664.7188 2067.0313,664.1563 C2067.0313,663.875 2066.9219,663.625 2066.6875,663.4531 C2066.5156,663.3281 2066.375,663.2969 2065.9219,663.2969 L2064.2031,663.2969 L2064.2031,656.7813 Z " fill="#000000"/><text fill="#000000" font-family="sans-serif" font-size="14" font-style="italic" lengthAdjust="spacing" textLength="91" x="2083.75" y="664.8467">SessionBean</text><line style="stroke:#181818;stroke-width:0.5;" x1="1958" x2="2268" y1="676" y2="676"/><line style="stroke:#181818;stroke-width:0.5;" x1="1958" x2="2268" y1="684" y2="684"/><ellipse cx="1968" cy="697.6484" fill="#84BE84" rx="3" ry="3" style="stroke:#038048;stroke-width:1.0;"/><text fill="#000000" font-family="sans-serif" font-size="14" lengthAdjust="spacing" textLength="94" x="1977" y="700.9951">ejbActivate()</text><ellipse cx="1968" cy="713.9453" fill="#84BE84" rx="3" ry="3" style="stroke:#038048;stroke-width:1.0;"/><text fill="#000000" font-family="sans-serif" font-size="14" lengthAdjust="spacing" textLength="100" x="1977" y="717.292">ejbPassivate()</text><ellipse cx="1968" cy="730.2422" fill="#84BE84" rx="3" ry="3" style="stroke:#038048;stroke-width:1.0;"/><text fill="#000000" font-family="sans-serif" font-size="14" lengthAdjust="spacing" textLength="92" x="1977" y="733.5889">ejbRemove()</text><ellipse cx="1968" cy="746.5391" fill="#84BE84" rx="3" ry="3" style="stroke:#038048;stroke-width:1.0;"/><text fill="#000000" font-family="sans-serif" font-size="14" lengthAdjust="spacing" textLength="286" x="1977" y="749.8857">setSessionContext(SessionContext ctx)</text></g><!--class MySessionBeanInterface--><g id="elem_MySessionBeanInterface"><rect codeLine="12" fill="#F1F1F1" height="48" id="MySessionBeanInterface" rx="2.5" ry="2.5" style="stroke:#181818;stroke-width:0.5;" width="207" x="1990.5" y="536"/><ellipse cx="2005.5" cy="552" fill="#B4A7E5" rx="11" ry="11" style="stroke:#181818;stroke-width:1.0;"/><path d="M2006.4531,548.7813 L2008.1719,548.7813 C2008.5625,548.7813 2008.75,548.75 2008.875,548.6719 C2009.1406,548.5156 2009.2813,548.2344 2009.2813,547.9375 C2009.2813,547.6719 2009.1719,547.4063 2008.9375,547.2344 C2008.7656,547.125 2008.625,547.0938 2008.1719,547.0938 L2003.0313,547.0938 C2002.5938,547.0938 2002.4688,547.1094 2002.3125,547.2031 C2002.0625,547.3594 2001.9063,547.6563 2001.9063,547.9375 C2001.9063,548.2188 2002.0469,548.4688 2002.2656,548.6406 C2002.4219,548.75 2002.6094,548.7813 2003.0313,548.7813 L2004.75,548.7813 L2004.75,555.2969 L2003.0313,555.2969 C2002.5938,555.2969 2002.4688,555.3125 2002.3125,555.4219 C2002.0625,555.5781 2001.9063,555.8594 2001.9063,556.1563 C2001.9063,556.4063 2002.0469,556.6719 2002.2656,556.8281 C2002.4219,556.9531 2002.625,557 2003.0313,557 L2008.1719,557 C2008.9219,557 2009.2813,556.7188 2009.2813,556.1563 C2009.2813,555.875 2009.1719,555.625 2008.9375,555.4531 C2008.7656,555.3281 2008.625,555.2969 2008.1719,555.2969 L2006.4531,555.2969 L2006.4531,548.7813 Z " fill="#000000"/><text fill="#000000" font-family="sans-serif" font-size="14" font-style="italic" lengthAdjust="spacing" textLength="175" x="2019.5" y="556.8467">MySessionBeanInterface</text><line style="stroke:#181818;stroke-width:0.5;" x1="1991.5" x2="2196.5" y1="568" y2="568"/><line style="stroke:#181818;stroke-width:0.5;" x1="1991.5" x2="2196.5" y1="576" y2="576"/></g><!--class Remote--><g id="elem_Remote"><rect codeLine="13" fill="#F1F1F1" height="48" id="Remote" rx="2.5" ry="2.5" style="stroke:#181818;stroke-width:0.5;" width="90" x="2155" y="371"/><ellipse cx="2170" cy="387" fill="#E3664A" rx="11" ry="11" style="stroke:#181818;stroke-width:1.0;"/><path d="M2170.9219,384.25 C2169.0156,384.3906 2167.7031,385.5781 2167.7031,387.1563 C2167.7031,388.5625 2168.9063,389.7813 2170.3594,389.7813 C2170.5156,389.7813 2170.6563,389.7656 2170.9219,389.7188 L2170.9219,389.7813 L2171.7188,389.7813 C2172.3438,389.7813 2172.6563,389.5625 2172.6563,389.0781 C2172.6563,388.7969 2172.5313,388.6094 2172.2656,388.4844 L2172.2656,383.7031 C2172.2656,381.8125 2170.9531,380.4531 2169.1094,380.4531 C2166.9063,380.4531 2165.2969,382.5781 2165.2969,385.5156 L2165.2969,388.375 C2165.2969,389.625 2165.5781,390.8438 2166.0938,391.7656 C2166.8125,393.0156 2167.7344,393.5781 2169.1406,393.5781 C2170.75,393.5781 2172.1406,392.9219 2172.1406,392.125 C2172.1406,391.7344 2171.8438,391.4219 2171.4688,391.4219 C2171.2656,391.4219 2171.1719,391.4688 2170.9375,391.7188 C2170.6094,392.0469 2169.9375,392.2656 2169.1875,392.2656 C2168.4375,392.2656 2167.9063,392 2167.5,391.4063 C2166.9219,390.6094 2166.6406,389.5625 2166.6406,388.2656 L2166.6406,385.6094 C2166.6406,383.4375 2167.7031,381.7969 2169.1406,381.7969 C2170.1875,381.7969 2170.9219,382.5781 2170.9219,383.7031 L2170.9219,384.25 Z M2170.9219,388.3594 C2170.6875,388.4063 2170.5938,388.4063 2170.4844,388.4063 C2169.6563,388.4063 2169.0469,387.875 2169.0469,387.1719 C2169.0469,386.3438 2169.7969,385.7344 2170.9219,385.625 L2170.9219,388.3594 Z " fill="#000000"/><text fill="#000000" font-family="sans-serif" font-size="14" lengthAdjust="spacing" textLength="58" x="2184" y="391.8467">Remote</text><line style="stroke:#181818;stroke-width:0.5;" x1="2156" x2="2244" y1="403" y2="403"/><line style="stroke:#181818;stroke-width:0.5;" x1="2156" x2="2244" y1="411" y2="411"/></g><!--class Local--><g id="elem_Local"><rect codeLine="14" fill="#F1F1F1" height="48" id="Local" rx="2.5" ry="2.5" style="stroke:#181818;stroke-width:0.5;" width="69" x="2050.5" y="371"/><ellipse cx="2065.5" cy="387" fill="#E3664A" rx="11" ry="11" style="stroke:#181818;stroke-width:1.0;"/><path d="M2066.4219,384.25 C2064.5156,384.3906 2063.2031,385.5781 2063.2031,387.1563 C2063.2031,388.5625 2064.4063,389.7813 2065.8594,389.7813 C2066.0156,389.7813 2066.1563,389.7656 2066.4219,389.7188 L2066.4219,389.7813 L2067.2188,389.7813 C2067.8438,389.7813 2068.1563,389.5625 2068.1563,389.0781 C2068.1563,388.7969 2068.0313,388.6094 2067.7656,388.4844 L2067.7656,383.7031 C2067.7656,381.8125 2066.4531,380.4531 2064.6094,380.4531 C2062.4063,380.4531 2060.7969,382.5781 2060.7969,385.5156 L2060.7969,388.375 C2060.7969,389.625 2061.0781,390.8438 2061.5938,391.7656 C2062.3125,393.0156 2063.2344,393.5781 2064.6406,393.5781 C2066.25,393.5781 2067.6406,392.9219 2067.6406,392.125 C2067.6406,391.7344 2067.3438,391.4219 2066.9688,391.4219 C2066.7656,391.4219 2066.6719,391.4688 2066.4375,391.7188 C2066.1094,392.0469 2065.4375,392.2656 2064.6875,392.2656 C2063.9375,392.2656 2063.4063,392 2063,391.4063 C2062.4219,390.6094 2062.1406,389.5625 2062.1406,388.2656 L2062.1406,385.6094 C2062.1406,383.4375 2063.2031,381.7969 2064.6406,381.7969 C2065.6875,381.7969 2066.4219,382.5781 2066.4219,383.7031 L2066.4219,384.25 Z M2066.4219,388.3594 C2066.1875,388.4063 2066.0938,388.4063 2065.9844,388.4063 C2065.1563,388.4063 2064.5469,387.875 2064.5469,387.1719 C2064.5469,386.3438 2065.2969,385.7344 2066.4219,385.625 L2066.4219,388.3594 Z " fill="#000000"/><text fill="#000000" font-family="sans-serif" font-size="14" lengthAdjust="spacing" textLength="37" x="2079.5" y="391.8467">Local</text><line style="stroke:#181818;stroke-width:0.5;" x1="2051.5" x2="2118.5" y1="403" y2="403"/><line style="stroke:#181818;stroke-width:0.5;" x1="2051.5" x2="2118.5" y1="411" y2="411"/></g><!--class MySessionBeanClass--><g id="elem_MySessionBeanClass"><rect codeLine="18" fill="#F1F1F1" height="48" id="MySessionBeanClass" rx="2.5" ry="2.5" style="stroke:#181818;stroke-width:0.5;" width="178" x="1837" y="371"/><ellipse cx="1852" cy="387" fill="#ADD1B2" rx="11" ry="11" style="stroke:#181818;stroke-width:1.0;"/><path d="M1854.3438,382.6719 C1853.4063,382.2344 1852.8125,382.0938 1851.9375,382.0938 C1849.3125,382.0938 1847.3125,384.1719 1847.3125,386.8906 L1847.3125,388.0156 C1847.3125,390.5938 1849.4219,392.4844 1852.3125,392.4844 C1853.5313,392.4844 1854.6875,392.1875 1855.4375,391.6406 C1856.0156,391.2344 1856.3438,390.7813 1856.3438,390.3906 C1856.3438,389.9375 1855.9531,389.5469 1855.4844,389.5469 C1855.2656,389.5469 1855.0625,389.625 1854.875,389.8125 C1854.4219,390.2969 1854.4219,390.2969 1854.2344,390.3906 C1853.8125,390.6563 1853.125,390.7813 1852.3594,390.7813 C1850.3125,390.7813 1849.0156,389.6875 1849.0156,387.9844 L1849.0156,386.8906 C1849.0156,385.1094 1850.2656,383.7969 1852,383.7969 C1852.5781,383.7969 1853.1875,383.9531 1853.6563,384.2031 C1854.1406,384.4844 1854.3125,384.7031 1854.4063,385.1094 C1854.4688,385.5156 1854.5,385.6406 1854.6406,385.7656 C1854.7813,385.9063 1855.0156,386.0156 1855.2344,386.0156 C1855.5,386.0156 1855.7656,385.875 1855.9375,385.6563 C1856.0469,385.5 1856.0781,385.3125 1856.0781,384.8906 L1856.0781,383.4688 C1856.0781,383.0313 1856.0625,382.9063 1855.9688,382.75 C1855.8125,382.4844 1855.5313,382.3438 1855.2344,382.3438 C1854.9375,382.3438 1854.7344,382.4375 1854.5156,382.75 L1854.3438,382.6719 Z " fill="#000000"/><text fill="#000000" font-family="sans-serif" font-size="14" lengthAdjust="spacing" textLength="146" x="1866" y="391.8467">MySessionBeanClass</text><line style="stroke:#181818;stroke-width:0.5;" x1="1838" x2="2014" y1="403" y2="403"/><line style="stroke:#181818;stroke-width:0.5;" x1="1838" x2="2014" y1="411" y2="411"/></g><!--class Stateful--><g id="elem_Stateful"><rect codeLine="20" fill="#F1F1F1" height="48" id="Stateful" rx="2.5" ry="2.5" style="stroke:#181818;stroke-width:0.5;" width="90" x="2108" y="145"/><ellipse cx="2123" cy="161" fill="#E3664A" rx="11" ry="11" style="stroke:#181818;stroke-width:1.0;"/><path d="M2123.9219,158.25 C2122.0156,158.3906 2120.7031,159.5781 2120.7031,161.1563 C2120.7031,162.5625 2121.9063,163.7813 2123.3594,163.7813 C2123.5156,163.7813 2123.6563,163.7656 2123.9219,163.7188 L2123.9219,163.7813 L2124.7188,163.7813 C2125.3438,163.7813 2125.6563,163.5625 2125.6563,163.0781 C2125.6563,162.7969 2125.5313,162.6094 2125.2656,162.4844 L2125.2656,157.7031 C2125.2656,155.8125 2123.9531,154.4531 2122.1094,154.4531 C2119.9063,154.4531 2118.2969,156.5781 2118.2969,159.5156 L2118.2969,162.375 C2118.2969,163.625 2118.5781,164.8438 2119.0938,165.7656 C2119.8125,167.0156 2120.7344,167.5781 2122.1406,167.5781 C2123.75,167.5781 2125.1406,166.9219 2125.1406,166.125 C2125.1406,165.7344 2124.8438,165.4219 2124.4688,165.4219 C2124.2656,165.4219 2124.1719,165.4688 2123.9375,165.7188 C2123.6094,166.0469 2122.9375,166.2656 2122.1875,166.2656 C2121.4375,166.2656 2120.9063,166 2120.5,165.4063 C2119.9219,164.6094 2119.6406,163.5625 2119.6406,162.2656 L2119.6406,159.6094 C2119.6406,157.4375 2120.7031,155.7969 2122.1406,155.7969 C2123.1875,155.7969 2123.9219,156.5781 2123.9219,157.7031 L2123.9219,158.25 Z M2123.9219,162.3594 C2123.6875,162.4063 2123.5938,162.4063 2123.4844,162.4063 C2122.6563,162.4063 2122.0469,161.875 2122.0469,161.1719 C2122.0469,160.3438 2122.7969,159.7344 2123.9219,159.625 L2123.9219,162.3594 Z " fill="#000000"/><text fill="#000000" font-family="sans-serif" font-size="14" lengthAdjust="spacing" textLength="58" x="2137" y="165.8467">Stateful</text><line style="stroke:#181818;stroke-width:0.5;" x1="2109" x2="2197" y1="177" y2="177"/><line style="stroke:#181818;stroke-width:0.5;" x1="2109" x2="2197" y1="185" y2="185"/></g><!--class Stateless--><g id="elem_Stateless"><rect codeLine="21" fill="#F1F1F1" height="48" id="Stateless" rx="2.5" ry="2.5" style="stroke:#181818;stroke-width:0.5;" width="99" x="1973.5" y="145"/><ellipse cx="1988.5" cy="161" fill="#E3664A" rx="11" ry="11" style="stroke:#181818;stroke-width:1.0;"/><path d="M1989.4219,158.25 C1987.5156,158.3906 1986.2031,159.5781 1986.2031,161.1563 C1986.2031,162.5625 1987.4063,163.7813 1988.8594,163.7813 C1989.0156,163.7813 1989.1563,163.7656 1989.4219,163.7188 L1989.4219,163.7813 L1990.2188,163.7813 C1990.8438,163.7813 1991.1563,163.5625 1991.1563,163.0781 C1991.1563,162.7969 1991.0313,162.6094 1990.7656,162.4844 L1990.7656,157.7031 C1990.7656,155.8125 1989.4531,154.4531 1987.6094,154.4531 C1985.4063,154.4531 1983.7969,156.5781 1983.7969,159.5156 L1983.7969,162.375 C1983.7969,163.625 1984.0781,164.8438 1984.5938,165.7656 C1985.3125,167.0156 1986.2344,167.5781 1987.6406,167.5781 C1989.25,167.5781 1990.6406,166.9219 1990.6406,166.125 C1990.6406,165.7344 1990.3438,165.4219 1989.9688,165.4219 C1989.7656,165.4219 1989.6719,165.4688 1989.4375,165.7188 C1989.1094,166.0469 1988.4375,166.2656 1987.6875,166.2656 C1986.9375,166.2656 1986.4063,166 1986,165.4063 C1985.4219,164.6094 1985.1406,163.5625 1985.1406,162.2656 L1985.1406,159.6094 C1985.1406,157.4375 1986.2031,155.7969 1987.6406,155.7969 C1988.6875,155.7969 1989.4219,156.5781 1989.4219,157.7031 L1989.4219,158.25 Z M1989.4219,162.3594 C1989.1875,162.4063 1989.0938,162.4063 1988.9844,162.4063 C1988.1563,162.4063 1987.5469,161.875 1987.5469,161.1719 C1987.5469,160.3438 1988.2969,159.7344 1989.4219,159.625 L1989.4219,162.3594 Z " fill="#000000"/><text fill="#000000" font-family="sans-serif" font-size="14" lengthAdjust="spacing" textLength="67" x="2002.5" y="165.8467">Stateless</text><line style="stroke:#181818;stroke-width:0.5;" x1="1974.5" x2="2071.5" y1="177" y2="177"/><line style="stroke:#181818;stroke-width:0.5;" x1="1974.5" x2="2071.5" y1="185" y2="185"/></g><!--class Singleton--><g id="elem_Singleton"><rect codeLine="22" fill="#F1F1F1" height="48" id="Singleton" rx="2.5" ry="2.5" style="stroke:#181818;stroke-width:0.5;" width="101" x="1837.5" y="145"/><ellipse cx="1852.5" cy="161" fill="#E3664A" rx="11" ry="11" style="stroke:#181818;stroke-width:1.0;"/><path d="M1853.4219,158.25 C1851.5156,158.3906 1850.2031,159.5781 1850.2031,161.1563 C1850.2031,162.5625 1851.4063,163.7813 1852.8594,163.7813 C1853.0156,163.7813 1853.1563,163.7656 1853.4219,163.7188 L1853.4219,163.7813 L1854.2188,163.7813 C1854.8438,163.7813 1855.1563,163.5625 1855.1563,163.0781 C1855.1563,162.7969 1855.0313,162.6094 1854.7656,162.4844 L1854.7656,157.7031 C1854.7656,155.8125 1853.4531,154.4531 1851.6094,154.4531 C1849.4063,154.4531 1847.7969,156.5781 1847.7969,159.5156 L1847.7969,162.375 C1847.7969,163.625 1848.0781,164.8438 1848.5938,165.7656 C1849.3125,167.0156 1850.2344,167.5781 1851.6406,167.5781 C1853.25,167.5781 1854.6406,166.9219 1854.6406,166.125 C1854.6406,165.7344 1854.3438,165.4219 1853.9688,165.4219 C1853.7656,165.4219 1853.6719,165.4688 1853.4375,165.7188 C1853.1094,166.0469 1852.4375,166.2656 1851.6875,166.2656 C1850.9375,166.2656 1850.4063,166 1850,165.4063 C1849.4219,164.6094 1849.1406,163.5625 1849.1406,162.2656 L1849.1406,159.6094 C1849.1406,157.4375 1850.2031,155.7969 1851.6406,155.7969 C1852.6875,155.7969 1853.4219,156.5781 1853.4219,157.7031 L1853.4219,158.25 Z M1853.4219,162.3594 C1853.1875,162.4063 1853.0938,162.4063 1852.9844,162.4063 C1852.1563,162.4063 1851.5469,161.875 1851.5469,161.1719 C1851.5469,160.3438 1852.2969,159.7344 1853.4219,159.625 L1853.4219,162.3594 Z " fill="#000000"/><text fill="#000000" font-family="sans-serif" font-size="14" lengthAdjust="spacing" textLength="69" x="1866.5" y="165.8467">Singleton</text><line style="stroke:#181818;stroke-width:0.5;" x1="1838.5" x2="1937.5" y1="177" y2="177"/><line style="stroke:#181818;stroke-width:0.5;" x1="1838.5" x2="1937.5" y1="185" y2="185"/></g><!--class Context--><g id="elem_Context"><rect codeLine="30" fill="#F1F1F1" height="162.0781" id="Context" rx="2.5" ry="2.5" style="stroke:#181818;stroke-width:0.5;" width="328" x="1168" y="314"/><ellipse cx="1300.25" cy="330" fill="#B4A7E5" rx="11" ry="11" style="stroke:#181818;stroke-width:1.0;"/><path d="M1301.2031,326.7813 L1302.9219,326.7813 C1303.3125,326.7813 1303.5,326.75 1303.625,326.6719 C1303.8906,326.5156 1304.0313,326.2344 1304.0313,325.9375 C1304.0313,325.6719 1303.9219,325.4063 1303.6875,325.2344 C1303.5156,325.125 1303.375,325.0938 1302.9219,325.0938 L1297.7813,325.0938 C1297.3438,325.0938 1297.2188,325.1094 1297.0625,325.2031 C1296.8125,325.3594 1296.6563,325.6563 1296.6563,325.9375 C1296.6563,326.2188 1296.7969,326.4688 1297.0156,326.6406 C1297.1719,326.75 1297.3594,326.7813 1297.7813,326.7813 L1299.5,326.7813 L1299.5,333.2969 L1297.7813,333.2969 C1297.3438,333.2969 1297.2188,333.3125 1297.0625,333.4219 C1296.8125,333.5781 1296.6563,333.8594 1296.6563,334.1563 C1296.6563,334.4063 1296.7969,334.6719 1297.0156,334.8281 C1297.1719,334.9531 1297.375,335 1297.7813,335 L1302.9219,335 C1303.6719,335 1304.0313,334.7188 1304.0313,334.1563 C1304.0313,333.875 1303.9219,333.625 1303.6875,333.4531 C1303.5156,333.3281 1303.375,333.2969 1302.9219,333.2969 L1301.2031,333.2969 L1301.2031,326.7813 Z " fill="#000000"/><text fill="#000000" font-family="sans-serif" font-size="14" font-style="italic" lengthAdjust="spacing" textLength="55" x="1320.75" y="334.8467">Context</text><line style="stroke:#181818;stroke-width:0.5;" x1="1169" x2="1495" y1="346" y2="346"/><text fill="#000000" font-family="sans-serif" font-size="14" lengthAdjust="spacing" textLength="224" x="1174" y="362.9951">constant String PROVIDER_URL</text><line style="stroke:#181818;stroke-width:0.5;" x1="1169" x2="1495" y1="370.2969" y2="370.2969"/><ellipse cx="1179" cy="383.9453" fill="#84BE84" rx="3" ry="3" style="stroke:#038048;stroke-width:1.0;"/><text fill="#000000" font-family="sans-serif" font-size="14" lengthAdjust="spacing" textLength="147" x="1188" y="387.292">lookup(String name)</text><ellipse cx="1179" cy="400.2422" fill="#84BE84" rx="3" ry="3" style="stroke:#038048;stroke-width:1.0;"/><text fill="#000000" font-family="sans-serif" font-size="14" lengthAdjust="spacing" textLength="214" x="1188" y="403.5889">bind(String name, Object obj)</text><ellipse cx="1179" cy="416.5391" fill="#84BE84" rx="3" ry="3" style="stroke:#038048;stroke-width:1.0;"/><text fill="#000000" font-family="sans-serif" font-size="14" lengthAdjust="spacing" textLength="147" x="1188" y="419.8857">unbind(String name)</text><ellipse cx="1179" cy="432.8359" fill="#84BE84" rx="3" ry="3" style="stroke:#038048;stroke-width:1.0;"/><text fill="#000000" font-family="sans-serif" font-size="14" lengthAdjust="spacing" textLength="302" x="1188" y="436.1826">rename(String oldName, String newName)</text><ellipse cx="1179" cy="449.1328" fill="#84BE84" rx="3" ry="3" style="stroke:#038048;stroke-width:1.0;"/><text fill="#000000" font-family="sans-serif" font-size="14" lengthAdjust="spacing" textLength="120" x="1188" y="452.4795">list(String name)</text><ellipse cx="1179" cy="465.4297" fill="#84BE84" rx="3" ry="3" style="stroke:#038048;stroke-width:1.0;"/><text fill="#000000" font-family="sans-serif" font-size="14" lengthAdjust="spacing" textLength="181" x="1188" y="468.7764">listBindings(String name)</text></g><!--class Properties--><g id="elem_Properties"><rect codeLine="41" fill="#F1F1F1" height="96.8906" id="Properties" rx="2.5" ry="2.5" style="stroke:#181818;stroke-width:0.5;" width="250" x="1531" y="120.5"/><ellipse cx="1613.75" cy="136.5" fill="#ADD1B2" rx="11" ry="11" style="stroke:#181818;stroke-width:1.0;"/><path d="M1616.0938,132.1719 C1615.1563,131.7344 1614.5625,131.5938 1613.6875,131.5938 C1611.0625,131.5938 1609.0625,133.6719 1609.0625,136.3906 L1609.0625,137.5156 C1609.0625,140.0938 1611.1719,141.9844 1614.0625,141.9844 C1615.2813,141.9844 1616.4375,141.6875 1617.1875,141.1406 C1617.7656,140.7344 1618.0938,140.2813 1618.0938,139.8906 C1618.0938,139.4375 1617.7031,139.0469 1617.2344,139.0469 C1617.0156,139.0469 1616.8125,139.125 1616.625,139.3125 C1616.1719,139.7969 1616.1719,139.7969 1615.9844,139.8906 C1615.5625,140.1563 1614.875,140.2813 1614.1094,140.2813 C1612.0625,140.2813 1610.7656,139.1875 1610.7656,137.4844 L1610.7656,136.3906 C1610.7656,134.6094 1612.0156,133.2969 1613.75,133.2969 C1614.3281,133.2969 1614.9375,133.4531 1615.4063,133.7031 C1615.8906,133.9844 1616.0625,134.2031 1616.1563,134.6094 C1616.2188,135.0156 1616.25,135.1406 1616.3906,135.2656 C1616.5313,135.4063 1616.7656,135.5156 1616.9844,135.5156 C1617.25,135.5156 1617.5156,135.375 1617.6875,135.1563 C1617.7969,135 1617.8281,134.8125 1617.8281,134.3906 L1617.8281,132.9688 C1617.8281,132.5313 1617.8125,132.4063 1617.7188,132.25 C1617.5625,131.9844 1617.2813,131.8438 1616.9844,131.8438 C1616.6875,131.8438 1616.4844,131.9375 1616.2656,132.25 L1616.0938,132.1719 Z " fill="#000000"/><text fill="#000000" font-family="sans-serif" font-size="14" lengthAdjust="spacing" textLength="76" x="1634.25" y="141.3467">Properties</text><line style="stroke:#181818;stroke-width:0.5;" x1="1532" x2="1780" y1="152.5" y2="152.5"/><line style="stroke:#181818;stroke-width:0.5;" x1="1532" x2="1780" y1="160.5" y2="160.5"/><ellipse cx="1542" cy="174.1484" fill="#84BE84" rx="3" ry="3" style="stroke:#038048;stroke-width:1.0;"/><text fill="#000000" font-family="sans-serif" font-size="14" lengthAdjust="spacing" textLength="86" x="1551" y="177.4951">Properties()</text><ellipse cx="1542" cy="190.4453" fill="#84BE84" rx="3" ry="3" style="stroke:#038048;stroke-width:1.0;"/><text fill="#000000" font-family="sans-serif" font-size="14" lengthAdjust="spacing" textLength="224" x="1551" y="193.792">Properties(Properties defaults)</text><ellipse cx="1542" cy="206.7422" fill="#84BE84" rx="3" ry="3" style="stroke:#038048;stroke-width:1.0;"/><text fill="#000000" font-family="sans-serif" font-size="14" lengthAdjust="spacing" textLength="202" x="1551" y="210.0889">put(String key, String value)</text></g><!--class InitialContext--><g id="elem_InitialContext"><rect codeLine="47" fill="#F1F1F1" height="170.3438" id="InitialContext" rx="2.5" ry="2.5" style="stroke:#181818;stroke-width:0.5;" width="328" x="1168" y="84"/><ellipse cx="1278.25" cy="104.1328" fill="#ADD1B2" rx="11" ry="11" style="stroke:#181818;stroke-width:1.0;"/><path d="M1280.5938,99.8047 C1279.6563,99.3672 1279.0625,99.2266 1278.1875,99.2266 C1275.5625,99.2266 1273.5625,101.3047 1273.5625,104.0234 L1273.5625,105.1484 C1273.5625,107.7266 1275.6719,109.6172 1278.5625,109.6172 C1279.7813,109.6172 1280.9375,109.3203 1281.6875,108.7734 C1282.2656,108.3672 1282.5938,107.9141 1282.5938,107.5234 C1282.5938,107.0703 1282.2031,106.6797 1281.7344,106.6797 C1281.5156,106.6797 1281.3125,106.7578 1281.125,106.9453 C1280.6719,107.4297 1280.6719,107.4297 1280.4844,107.5234 C1280.0625,107.7891 1279.375,107.9141 1278.6094,107.9141 C1276.5625,107.9141 1275.2656,106.8203 1275.2656,105.1172 L1275.2656,104.0234 C1275.2656,102.2422 1276.5156,100.9297 1278.25,100.9297 C1278.8281,100.9297 1279.4375,101.0859 1279.9063,101.3359 C1280.3906,101.6172 1280.5625,101.8359 1280.6563,102.2422 C1280.7188,102.6484 1280.75,102.7734 1280.8906,102.8984 C1281.0313,103.0391 1281.2656,103.1484 1281.4844,103.1484 C1281.75,103.1484 1282.0156,103.0078 1282.1875,102.7891 C1282.2969,102.6328 1282.3281,102.4453 1282.3281,102.0234 L1282.3281,100.6016 C1282.3281,100.1641 1282.3125,100.0391 1282.2188,99.8828 C1282.0625,99.6172 1281.7813,99.4766 1281.4844,99.4766 C1281.1875,99.4766 1280.9844,99.5703 1280.7656,99.8828 L1280.5938,99.8047 Z " fill="#000000"/><text fill="#000000" font-family="sans-serif" font-size="12" font-style="italic" lengthAdjust="spacing" textLength="94" x="1301.25" y="100.1387">&#171;InitialContext&#187;</text><text fill="#000000" font-family="sans-serif" font-size="14" lengthAdjust="spacing" textLength="99" x="1298.75" y="115.9639">InitialContext</text><line style="stroke:#181818;stroke-width:0.5;" x1="1169" x2="1495" y1="124.2656" y2="124.2656"/><line style="stroke:#181818;stroke-width:0.5;" x1="1169" x2="1495" y1="132.2656" y2="132.2656"/><ellipse cx="1179" cy="145.9141" fill="#84BE84" rx="3" ry="3" style="stroke:#038048;stroke-width:1.0;"/><text fill="#000000" font-family="sans-serif" font-size="14" lengthAdjust="spacing" textLength="147" x="1188" y="149.2607">lookup(String name)</text><ellipse cx="1179" cy="162.2109" fill="#84BE84" rx="3" ry="3" style="stroke:#038048;stroke-width:1.0;"/><text fill="#000000" font-family="sans-serif" font-size="14" lengthAdjust="spacing" textLength="214" x="1188" y="165.5576">bind(String name, Object obj)</text><ellipse cx="1179" cy="178.5078" fill="#84BE84" rx="3" ry="3" style="stroke:#038048;stroke-width:1.0;"/><text fill="#000000" font-family="sans-serif" font-size="14" lengthAdjust="spacing" textLength="147" x="1188" y="181.8545">unbind(String name)</text><ellipse cx="1179" cy="194.8047" fill="#84BE84" rx="3" ry="3" style="stroke:#038048;stroke-width:1.0;"/><text fill="#000000" font-family="sans-serif" font-size="14" lengthAdjust="spacing" textLength="302" x="1188" y="198.1514">rename(String oldName, String newName)</text><ellipse cx="1179" cy="211.1016" fill="#84BE84" rx="3" ry="3" style="stroke:#038048;stroke-width:1.0;"/><text fill="#000000" font-family="sans-serif" font-size="14" lengthAdjust="spacing" textLength="120" x="1188" y="214.4482">list(String name)</text><ellipse cx="1179" cy="227.3984" fill="#84BE84" rx="3" ry="3" style="stroke:#038048;stroke-width:1.0;"/><text fill="#000000" font-family="sans-serif" font-size="14" lengthAdjust="spacing" textLength="181" x="1188" y="230.7451">listBindings(String name)</text><ellipse cx="1179" cy="243.6953" fill="#84BE84" rx="3" ry="3" style="stroke:#038048;stroke-width:1.0;"/><text fill="#000000" font-family="sans-serif" font-size="14" lengthAdjust="spacing" textLength="282" x="1188" y="247.042">InitialContext(Properties environment)</text></g><!--class MyServer--><g id="elem_MyServer"><rect codeLine="58" fill="#F1F1F1" height="80.5938" id="MyServer" rx="2.5" ry="2.5" style="stroke:#181818;stroke-width:0.5;" width="435" x="179.5" y="128.5"/><ellipse cx="359.25" cy="144.5" fill="#ADD1B2" rx="11" ry="11" style="stroke:#181818;stroke-width:1.0;"/><path d="M361.5938,140.1719 C360.6563,139.7344 360.0625,139.5938 359.1875,139.5938 C356.5625,139.5938 354.5625,141.6719 354.5625,144.3906 L354.5625,145.5156 C354.5625,148.0938 356.6719,149.9844 359.5625,149.9844 C360.7813,149.9844 361.9375,149.6875 362.6875,149.1406 C363.2656,148.7344 363.5938,148.2813 363.5938,147.8906 C363.5938,147.4375 363.2031,147.0469 362.7344,147.0469 C362.5156,147.0469 362.3125,147.125 362.125,147.3125 C361.6719,147.7969 361.6719,147.7969 361.4844,147.8906 C361.0625,148.1563 360.375,148.2813 359.6094,148.2813 C357.5625,148.2813 356.2656,147.1875 356.2656,145.4844 L356.2656,144.3906 C356.2656,142.6094 357.5156,141.2969 359.25,141.2969 C359.8281,141.2969 360.4375,141.4531 360.9063,141.7031 C361.3906,141.9844 361.5625,142.2031 361.6563,142.6094 C361.7188,143.0156 361.75,143.1406 361.8906,143.2656 C362.0313,143.4063 362.2656,143.5156 362.4844,143.5156 C362.75,143.5156 363.0156,143.375 363.1875,143.1563 C363.2969,143 363.3281,142.8125 363.3281,142.3906 L363.3281,140.9688 C363.3281,140.5313 363.3125,140.4063 363.2188,140.25 C363.0625,139.9844 362.7813,139.8438 362.4844,139.8438 C362.1875,139.8438 361.9844,139.9375 361.7656,140.25 L361.5938,140.1719 Z " fill="#000000"/><text fill="#000000" font-family="sans-serif" font-size="14" lengthAdjust="spacing" textLength="67" x="379.75" y="149.3467">MyServer</text><line style="stroke:#181818;stroke-width:0.5;" x1="180.5" x2="613.5" y1="160.5" y2="160.5"/><line style="stroke:#181818;stroke-width:0.5;" x1="180.5" x2="613.5" y1="168.5" y2="168.5"/><rect fill="#F24D5C" height="6" style="stroke:#C82930;stroke-width:1.0;" width="6" x="187.5" y="187.2969"/><text fill="#000000" font-family="sans-serif" font-size="14" lengthAdjust="spacing" textLength="347" x="199.5" y="185.4951">@EJB(mappedName="ejb/MySessionBeanClass")</text><text fill="#000000" font-family="sans-serif" font-size="14" lengthAdjust="spacing" textLength="409" x="199.5" y="201.792">private MySessionBeanInterface mySessionBeanInstance</text></g><!--class MyClient1--><g id="elem_MyClient1"><rect codeLine="62" fill="#F1F1F1" height="80.5938" id="MyClient1" rx="2.5" ry="2.5" style="stroke:#181818;stroke-width:0.5;" width="462" x="650" y="128.5"/><ellipse cx="840.75" cy="144.5" fill="#ADD1B2" rx="11" ry="11" style="stroke:#181818;stroke-width:1.0;"/><path d="M843.0938,140.1719 C842.1563,139.7344 841.5625,139.5938 840.6875,139.5938 C838.0625,139.5938 836.0625,141.6719 836.0625,144.3906 L836.0625,145.5156 C836.0625,148.0938 838.1719,149.9844 841.0625,149.9844 C842.2813,149.9844 843.4375,149.6875 844.1875,149.1406 C844.7656,148.7344 845.0938,148.2813 845.0938,147.8906 C845.0938,147.4375 844.7031,147.0469 844.2344,147.0469 C844.0156,147.0469 843.8125,147.125 843.625,147.3125 C843.1719,147.7969 843.1719,147.7969 842.9844,147.8906 C842.5625,148.1563 841.875,148.2813 841.1094,148.2813 C839.0625,148.2813 837.7656,147.1875 837.7656,145.4844 L837.7656,144.3906 C837.7656,142.6094 839.0156,141.2969 840.75,141.2969 C841.3281,141.2969 841.9375,141.4531 842.4063,141.7031 C842.8906,141.9844 843.0625,142.2031 843.1563,142.6094 C843.2188,143.0156 843.25,143.1406 843.3906,143.2656 C843.5313,143.4063 843.7656,143.5156 843.9844,143.5156 C844.25,143.5156 844.5156,143.375 844.6875,143.1563 C844.7969,143 844.8281,142.8125 844.8281,142.3906 L844.8281,140.9688 C844.8281,140.5313 844.8125,140.4063 844.7188,140.25 C844.5625,139.9844 844.2813,139.8438 843.9844,139.8438 C843.6875,139.8438 843.4844,139.9375 843.2656,140.25 L843.0938,140.1719 Z " fill="#000000"/><text fill="#000000" font-family="sans-serif" font-size="14" lengthAdjust="spacing" textLength="72" x="861.25" y="149.3467">MyClient1</text><line style="stroke:#181818;stroke-width:0.5;" x1="651" x2="1111" y1="160.5" y2="160.5"/><line style="stroke:#181818;stroke-width:0.5;" x1="651" x2="1111" y1="168.5" y2="168.5"/><rect fill="#F24D5C" height="6" style="stroke:#C82930;stroke-width:1.0;" width="6" x="658" y="187.2969"/><text fill="#000000" font-family="sans-serif" font-size="14" lengthAdjust="spacing" textLength="432" x="670" y="185.4951">@EJB(lookup="java:global/MyApp/ejb/MySessionBeanClass")</text><text fill="#000000" font-family="sans-serif" font-size="14" lengthAdjust="spacing" textLength="416" x="670" y="201.792">MySessionBeanInterface myRemoteSessionBeanInstance;</text></g><!--class MyClient2--><g id="elem_MyClient2"><rect codeLine="66" fill="#F1F1F1" height="113.1875" id="MyClient2" rx="2.5" ry="2.5" style="stroke:#181818;stroke-width:0.5;" width="780" x="7" y="338.5"/><ellipse cx="357.25" cy="354.5" fill="#ADD1B2" rx="11" ry="11" style="stroke:#181818;stroke-width:1.0;"/><path d="M359.5938,350.1719 C358.6563,349.7344 358.0625,349.5938 357.1875,349.5938 C354.5625,349.5938 352.5625,351.6719 352.5625,354.3906 L352.5625,355.5156 C352.5625,358.0938 354.6719,359.9844 357.5625,359.9844 C358.7813,359.9844 359.9375,359.6875 360.6875,359.1406 C361.2656,358.7344 361.5938,358.2813 361.5938,357.8906 C361.5938,357.4375 361.2031,357.0469 360.7344,357.0469 C360.5156,357.0469 360.3125,357.125 360.125,357.3125 C359.6719,357.7969 359.6719,357.7969 359.4844,357.8906 C359.0625,358.1563 358.375,358.2813 357.6094,358.2813 C355.5625,358.2813 354.2656,357.1875 354.2656,355.4844 L354.2656,354.3906 C354.2656,352.6094 355.5156,351.2969 357.25,351.2969 C357.8281,351.2969 358.4375,351.4531 358.9063,351.7031 C359.3906,351.9844 359.5625,352.2031 359.6563,352.6094 C359.7188,353.0156 359.75,353.1406 359.8906,353.2656 C360.0313,353.4063 360.2656,353.5156 360.4844,353.5156 C360.75,353.5156 361.0156,353.375 361.1875,353.1563 C361.2969,353 361.3281,352.8125 361.3281,352.3906 L361.3281,350.9688 C361.3281,350.5313 361.3125,350.4063 361.2188,350.25 C361.0625,349.9844 360.7813,349.8438 360.4844,349.8438 C360.1875,349.8438 359.9844,349.9375 359.7656,350.25 L359.5938,350.1719 Z " fill="#000000"/><text fill="#000000" font-family="sans-serif" font-size="14" lengthAdjust="spacing" textLength="71" x="377.75" y="359.3467">MyClient2</text><line style="stroke:#181818;stroke-width:0.5;" x1="8" x2="786" y1="370.5" y2="370.5"/><rect fill="none" height="6" style="stroke:#C82930;stroke-width:1.0;" width="6" x="15" y="381.1484"/><text fill="#000000" font-family="sans-serif" font-size="14" lengthAdjust="spacing" textLength="157" x="27" y="387.4951">Properties properties</text><line style="stroke:#181818;stroke-width:0.5;" x1="8" x2="786" y1="394.7969" y2="394.7969"/><rect fill="#F24D5C" height="6" style="stroke:#C82930;stroke-width:1.0;" width="6" x="15" y="405.4453"/><text fill="#000000" font-family="sans-serif" font-size="14" lengthAdjust="spacing" textLength="325" x="27" y="411.792">Context context = InitialContext(properties)</text><rect fill="#F24D5C" height="6" style="stroke:#C82930;stroke-width:1.0;" width="6" x="15" y="421.7422"/><text fill="#000000" font-family="sans-serif" font-size="14" lengthAdjust="spacing" textLength="452" x="27" y="428.0889">Object proxy = context.lookup("ejb/MySessionBeanInterface")</text><rect fill="#F24D5C" height="6" style="stroke:#C82930;stroke-width:1.0;" width="6" x="15" y="438.0391"/><text fill="#000000" font-family="sans-serif" font-size="14" lengthAdjust="spacing" textLength="754" x="27" y="444.3857">MySessionBeanInterface myBean = PortableRemoteObject.narrow(proxy, MySessionBeanInterface.class)</text></g><!--link Local to MySessionBeanInterface--><g id="link_Local_MySessionBeanInterface"><path codeLine="15" d="M2086.27,419.008 C2087.98,449.986 2091.01,504.793 2092.72,535.846 " fill="none" id="Local-MySessionBeanInterface" style="stroke:#181818;stroke-width:1.0;"/></g><!--link Remote to MySessionBeanInterface--><g id="link_Remote_MySessionBeanInterface"><path codeLine="16" d="M2186.78,419.071 C2174.4,440.381 2155.13,472.761 2137,500 C2128.99,512.029 2119.59,525.044 2111.62,535.782 " fill="none" id="Remote-MySessionBeanInterface" style="stroke:#181818;stroke-width:1.0;"/></g><!--link Stateful to MySessionBeanClass--><g id="link_Stateful_MySessionBeanClass"><path codeLine="24" d="M2137.69,193.177 C2125.65,210.676 2107.97,234.862 2090,254 C2047.59,299.17 1991.48,344.448 1957.1,370.817 " fill="none" id="Stateful-MySessionBeanClass" style="stroke:#181818;stroke-width:1.0;"/></g><!--link Stateless to MySessionBeanClass--><g id="link_Stateless_MySessionBeanClass"><path codeLine="25" d="M2012.98,193.128 C1994.35,236.164 1954.56,328.058 1935.96,370.998 " fill="none" id="Stateless-MySessionBeanClass" style="stroke:#181818;stroke-width:1.0;"/></g><!--link Singleton to MySessionBeanClass--><g id="link_Singleton_MySessionBeanClass"><path codeLine="26" d="M1891.92,193.128 C1899.22,236.164 1914.81,328.058 1922.1,370.998 " fill="none" id="Singleton-MySessionBeanClass" style="stroke:#181818;stroke-width:1.0;"/></g><!--link MySessionBeanInterface to SessionBean--><g id="link_MySessionBeanInterface_SessionBean"><path codeLine="73" d="M2097.18,584.182 C2099.42,600.507 2100.0742,605.2509 2102.9342,626.1039 " fill="none" id="MySessionBeanInterface-to-SessionBean" style="stroke:#181818;stroke-width:1.0;"/><polygon fill="none" points="2105.38,643.937,2108.8785,625.2887,2096.9898,626.9192,2105.38,643.937" style="stroke:#181818;stroke-width:1.0;"/></g><!--link MySessionBeanClass to MySessionBeanInterface--><g id="link_MySessionBeanClass_MySessionBeanInterface"><path codeLine="74" d="M1949.78,419.148 C1971.46,440.235 2004.36,472.229 2033,500 C2045.16,511.794 2045.769,512.3868 2056.999,523.2438 " fill="none" id="MySessionBeanClass-to-MySessionBeanInterface" style="stroke:#181818;stroke-width:1.0;"/><polygon fill="none" points="2069.94,535.755,2061.1694,518.9301,2052.8286,527.5575,2069.94,535.755" style="stroke:#181818;stroke-width:1.0;"/></g><!--link MessageDrivenBean to EnterpriseBean--><g id="link_MessageDrivenBean_EnterpriseBean"><path codeLine="76" d="M2368.29,419.008 C2367.34,449.986 2366.2104,486.8014 2365.2604,517.8544 " fill="none" id="MessageDrivenBean-to-EnterpriseBean" style="stroke:#181818;stroke-width:1.0;"/><polygon fill="none" points="2364.71,535.846,2371.2576,518.0379,2359.2632,517.6709,2364.71,535.846" style="stroke:#181818;stroke-width:1.0;"/></g><!--reverse link EnterpriseBean to SessionBean--><g id="link_EnterpriseBean_SessionBean"><path codeLine="78" d="M2306.5103,592.7226 C2276.8903,609.0676 2251.57,623.04 2213.64,643.968 " fill="none" id="EnterpriseBean-backto-SessionBean" style="stroke:#181818;stroke-width:1.0;stroke-dasharray:7.0,7.0;"/><polygon fill="none" points="2322.27,584.026,2303.6114,587.4693,2309.4091,597.9758,2322.27,584.026" style="stroke:#181818;stroke-width:1.0;"/></g><!--reverse link EnterpriseBean to EntityBean--><g id="link_EnterpriseBean_EntityBean"><path codeLine="79" d="M2364,602.182 C2364,627.748 2364,650.646 2364,676.243 " fill="none" id="EnterpriseBean-backto-EntityBean" style="stroke:#181818;stroke-width:1.0;stroke-dasharray:7.0,7.0;"/><polygon fill="none" points="2364,584.182,2358,602.182,2370,602.182,2364,584.182" style="stroke:#181818;stroke-width:1.0;"/></g><!--link InitialContext to Context--><g id="link_InitialContext_Context"><path codeLine="81" d="M1332,254.047 C1332,273.661 1332,276.498 1332,295.934 " fill="none" id="InitialContext-to-Context" style="stroke:#181818;stroke-width:1.0;"/><polygon fill="none" points="1332,313.934,1338,295.934,1326,295.934,1332,313.934" style="stroke:#181818;stroke-width:1.0;"/></g><!--SRC=[rLLDZzem4BtpAonEGTsmQeyje2ui1whjBW9jJvKg9mp8OEp8SRAWRlzxnquSudpqtbFYDy_pPiRZSKBZ4pq0ETASNiPmZCZl0I5CQ51x6WFv3ccAzaV5SX1peCApBirVebWANIQchoruY_wOj9wi4Y4VKFGXrYod6e9H1Qqf4XlO1iuohu0KTEbj8T7_HGV-aiJwOgX_1dv6rreCAmSZXGeXDTLe8KP8Dx0d6LEEaFsICEprKspkPo0bvfYT7yd2G6ZoHRVuXNt6Er0Ebb-7cJXmq58O2RUp6OVJgNpq4fotRW9MDV5wHz0pxcYqZpkAygYvbASi2RPQ6IhkWF8i8oPsTVYEl4H7Y3MHqR6aPA99AWqApC8P9DyzMmUE26_FDovdgUvmOU0vUaSuzStM7akHQYgqyxdUlFnOFIutlrutJwx1YYDTAvc0qWnIb_8DSNrRGshq7UnfndLQafAiYlC4rogRdF8CHhxcIZ3DA7UbdanyO3RxVwjlpNuwzPg1o9cIuWn25pN1gjokbif1sTJ3hyjly-1CamHiTDCXpfBxTayFH-Idm6bcfaxFc21d7pPjWLUwfhlW3CFvM1CkoZuTcclo-S1bH3cAFoJ9_J_2w9Klfaj745_QKNmgegXLBAb-ZQ4QbELtskYbu4OtzGtBha3qSaLokMrSzbMxgbNSGxkzDoVx6ap9MYfD8mv5YeKOZXMbv5jWDUzwJcLiqnwP0lHeXE7xhFxs3DfbBpXzCxlr3XRqnWCuyDTayZuUUx9TzjfBEMZSPQjHBlu2]--></g></svg>