<?xml version="1.0" encoding="us-ascii" standalone="no"?><svg xmlns="http://www.w3.org/2000/svg" xmlns:xlink="http://www.w3.org/1999/xlink" contentStyleType="text/css" height="757px" preserveAspectRatio="none" style="width:1438px;height:757px;background:#FFFFFF;" version="1.1" viewBox="0 0 1438 757" width="1438px" zoomAndPan="magnify"><defs/><g><!--class DriverManager--><g id="elem_DriverManager"><rect codeLine="1" fill="#F1F1F1" height="64.2969" id="DriverManager" rx="2.5" ry="2.5" style="stroke:#181818;stroke-width:0.5;" width="511" x="536.5" y="7"/><ellipse cx="735.25" cy="23" fill="#ADD1B2" rx="11" ry="11" style="stroke:#181818;stroke-width:1.0;"/><path d="M737.5938,18.6719 C736.6563,18.2344 736.0625,18.0938 735.1875,18.0938 C732.5625,18.0938 730.5625,20.1719 730.5625,22.8906 L730.5625,24.0156 C730.5625,26.5938 732.6719,28.4844 735.5625,28.4844 C736.7813,28.4844 737.9375,28.1875 738.6875,27.6406 C739.2656,27.2344 739.5938,26.7813 739.5938,26.3906 C739.5938,25.9375 739.2031,25.5469 738.7344,25.5469 C738.5156,25.5469 738.3125,25.625 738.125,25.8125 C737.6719,26.2969 737.6719,26.2969 737.4844,26.3906 C737.0625,26.6563 736.375,26.7813 735.6094,26.7813 C733.5625,26.7813 732.2656,25.6875 732.2656,23.9844 L732.2656,22.8906 C732.2656,21.1094 733.5156,19.7969 735.25,19.7969 C735.8281,19.7969 736.4375,19.9531 736.9063,20.2031 C737.3906,20.4844 737.5625,20.7031 737.6563,21.1094 C737.7188,21.5156 737.75,21.6406 737.8906,21.7656 C738.0313,21.9063 738.2656,22.0156 738.4844,22.0156 C738.75,22.0156 739.0156,21.875 739.1875,21.6563 C739.2969,21.5 739.3281,21.3125 739.3281,20.8906 L739.3281,19.4688 C739.3281,19.0313 739.3125,18.9063 739.2188,18.75 C739.0625,18.4844 738.7813,18.3438 738.4844,18.3438 C738.1875,18.3438 737.9844,18.4375 737.7656,18.75 L737.5938,18.6719 Z " fill="#000000"/><text fill="#000000" font-family="sans-serif" font-size="14" lengthAdjust="spacing" textLength="105" x="755.75" y="27.8467">DriverManager</text><line style="stroke:#181818;stroke-width:0.5;" x1="537.5" x2="1046.5" y1="39" y2="39"/><line style="stroke:#181818;stroke-width:0.5;" x1="537.5" x2="1046.5" y1="47" y2="47"/><ellipse cx="547.5" cy="60.6484" fill="#84BE84" rx="3" ry="3" style="stroke:#038048;stroke-width:1.0;"/><text fill="#000000" font-family="sans-serif" font-size="14" lengthAdjust="spacing" textLength="485" x="556.5" y="63.9951">getConnection(String url, String user, String password): Connection</text></g><!--class Connection--><g id="elem_Connection"><rect codeLine="5" fill="#F1F1F1" height="96.8906" id="Connection" rx="2.5" ry="2.5" style="stroke:#181818;stroke-width:0.5;" width="395" x="594.5" y="148"/><ellipse cx="747.25" cy="164" fill="#B4A7E5" rx="11" ry="11" style="stroke:#181818;stroke-width:1.0;"/><path d="M748.2031,160.7813 L749.9219,160.7813 C750.3125,160.7813 750.5,160.75 750.625,160.6719 C750.8906,160.5156 751.0313,160.2344 751.0313,159.9375 C751.0313,159.6719 750.9219,159.4063 750.6875,159.2344 C750.5156,159.125 750.375,159.0938 749.9219,159.0938 L744.7813,159.0938 C744.3438,159.0938 744.2188,159.1094 744.0625,159.2031 C743.8125,159.3594 743.6563,159.6563 743.6563,159.9375 C743.6563,160.2188 743.7969,160.4688 744.0156,160.6406 C744.1719,160.75 744.3594,160.7813 744.7813,160.7813 L746.5,160.7813 L746.5,167.2969 L744.7813,167.2969 C744.3438,167.2969 744.2188,167.3125 744.0625,167.4219 C743.8125,167.5781 743.6563,167.8594 743.6563,168.1563 C743.6563,168.4063 743.7969,168.6719 744.0156,168.8281 C744.1719,168.9531 744.375,169 744.7813,169 L749.9219,169 C750.6719,169 751.0313,168.7188 751.0313,168.1563 C751.0313,167.875 750.9219,167.625 750.6875,167.4531 C750.5156,167.3281 750.375,167.2969 749.9219,167.2969 L748.2031,167.2969 L748.2031,160.7813 Z " fill="#000000"/><text fill="#000000" font-family="sans-serif" font-size="14" font-style="italic" lengthAdjust="spacing" textLength="81" x="767.75" y="168.8467">Connection</text><line style="stroke:#181818;stroke-width:0.5;" x1="595.5" x2="988.5" y1="180" y2="180"/><line style="stroke:#181818;stroke-width:0.5;" x1="595.5" x2="988.5" y1="188" y2="188"/><ellipse cx="605.5" cy="201.6484" fill="#84BE84" rx="3" ry="3" style="stroke:#038048;stroke-width:1.0;"/><text fill="#000000" font-family="sans-serif" font-size="14" lengthAdjust="spacing" textLength="224" x="614.5" y="204.9951">createStatement(): Statement</text><ellipse cx="605.5" cy="217.9453" fill="#84BE84" rx="3" ry="3" style="stroke:#038048;stroke-width:1.0;"/><text fill="#000000" font-family="sans-serif" font-size="14" lengthAdjust="spacing" textLength="369" x="614.5" y="221.292">prepareStatement(String sql): PreparedStatement</text><ellipse cx="605.5" cy="234.2422" fill="#84BE84" rx="3" ry="3" style="stroke:#038048;stroke-width:1.0;"/><text fill="#000000" font-family="sans-serif" font-size="14" lengthAdjust="spacing" textLength="47" x="614.5" y="237.5889">close()</text></g><!--class Statement--><g id="elem_Statement"><rect codeLine="11" fill="#F1F1F1" height="96.8906" id="Statement" rx="2.5" ry="2.5" style="stroke:#181818;stroke-width:0.5;" width="283" x="483.5" y="322"/><ellipse cx="583.75" cy="338" fill="#B4A7E5" rx="11" ry="11" style="stroke:#181818;stroke-width:1.0;"/><path d="M584.7031,334.7813 L586.4219,334.7813 C586.8125,334.7813 587,334.75 587.125,334.6719 C587.3906,334.5156 587.5313,334.2344 587.5313,333.9375 C587.5313,333.6719 587.4219,333.4063 587.1875,333.2344 C587.0156,333.125 586.875,333.0938 586.4219,333.0938 L581.2813,333.0938 C580.8438,333.0938 580.7188,333.1094 580.5625,333.2031 C580.3125,333.3594 580.1563,333.6563 580.1563,333.9375 C580.1563,334.2188 580.2969,334.4688 580.5156,334.6406 C580.6719,334.75 580.8594,334.7813 581.2813,334.7813 L583,334.7813 L583,341.2969 L581.2813,341.2969 C580.8438,341.2969 580.7188,341.3125 580.5625,341.4219 C580.3125,341.5781 580.1563,341.8594 580.1563,342.1563 C580.1563,342.4063 580.2969,342.6719 580.5156,342.8281 C580.6719,342.9531 580.875,343 581.2813,343 L586.4219,343 C587.1719,343 587.5313,342.7188 587.5313,342.1563 C587.5313,341.875 587.4219,341.625 587.1875,341.4531 C587.0156,341.3281 586.875,341.2969 586.4219,341.2969 L584.7031,341.2969 L584.7031,334.7813 Z " fill="#000000"/><text fill="#000000" font-family="sans-serif" font-size="14" font-style="italic" lengthAdjust="spacing" textLength="74" x="604.25" y="342.8467">Statement</text><line style="stroke:#181818;stroke-width:0.5;" x1="484.5" x2="765.5" y1="354" y2="354"/><line style="stroke:#181818;stroke-width:0.5;" x1="484.5" x2="765.5" y1="362" y2="362"/><ellipse cx="494.5" cy="375.6484" fill="#84BE84" rx="3" ry="3" style="stroke:#038048;stroke-width:1.0;"/><text fill="#000000" font-family="sans-serif" font-size="14" lengthAdjust="spacing" textLength="257" x="503.5" y="378.9951">executeQuery(String sql): ResultSet</text><ellipse cx="494.5" cy="391.9453" fill="#84BE84" rx="3" ry="3" style="stroke:#038048;stroke-width:1.0;"/><text fill="#000000" font-family="sans-serif" font-size="14" lengthAdjust="spacing" textLength="217" x="503.5" y="395.292">executeUpdate(String sql): int</text><ellipse cx="494.5" cy="408.2422" fill="#84BE84" rx="3" ry="3" style="stroke:#038048;stroke-width:1.0;"/><text fill="#000000" font-family="sans-serif" font-size="14" lengthAdjust="spacing" textLength="47" x="503.5" y="411.5889">close()</text></g><!--class ResultSet--><g id="elem_ResultSet"><rect codeLine="17" fill="#F1F1F1" height="129.4844" id="ResultSet" rx="2.5" ry="2.5" style="stroke:#181818;stroke-width:0.5;" width="309" x="206.5" y="496"/><ellipse cx="323.25" cy="512" fill="#B4A7E5" rx="11" ry="11" style="stroke:#181818;stroke-width:1.0;"/><path d="M324.2031,508.7813 L325.9219,508.7813 C326.3125,508.7813 326.5,508.75 326.625,508.6719 C326.8906,508.5156 327.0313,508.2344 327.0313,507.9375 C327.0313,507.6719 326.9219,507.4063 326.6875,507.2344 C326.5156,507.125 326.375,507.0938 325.9219,507.0938 L320.7813,507.0938 C320.3438,507.0938 320.2188,507.1094 320.0625,507.2031 C319.8125,507.3594 319.6563,507.6563 319.6563,507.9375 C319.6563,508.2188 319.7969,508.4688 320.0156,508.6406 C320.1719,508.75 320.3594,508.7813 320.7813,508.7813 L322.5,508.7813 L322.5,515.2969 L320.7813,515.2969 C320.3438,515.2969 320.2188,515.3125 320.0625,515.4219 C319.8125,515.5781 319.6563,515.8594 319.6563,516.1563 C319.6563,516.4063 319.7969,516.6719 320.0156,516.8281 C320.1719,516.9531 320.375,517 320.7813,517 L325.9219,517 C326.6719,517 327.0313,516.7188 327.0313,516.1563 C327.0313,515.875 326.9219,515.625 326.6875,515.4531 C326.5156,515.3281 326.375,515.2969 325.9219,515.2969 L324.2031,515.2969 L324.2031,508.7813 Z " fill="#000000"/><text fill="#000000" font-family="sans-serif" font-size="14" font-style="italic" lengthAdjust="spacing" textLength="67" x="343.75" y="516.8467">ResultSet</text><line style="stroke:#181818;stroke-width:0.5;" x1="207.5" x2="514.5" y1="528" y2="528"/><line style="stroke:#181818;stroke-width:0.5;" x1="207.5" x2="514.5" y1="536" y2="536"/><ellipse cx="217.5" cy="549.6484" fill="#84BE84" rx="3" ry="3" style="stroke:#038048;stroke-width:1.0;"/><text fill="#000000" font-family="sans-serif" font-size="14" lengthAdjust="spacing" textLength="110" x="226.5" y="552.9951">next(): boolean</text><ellipse cx="217.5" cy="565.9453" fill="#84BE84" rx="3" ry="3" style="stroke:#038048;stroke-width:1.0;"/><text fill="#000000" font-family="sans-serif" font-size="14" lengthAdjust="spacing" textLength="223" x="226.5" y="569.292">getInt(String columnLabel): int</text><ellipse cx="217.5" cy="582.2422" fill="#84BE84" rx="3" ry="3" style="stroke:#038048;stroke-width:1.0;"/><text fill="#000000" font-family="sans-serif" font-size="14" lengthAdjust="spacing" textLength="271" x="226.5" y="585.5889">getString(String columnLabel): String</text><ellipse cx="217.5" cy="598.5391" fill="#84BE84" rx="3" ry="3" style="stroke:#038048;stroke-width:1.0;"/><text fill="#000000" font-family="sans-serif" font-size="14" lengthAdjust="spacing" textLength="283" x="226.5" y="601.8857">getDouble(String columnLabel): double</text><ellipse cx="217.5" cy="614.8359" fill="#84BE84" rx="3" ry="3" style="stroke:#038048;stroke-width:1.0;"/><text fill="#000000" font-family="sans-serif" font-size="14" lengthAdjust="spacing" textLength="47" x="226.5" y="618.1826">close()</text></g><!--class PreparedStatement--><g id="elem_PreparedStatement"><rect fill="#F1F1F1" height="48" id="PreparedStatement" rx="2.5" ry="2.5" style="stroke:#181818;stroke-width:0.5;" width="177" x="887.5" y="346.5"/><ellipse cx="902.5" cy="362.5" fill="#ADD1B2" rx="11" ry="11" style="stroke:#181818;stroke-width:1.0;"/><path d="M904.8438,358.1719 C903.9063,357.7344 903.3125,357.5938 902.4375,357.5938 C899.8125,357.5938 897.8125,359.6719 897.8125,362.3906 L897.8125,363.5156 C897.8125,366.0938 899.9219,367.9844 902.8125,367.9844 C904.0313,367.9844 905.1875,367.6875 905.9375,367.1406 C906.5156,366.7344 906.8438,366.2813 906.8438,365.8906 C906.8438,365.4375 906.4531,365.0469 905.9844,365.0469 C905.7656,365.0469 905.5625,365.125 905.375,365.3125 C904.9219,365.7969 904.9219,365.7969 904.7344,365.8906 C904.3125,366.1563 903.625,366.2813 902.8594,366.2813 C900.8125,366.2813 899.5156,365.1875 899.5156,363.4844 L899.5156,362.3906 C899.5156,360.6094 900.7656,359.2969 902.5,359.2969 C903.0781,359.2969 903.6875,359.4531 904.1563,359.7031 C904.6406,359.9844 904.8125,360.2031 904.9063,360.6094 C904.9688,361.0156 905,361.1406 905.1406,361.2656 C905.2813,361.4063 905.5156,361.5156 905.7344,361.5156 C906,361.5156 906.2656,361.375 906.4375,361.1563 C906.5469,361 906.5781,360.8125 906.5781,360.3906 L906.5781,358.9688 C906.5781,358.5313 906.5625,358.4063 906.4688,358.25 C906.3125,357.9844 906.0313,357.8438 905.7344,357.8438 C905.4375,357.8438 905.2344,357.9375 905.0156,358.25 L904.8438,358.1719 Z " fill="#000000"/><text fill="#000000" font-family="sans-serif" font-size="14" lengthAdjust="spacing" textLength="145" x="916.5" y="367.3467">PreparedStatement</text><line style="stroke:#181818;stroke-width:0.5;" x1="888.5" x2="1063.5" y1="378.5" y2="378.5"/><line style="stroke:#181818;stroke-width:0.5;" x1="888.5" x2="1063.5" y1="386.5" y2="386.5"/></g><!--class int--><g id="elem_int"><rect fill="#F1F1F1" height="48" id="int" rx="2.5" ry="2.5" style="stroke:#181818;stroke-width:0.5;" width="52" x="610" y="702"/><ellipse cx="625" cy="718" fill="#ADD1B2" rx="11" ry="11" style="stroke:#181818;stroke-width:1.0;"/><path d="M627.3438,713.6719 C626.4063,713.2344 625.8125,713.0938 624.9375,713.0938 C622.3125,713.0938 620.3125,715.1719 620.3125,717.8906 L620.3125,719.0156 C620.3125,721.5938 622.4219,723.4844 625.3125,723.4844 C626.5313,723.4844 627.6875,723.1875 628.4375,722.6406 C629.0156,722.2344 629.3438,721.7813 629.3438,721.3906 C629.3438,720.9375 628.9531,720.5469 628.4844,720.5469 C628.2656,720.5469 628.0625,720.625 627.875,720.8125 C627.4219,721.2969 627.4219,721.2969 627.2344,721.3906 C626.8125,721.6563 626.125,721.7813 625.3594,721.7813 C623.3125,721.7813 622.0156,720.6875 622.0156,718.9844 L622.0156,717.8906 C622.0156,716.1094 623.2656,714.7969 625,714.7969 C625.5781,714.7969 626.1875,714.9531 626.6563,715.2031 C627.1406,715.4844 627.3125,715.7031 627.4063,716.1094 C627.4688,716.5156 627.5,716.6406 627.6406,716.7656 C627.7813,716.9063 628.0156,717.0156 628.2344,717.0156 C628.5,717.0156 628.7656,716.875 628.9375,716.6563 C629.0469,716.5 629.0781,716.3125 629.0781,715.8906 L629.0781,714.4688 C629.0781,714.0313 629.0625,713.9063 628.9688,713.75 C628.8125,713.4844 628.5313,713.3438 628.2344,713.3438 C627.9375,713.3438 627.7344,713.4375 627.5156,713.75 L627.3438,713.6719 Z " fill="#000000"/><text fill="#000000" font-family="sans-serif" font-size="14" lengthAdjust="spacing" textLength="20" x="639" y="722.8467">int</text><line style="stroke:#181818;stroke-width:0.5;" x1="611" x2="661" y1="734" y2="734"/><line style="stroke:#181818;stroke-width:0.5;" x1="611" x2="661" y1="742" y2="742"/></g><!--class boolean--><g id="elem_boolean"><rect fill="#F1F1F1" height="48" id="boolean" rx="2.5" ry="2.5" style="stroke:#181818;stroke-width:0.5;" width="90" x="7" y="702"/><ellipse cx="22" cy="718" fill="#ADD1B2" rx="11" ry="11" style="stroke:#181818;stroke-width:1.0;"/><path d="M24.3438,713.6719 C23.4063,713.2344 22.8125,713.0938 21.9375,713.0938 C19.3125,713.0938 17.3125,715.1719 17.3125,717.8906 L17.3125,719.0156 C17.3125,721.5938 19.4219,723.4844 22.3125,723.4844 C23.5313,723.4844 24.6875,723.1875 25.4375,722.6406 C26.0156,722.2344 26.3438,721.7813 26.3438,721.3906 C26.3438,720.9375 25.9531,720.5469 25.4844,720.5469 C25.2656,720.5469 25.0625,720.625 24.875,720.8125 C24.4219,721.2969 24.4219,721.2969 24.2344,721.3906 C23.8125,721.6563 23.125,721.7813 22.3594,721.7813 C20.3125,721.7813 19.0156,720.6875 19.0156,718.9844 L19.0156,717.8906 C19.0156,716.1094 20.2656,714.7969 22,714.7969 C22.5781,714.7969 23.1875,714.9531 23.6563,715.2031 C24.1406,715.4844 24.3125,715.7031 24.4063,716.1094 C24.4688,716.5156 24.5,716.6406 24.6406,716.7656 C24.7813,716.9063 25.0156,717.0156 25.2344,717.0156 C25.5,717.0156 25.7656,716.875 25.9375,716.6563 C26.0469,716.5 26.0781,716.3125 26.0781,715.8906 L26.0781,714.4688 C26.0781,714.0313 26.0625,713.9063 25.9688,713.75 C25.8125,713.4844 25.5313,713.3438 25.2344,713.3438 C24.9375,713.3438 24.7344,713.4375 24.5156,713.75 L24.3438,713.6719 Z " fill="#000000"/><text fill="#000000" font-family="sans-serif" font-size="14" lengthAdjust="spacing" textLength="58" x="36" y="722.8467">boolean</text><line style="stroke:#181818;stroke-width:0.5;" x1="8" x2="96" y1="734" y2="734"/><line style="stroke:#181818;stroke-width:0.5;" x1="8" x2="96" y1="742" y2="742"/></g><!--class String--><g id="elem_String"><rect fill="#F1F1F1" height="48" id="String" rx="2.5" ry="2.5" style="stroke:#181818;stroke-width:0.5;" width="76" x="132" y="702"/><ellipse cx="147" cy="718" fill="#ADD1B2" rx="11" ry="11" style="stroke:#181818;stroke-width:1.0;"/><path d="M149.3438,713.6719 C148.4063,713.2344 147.8125,713.0938 146.9375,713.0938 C144.3125,713.0938 142.3125,715.1719 142.3125,717.8906 L142.3125,719.0156 C142.3125,721.5938 144.4219,723.4844 147.3125,723.4844 C148.5313,723.4844 149.6875,723.1875 150.4375,722.6406 C151.0156,722.2344 151.3438,721.7813 151.3438,721.3906 C151.3438,720.9375 150.9531,720.5469 150.4844,720.5469 C150.2656,720.5469 150.0625,720.625 149.875,720.8125 C149.4219,721.2969 149.4219,721.2969 149.2344,721.3906 C148.8125,721.6563 148.125,721.7813 147.3594,721.7813 C145.3125,721.7813 144.0156,720.6875 144.0156,718.9844 L144.0156,717.8906 C144.0156,716.1094 145.2656,714.7969 147,714.7969 C147.5781,714.7969 148.1875,714.9531 148.6563,715.2031 C149.1406,715.4844 149.3125,715.7031 149.4063,716.1094 C149.4688,716.5156 149.5,716.6406 149.6406,716.7656 C149.7813,716.9063 150.0156,717.0156 150.2344,717.0156 C150.5,717.0156 150.7656,716.875 150.9375,716.6563 C151.0469,716.5 151.0781,716.3125 151.0781,715.8906 L151.0781,714.4688 C151.0781,714.0313 151.0625,713.9063 150.9688,713.75 C150.8125,713.4844 150.5313,713.3438 150.2344,713.3438 C149.9375,713.3438 149.7344,713.4375 149.5156,713.75 L149.3438,713.6719 Z " fill="#000000"/><text fill="#000000" font-family="sans-serif" font-size="14" lengthAdjust="spacing" textLength="44" x="161" y="722.8467">String</text><line style="stroke:#181818;stroke-width:0.5;" x1="133" x2="207" y1="734" y2="734"/><line style="stroke:#181818;stroke-width:0.5;" x1="133" x2="207" y1="742" y2="742"/></g><!--class double--><g id="elem_double"><rect fill="#F1F1F1" height="48" id="double" rx="2.5" ry="2.5" style="stroke:#181818;stroke-width:0.5;" width="81" x="320.5" y="702"/><ellipse cx="335.5" cy="718" fill="#ADD1B2" rx="11" ry="11" style="stroke:#181818;stroke-width:1.0;"/><path d="M337.8438,713.6719 C336.9063,713.2344 336.3125,713.0938 335.4375,713.0938 C332.8125,713.0938 330.8125,715.1719 330.8125,717.8906 L330.8125,719.0156 C330.8125,721.5938 332.9219,723.4844 335.8125,723.4844 C337.0313,723.4844 338.1875,723.1875 338.9375,722.6406 C339.5156,722.2344 339.8438,721.7813 339.8438,721.3906 C339.8438,720.9375 339.4531,720.5469 338.9844,720.5469 C338.7656,720.5469 338.5625,720.625 338.375,720.8125 C337.9219,721.2969 337.9219,721.2969 337.7344,721.3906 C337.3125,721.6563 336.625,721.7813 335.8594,721.7813 C333.8125,721.7813 332.5156,720.6875 332.5156,718.9844 L332.5156,717.8906 C332.5156,716.1094 333.7656,714.7969 335.5,714.7969 C336.0781,714.7969 336.6875,714.9531 337.1563,715.2031 C337.6406,715.4844 337.8125,715.7031 337.9063,716.1094 C337.9688,716.5156 338,716.6406 338.1406,716.7656 C338.2813,716.9063 338.5156,717.0156 338.7344,717.0156 C339,717.0156 339.2656,716.875 339.4375,716.6563 C339.5469,716.5 339.5781,716.3125 339.5781,715.8906 L339.5781,714.4688 C339.5781,714.0313 339.5625,713.9063 339.4688,713.75 C339.3125,713.4844 339.0313,713.3438 338.7344,713.3438 C338.4375,713.3438 338.2344,713.4375 338.0156,713.75 L337.8438,713.6719 Z " fill="#000000"/><text fill="#000000" font-family="sans-serif" font-size="14" lengthAdjust="spacing" textLength="49" x="349.5" y="722.8467">double</text><line style="stroke:#181818;stroke-width:0.5;" x1="321.5" x2="400.5" y1="734" y2="734"/><line style="stroke:#181818;stroke-width:0.5;" x1="321.5" x2="400.5" y1="742" y2="742"/></g><g id="elem_NoteStatement"><path d="M190.5,176.5 L190.5,216.7656 A0,0 0 0 0 190.5,216.7656 L398.71,216.7656 L555.873,321.941 L406.71,216.7656 L559.5,216.7656 A0,0 0 0 0 559.5,216.7656 L559.5,186.5 L549.5,176.5 L190.5,176.5 A0,0 0 0 0 190.5,176.5 " fill="#FEFFDD" style="stroke:#181818;stroke-width:0.5;"/><path d="M549.5,176.5 L549.5,186.5 L559.5,186.5 L549.5,176.5 " fill="#FEFFDD" style="stroke:#181818;stroke-width:0.5;"/><text fill="#000000" font-family="sans-serif" font-size="13" lengthAdjust="spacing" textLength="332" x="196.5" y="193.5669">Statement is used for general-purpose SQL queries.</text><text fill="#000000" font-family="sans-serif" font-size="13" lengthAdjust="spacing" textLength="348" x="196.5" y="208.6997">Risk of SQL injection exists when constructing queries.</text></g><g id="elem_NotePreparedStatement"><path d="M1025,176.5 L1025,216.7656 A0,0 0 0 0 1025,216.7656 L1196.07,216.7656 L1010.07,346.249 L1204.07,216.7656 L1431,216.7656 A0,0 0 0 0 1431,216.7656 L1431,186.5 L1421,176.5 L1025,176.5 A0,0 0 0 0 1025,176.5 " fill="#FEFFDD" style="stroke:#181818;stroke-width:0.5;"/><path d="M1421,176.5 L1421,186.5 L1431,186.5 L1421,176.5 " fill="#FEFFDD" style="stroke:#181818;stroke-width:0.5;"/><text fill="#000000" font-family="sans-serif" font-size="13" lengthAdjust="spacing" textLength="322" x="1031" y="193.5669">PreparedStatement is precompiled and optimized.</text><text fill="#000000" font-family="sans-serif" font-size="13" lengthAdjust="spacing" textLength="385" x="1031" y="208.6997">Useful for repeated queries and helps prevent SQL injection.</text></g><!--link DriverManager to Connection--><g id="link_DriverManager_Connection"><path codeLine="25" d="M792,71.094 C792,93.074 792,116.949 792,141.914 " fill="none" id="DriverManager-to-Connection" style="stroke:#181818;stroke-width:1.0;"/><polygon fill="#181818" points="792,147.914,796,138.914,792,142.914,788,138.914,792,147.914" style="stroke:#181818;stroke-width:1.0;"/><text fill="#000000" font-family="sans-serif" font-size="13" lengthAdjust="spacing" textLength="225" x="793" y="114.0669">getConnection(url, user, password)</text></g><!--link Connection to Statement--><g id="link_Connection_Statement"><path codeLine="26" d="M745.481,245.412 C722.318,269.268 698.5777,293.7193 675.4487,317.5403 " fill="none" id="Connection-to-Statement" style="stroke:#181818;stroke-width:1.0;"/><polygon fill="#181818" points="671.269,321.845,680.4083,318.1744,674.752,318.2577,674.6687,312.6015,671.269,321.845" style="stroke:#181818;stroke-width:1.0;"/><text fill="#000000" font-family="sans-serif" font-size="13" lengthAdjust="spacing" textLength="119" x="715" y="288.0669">createStatement()</text></g><!--link Connection to PreparedStatement--><g id="link_Connection_PreparedStatement"><path codeLine="27" d="M843.254,245.412 C878.345,278.214 918.9639,316.1837 946.5229,341.9457 " fill="none" id="Connection-to-PreparedStatement" style="stroke:#181818;stroke-width:1.0;"/><polygon fill="#181818" points="950.906,346.043,947.0629,336.9749,947.2534,342.6286,941.5997,342.8191,950.906,346.043" style="stroke:#181818;stroke-width:1.0;"/><text fill="#000000" font-family="sans-serif" font-size="13" lengthAdjust="spacing" textLength="146" x="891" y="288.0669">prepareStatement(sql)</text></g><!--link Statement to ResultSet--><g id="link_Statement_ResultSet"><path codeLine="28" d="M558.04,419.183 C525.35,442.463 490.4514,467.3145 455.2124,492.4095 " fill="none" id="Statement-to-ResultSet" style="stroke:#181818;stroke-width:1.0;"/><polygon fill="#181818" points="450.325,495.89,459.9764,493.9275,454.3978,492.9896,455.3357,487.411,450.325,495.89" style="stroke:#181818;stroke-width:1.0;"/><text fill="#000000" font-family="sans-serif" font-size="13" lengthAdjust="spacing" textLength="119" x="510" y="462.0669">executeQuery(sql)</text></g><!--link Statement to int--><g id="link_Statement_int"><path codeLine="29" d="M638.277,419.169 C653.112,475.116 676.202,570.94 685,655 C685.786,662.5145 687.754,664.9643 685,672 C680.204,684.2526 675.3933,691.18 666.3213,700.0325 " fill="none" id="Statement-to-int" style="stroke:#181818;stroke-width:1.0;"/><polygon fill="#181818" points="662.027,704.2229,671.262,700.8002,665.6056,700.7309,665.6748,695.0745,662.027,704.2229" style="stroke:#181818;stroke-width:1.0;"/><text fill="#000000" font-family="sans-serif" font-size="13" lengthAdjust="spacing" textLength="126" x="683" y="565.0669">executeUpdate(sql)</text></g><!--link ResultSet to boolean--><g id="link_ResultSet_boolean"><path codeLine="30" d="M206.465,620.491 C183.673,631.009 160.863,642.605 140,655 C117.343,668.4615 98.6372,683.2544 81.7365,697.9529 " fill="none" id="ResultSet-to-boolean" style="stroke:#181818;stroke-width:1.0;"/><polygon fill="#181818" points="77.2092,701.8903,86.6251,699.0024,80.982,698.6091,81.3753,692.966,77.2092,701.8903" style="stroke:#181818;stroke-width:1.0;"/><text fill="#000000" font-family="sans-serif" font-size="13" lengthAdjust="spacing" textLength="39" x="141" y="668.0669">next()</text></g><!--link ResultSet to int--><g id="link_ResultSet_int"><path codeLine="31" d="M470.46,625.115 C487.411,635.068 504.698,645.276 521,655 C551.512,673.1993 581.2194,691.326 604.4754,705.6005 " fill="none" id="ResultSet-to-int" style="stroke:#181818;stroke-width:1.0;"/><polygon fill="#181818" points="609.589,708.7392,604.0111,700.6221,605.3277,706.1236,599.8262,707.4402,609.589,708.7392" style="stroke:#181818;stroke-width:1.0;"/><text fill="#000000" font-family="sans-serif" font-size="13" lengthAdjust="spacing" textLength="128" x="548" y="668.0669">getInt(columnLabel)</text></g><!--link ResultSet to String--><g id="link_ResultSet_String"><path codeLine="32" d="M231.496,625.261 C219.64,634.224 208.529,644.136 199,655 C187.29,668.3503 181.5831,681.3378 177.1811,696.067 " fill="none" id="ResultSet-to-String" style="stroke:#181818;stroke-width:1.0;"/><polygon fill="#181818" points="175.463,701.8158,181.8726,694.3381,176.8947,697.0252,174.2076,692.0473,175.463,701.8158" style="stroke:#181818;stroke-width:1.0;"/><text fill="#000000" font-family="sans-serif" font-size="13" lengthAdjust="spacing" textLength="149" x="200" y="668.0669">getString(columnLabel)</text></g><!--link ResultSet to double--><g id="link_ResultSet_double"><path codeLine="33" d="M358.066,625.192 C357.693,640.521 357.571,656.8451 358,672 C358.276,681.7652 358.4733,686.5414 359.0373,695.8042 " fill="none" id="ResultSet-to-double" style="stroke:#181818;stroke-width:1.0;"/><polygon fill="#181818" points="359.402,701.7931,362.8476,692.5666,359.0981,696.8023,354.8624,693.0528,359.402,701.7931" style="stroke:#181818;stroke-width:1.0;"/><text fill="#000000" font-family="sans-serif" font-size="13" lengthAdjust="spacing" textLength="157" x="359" y="668.0669">getDouble(columnLabel)</text></g><!--SRC=[VPJ9JiCm443l-OeHfo9eFo07Bd110WHKtBYuoRGOtB7n0WN4l-EjYTrKNAh6ysRnlBITOCR0bUOVg6yPiGrg-6a0pZPeBoKHTfPBcYsjvhG1fyKvxByRrCE3ybK-fUvFMnYpcj-cuMHHhrc7nNbgq6ba5fVMVsoHxCod3WyXhZGgfWiWjpBlmgFtATfNAPsG1cUdTT-1I6rnXvsp-E1GVzKb7z4uOPTe2-n9zJwxvlW_pOOQgHdXBbvi9QL0Hdclr-DbEYdSbcxO2elA7adXurGwpE2LT2k1ny4-nWvchLNFvnU5c1Pgwr5tyZm8RWgF8NjORmiJeuViH5eB4yjXnyteBAGDIssXidS4vJH2sLsaHY-1oZfQI7uEeh56rbGkz01BAuzajlKFd5H4E1khu8QaHJWPxy9Ds7iFQwbz3g5cOgwSLbuZB1zkuDqlWADPFDCZDsyWr_6KqslUDkwuiGO-Nv3yIq76QkS3_WtP9vu0Ct0d2rrvXecZC8ktrCcjuiAFnAW7gIpVyc_i_G1F1jTEn4bzQdW3-dsNoBwWKB72HoXMZJbECVqvDzLmi5WK_mv7Cm8oEVm3]--></g></svg>