<?xml version="1.0" encoding="us-ascii" standalone="no"?><svg xmlns="http://www.w3.org/2000/svg" xmlns:xlink="http://www.w3.org/1999/xlink" contentStyleType="text/css" height="780px" preserveAspectRatio="none" style="width:1639px;height:780px;background:#FFFFFF;" version="1.1" viewBox="0 0 1639 780" width="1639px" zoomAndPan="magnify"><defs/><g><!--cluster javax--><g id="cluster_javax"><path d="M8.5,6 L52.5,6 A3.75,3.75 0 0 1 55,8.5 L62,28.2969 L1629.5,28.2969 A2.5,2.5 0 0 1 1632,30.7969 L1632,770.5 A2.5,2.5 0 0 1 1629.5,773 L8.5,773 A2.5,2.5 0 0 1 6,770.5 L6,8.5 A2.5,2.5 0 0 1 8.5,6 " fill="none" style="stroke:#000000;stroke-width:1.5;"/><line style="stroke:#000000;stroke-width:1.5;" x1="6" x2="62" y1="28.2969" y2="28.2969"/><text fill="#000000" font-family="sans-serif" font-size="14" font-weight="bold" lengthAdjust="spacing" textLength="43" x="10" y="20.9951">javax</text></g><!--cluster jms--><g id="cluster_jms"><path d="M32.5,49 L62.5,49 A3.75,3.75 0 0 1 65,51.5 L72,71.2969 L1605.5,71.2969 A2.5,2.5 0 0 1 1608,73.7969 L1608,746.5 A2.5,2.5 0 0 1 1605.5,749 L32.5,749 A2.5,2.5 0 0 1 30,746.5 L30,51.5 A2.5,2.5 0 0 1 32.5,49 " fill="none" style="stroke:#000000;stroke-width:1.5;"/><line style="stroke:#000000;stroke-width:1.5;" x1="30" x2="72" y1="71.2969" y2="71.2969"/><text fill="#000000" font-family="sans-serif" font-size="14" font-weight="bold" lengthAdjust="spacing" textLength="29" x="34" y="63.9951">jms</text></g><!--class Message--><g id="elem_Message"><rect codeLine="1" fill="#F1F1F1" height="129.4844" id="Message" rx="2.5" ry="2.5" style="stroke:#181818;stroke-width:0.5;" width="267" x="46.5" y="290"/><ellipse cx="144.75" cy="306" fill="#B4A7E5" rx="11" ry="11" style="stroke:#181818;stroke-width:1.0;"/><path d="M145.7031,302.7813 L147.4219,302.7813 C147.8125,302.7813 148,302.75 148.125,302.6719 C148.3906,302.5156 148.5313,302.2344 148.5313,301.9375 C148.5313,301.6719 148.4219,301.4063 148.1875,301.2344 C148.0156,301.125 147.875,301.0938 147.4219,301.0938 L142.2813,301.0938 C141.8438,301.0938 141.7188,301.1094 141.5625,301.2031 C141.3125,301.3594 141.1563,301.6563 141.1563,301.9375 C141.1563,302.2188 141.2969,302.4688 141.5156,302.6406 C141.6719,302.75 141.8594,302.7813 142.2813,302.7813 L144,302.7813 L144,309.2969 L142.2813,309.2969 C141.8438,309.2969 141.7188,309.3125 141.5625,309.4219 C141.3125,309.5781 141.1563,309.8594 141.1563,310.1563 C141.1563,310.4063 141.2969,310.6719 141.5156,310.8281 C141.6719,310.9531 141.875,311 142.2813,311 L147.4219,311 C148.1719,311 148.5313,310.7188 148.5313,310.1563 C148.5313,309.875 148.4219,309.625 148.1875,309.4531 C148.0156,309.3281 147.875,309.2969 147.4219,309.2969 L145.7031,309.2969 L145.7031,302.7813 Z " fill="#000000"/><text fill="#000000" font-family="sans-serif" font-size="14" font-style="italic" lengthAdjust="spacing" textLength="62" x="165.25" y="310.8467">Message</text><line style="stroke:#181818;stroke-width:0.5;" x1="47.5" x2="312.5" y1="322" y2="322"/><ellipse cx="57.5" cy="335.6484" fill="none" rx="3" ry="3" style="stroke:#038048;stroke-width:1.0;"/><text fill="#000000" font-family="sans-serif" font-size="14" lengthAdjust="spacing" textLength="217" x="66.5" y="338.9951">BytesMessage : BytesMessage</text><ellipse cx="57.5" cy="351.9453" fill="none" rx="3" ry="3" style="stroke:#038048;stroke-width:1.0;"/><text fill="#000000" font-family="sans-serif" font-size="14" lengthAdjust="spacing" textLength="201" x="66.5" y="355.292">TextMessage : TextMessage</text><ellipse cx="57.5" cy="368.2422" fill="none" rx="3" ry="3" style="stroke:#038048;stroke-width:1.0;"/><text fill="#000000" font-family="sans-serif" font-size="14" lengthAdjust="spacing" textLength="241" x="66.5" y="371.5889">StreamMessage : StreamMessage</text><ellipse cx="57.5" cy="384.5391" fill="none" rx="3" ry="3" style="stroke:#038048;stroke-width:1.0;"/><text fill="#000000" font-family="sans-serif" font-size="14" lengthAdjust="spacing" textLength="195" x="66.5" y="387.8857">MapMessage : MapMessage</text><ellipse cx="57.5" cy="400.8359" fill="none" rx="3" ry="3" style="stroke:#038048;stroke-width:1.0;"/><text fill="#000000" font-family="sans-serif" font-size="14" lengthAdjust="spacing" textLength="233" x="66.5" y="404.1826">ObjectMessage : ObjectMessage</text><line style="stroke:#181818;stroke-width:0.5;" x1="47.5" x2="312.5" y1="411.4844" y2="411.4844"/></g><!--class Destination--><g id="elem_Destination"><rect codeLine="9" fill="#F1F1F1" height="48" id="Destination" rx="2.5" ry="2.5" style="stroke:#181818;stroke-width:0.5;" width="113" x="489.5" y="503.5"/><ellipse cx="504.5" cy="519.5" fill="#B4A7E5" rx="11" ry="11" style="stroke:#181818;stroke-width:1.0;"/><path d="M505.4531,516.2813 L507.1719,516.2813 C507.5625,516.2813 507.75,516.25 507.875,516.1719 C508.1406,516.0156 508.2813,515.7344 508.2813,515.4375 C508.2813,515.1719 508.1719,514.9063 507.9375,514.7344 C507.7656,514.625 507.625,514.5938 507.1719,514.5938 L502.0313,514.5938 C501.5938,514.5938 501.4688,514.6094 501.3125,514.7031 C501.0625,514.8594 500.9063,515.1563 500.9063,515.4375 C500.9063,515.7188 501.0469,515.9688 501.2656,516.1406 C501.4219,516.25 501.6094,516.2813 502.0313,516.2813 L503.75,516.2813 L503.75,522.7969 L502.0313,522.7969 C501.5938,522.7969 501.4688,522.8125 501.3125,522.9219 C501.0625,523.0781 500.9063,523.3594 500.9063,523.6563 C500.9063,523.9063 501.0469,524.1719 501.2656,524.3281 C501.4219,524.4531 501.625,524.5 502.0313,524.5 L507.1719,524.5 C507.9219,524.5 508.2813,524.2188 508.2813,523.6563 C508.2813,523.375 508.1719,523.125 507.9375,522.9531 C507.7656,522.8281 507.625,522.7969 507.1719,522.7969 L505.4531,522.7969 L505.4531,516.2813 Z " fill="#000000"/><text fill="#000000" font-family="sans-serif" font-size="14" font-style="italic" lengthAdjust="spacing" textLength="81" x="518.5" y="524.3467">Destination</text><line style="stroke:#181818;stroke-width:0.5;" x1="490.5" x2="601.5" y1="535.5" y2="535.5"/><line style="stroke:#181818;stroke-width:0.5;" x1="490.5" x2="601.5" y1="543.5" y2="543.5"/></g><!--class MessageProducer--><g id="elem_MessageProducer"><rect codeLine="11" fill="#F1F1F1" height="96.8906" id="MessageProducer" rx="2.5" ry="2.5" style="stroke:#181818;stroke-width:0.5;" width="419" x="1172.5" y="306"/><ellipse cx="1314.75" cy="322" fill="#B4A7E5" rx="11" ry="11" style="stroke:#181818;stroke-width:1.0;"/><path d="M1315.7031,318.7813 L1317.4219,318.7813 C1317.8125,318.7813 1318,318.75 1318.125,318.6719 C1318.3906,318.5156 1318.5313,318.2344 1318.5313,317.9375 C1318.5313,317.6719 1318.4219,317.4063 1318.1875,317.2344 C1318.0156,317.125 1317.875,317.0938 1317.4219,317.0938 L1312.2813,317.0938 C1311.8438,317.0938 1311.7188,317.1094 1311.5625,317.2031 C1311.3125,317.3594 1311.1563,317.6563 1311.1563,317.9375 C1311.1563,318.2188 1311.2969,318.4688 1311.5156,318.6406 C1311.6719,318.75 1311.8594,318.7813 1312.2813,318.7813 L1314,318.7813 L1314,325.2969 L1312.2813,325.2969 C1311.8438,325.2969 1311.7188,325.3125 1311.5625,325.4219 C1311.3125,325.5781 1311.1563,325.8594 1311.1563,326.1563 C1311.1563,326.4063 1311.2969,326.6719 1311.5156,326.8281 C1311.6719,326.9531 1311.875,327 1312.2813,327 L1317.4219,327 C1318.1719,327 1318.5313,326.7188 1318.5313,326.1563 C1318.5313,325.875 1318.4219,325.625 1318.1875,325.4531 C1318.0156,325.3281 1317.875,325.2969 1317.4219,325.2969 L1315.7031,325.2969 L1315.7031,318.7813 Z " fill="#000000"/><text fill="#000000" font-family="sans-serif" font-size="14" font-style="italic" lengthAdjust="spacing" textLength="126" x="1335.25" y="326.8467">MessageProducer</text><line style="stroke:#181818;stroke-width:0.5;" x1="1173.5" x2="1590.5" y1="338" y2="338"/><line style="stroke:#181818;stroke-width:0.5;" x1="1173.5" x2="1590.5" y1="346" y2="346"/><ellipse cx="1183.5" cy="359.6484" fill="#84BE84" rx="3" ry="3" style="stroke:#038048;stroke-width:1.0;"/><text fill="#000000" font-family="sans-serif" font-size="14" lengthAdjust="spacing" textLength="393" x="1192.5" y="362.9951">send(Destination destination, Message message) : void</text><ellipse cx="1183.5" cy="375.9453" fill="#84BE84" rx="3" ry="3" style="stroke:#038048;stroke-width:1.0;"/><text fill="#000000" font-family="sans-serif" font-size="14" lengthAdjust="spacing" textLength="166" x="1192.5" y="379.292">getDeliveryMode() : int</text><ellipse cx="1183.5" cy="392.2422" fill="#84BE84" rx="3" ry="3" style="stroke:#038048;stroke-width:1.0;"/><text fill="#000000" font-family="sans-serif" font-size="14" lengthAdjust="spacing" textLength="216" x="1192.5" y="395.5889">getDestination() : Destination</text></g><!--class MessageConsumer--><g id="elem_MessageConsumer"><rect codeLine="17" fill="#F1F1F1" height="96.8906" id="MessageConsumer" rx="2.5" ry="2.5" style="stroke:#181818;stroke-width:0.5;" width="314" x="823" y="306"/><ellipse cx="908.25" cy="322" fill="#B4A7E5" rx="11" ry="11" style="stroke:#181818;stroke-width:1.0;"/><path d="M909.2031,318.7813 L910.9219,318.7813 C911.3125,318.7813 911.5,318.75 911.625,318.6719 C911.8906,318.5156 912.0313,318.2344 912.0313,317.9375 C912.0313,317.6719 911.9219,317.4063 911.6875,317.2344 C911.5156,317.125 911.375,317.0938 910.9219,317.0938 L905.7813,317.0938 C905.3438,317.0938 905.2188,317.1094 905.0625,317.2031 C904.8125,317.3594 904.6563,317.6563 904.6563,317.9375 C904.6563,318.2188 904.7969,318.4688 905.0156,318.6406 C905.1719,318.75 905.3594,318.7813 905.7813,318.7813 L907.5,318.7813 L907.5,325.2969 L905.7813,325.2969 C905.3438,325.2969 905.2188,325.3125 905.0625,325.4219 C904.8125,325.5781 904.6563,325.8594 904.6563,326.1563 C904.6563,326.4063 904.7969,326.6719 905.0156,326.8281 C905.1719,326.9531 905.375,327 905.7813,327 L910.9219,327 C911.6719,327 912.0313,326.7188 912.0313,326.1563 C912.0313,325.875 911.9219,325.625 911.6875,325.4531 C911.5156,325.3281 911.375,325.2969 910.9219,325.2969 L909.2031,325.2969 L909.2031,318.7813 Z " fill="#000000"/><text fill="#000000" font-family="sans-serif" font-size="14" font-style="italic" lengthAdjust="spacing" textLength="135" x="928.75" y="326.8467">MessageConsumer</text><line style="stroke:#181818;stroke-width:0.5;" x1="824" x2="1136" y1="338" y2="338"/><line style="stroke:#181818;stroke-width:0.5;" x1="824" x2="1136" y1="346" y2="346"/><ellipse cx="834" cy="359.6484" fill="#84BE84" rx="3" ry="3" style="stroke:#038048;stroke-width:1.0;"/><text fill="#000000" font-family="sans-serif" font-size="14" lengthAdjust="spacing" textLength="137" x="843" y="362.9951">receive() : Message</text><ellipse cx="834" cy="375.9453" fill="#84BE84" rx="3" ry="3" style="stroke:#038048;stroke-width:1.0;"/><text fill="#000000" font-family="sans-serif" font-size="14" lengthAdjust="spacing" textLength="230" x="843" y="379.292">receive(long timeout) : Message</text><ellipse cx="834" cy="392.2422" fill="#84BE84" rx="3" ry="3" style="stroke:#038048;stroke-width:1.0;"/><text fill="#000000" font-family="sans-serif" font-size="14" lengthAdjust="spacing" textLength="288" x="843" y="395.5889">getMessageListener() : MessageListener</text></g><!--class Session--><g id="elem_Session"><rect codeLine="23" fill="#F1F1F1" height="96.8906" id="Session" rx="2.5" ry="2.5" style="stroke:#181818;stroke-width:0.5;" width="471" x="733.5" y="479"/><ellipse cx="937.75" cy="495" fill="#B4A7E5" rx="11" ry="11" style="stroke:#181818;stroke-width:1.0;"/><path d="M938.7031,491.7813 L940.4219,491.7813 C940.8125,491.7813 941,491.75 941.125,491.6719 C941.3906,491.5156 941.5313,491.2344 941.5313,490.9375 C941.5313,490.6719 941.4219,490.4063 941.1875,490.2344 C941.0156,490.125 940.875,490.0938 940.4219,490.0938 L935.2813,490.0938 C934.8438,490.0938 934.7188,490.1094 934.5625,490.2031 C934.3125,490.3594 934.1563,490.6563 934.1563,490.9375 C934.1563,491.2188 934.2969,491.4688 934.5156,491.6406 C934.6719,491.75 934.8594,491.7813 935.2813,491.7813 L937,491.7813 L937,498.2969 L935.2813,498.2969 C934.8438,498.2969 934.7188,498.3125 934.5625,498.4219 C934.3125,498.5781 934.1563,498.8594 934.1563,499.1563 C934.1563,499.4063 934.2969,499.6719 934.5156,499.8281 C934.6719,499.9531 934.875,500 935.2813,500 L940.4219,500 C941.1719,500 941.5313,499.7188 941.5313,499.1563 C941.5313,498.875 941.4219,498.625 941.1875,498.4531 C941.0156,498.3281 940.875,498.2969 940.4219,498.2969 L938.7031,498.2969 L938.7031,491.7813 Z " fill="#000000"/><text fill="#000000" font-family="sans-serif" font-size="14" font-style="italic" lengthAdjust="spacing" textLength="54" x="958.25" y="499.8467">Session</text><line style="stroke:#181818;stroke-width:0.5;" x1="734.5" x2="1203.5" y1="511" y2="511"/><line style="stroke:#181818;stroke-width:0.5;" x1="734.5" x2="1203.5" y1="519" y2="519"/><ellipse cx="744.5" cy="532.6484" fill="#84BE84" rx="3" ry="3" style="stroke:#038048;stroke-width:1.0;"/><text fill="#000000" font-family="sans-serif" font-size="14" lengthAdjust="spacing" textLength="429" x="753.5" y="535.9951">createProducer(Destination destination) : MessageProducer</text><ellipse cx="744.5" cy="548.9453" fill="#84BE84" rx="3" ry="3" style="stroke:#038048;stroke-width:1.0;"/><text fill="#000000" font-family="sans-serif" font-size="14" lengthAdjust="spacing" textLength="445" x="753.5" y="552.292">createConsumer(Destination destination) : MessageConsumer</text><ellipse cx="744.5" cy="565.2422" fill="#84BE84" rx="3" ry="3" style="stroke:#038048;stroke-width:1.0;"/><text fill="#000000" font-family="sans-serif" font-size="14" lengthAdjust="spacing" textLength="260" x="753.5" y="568.5889">sendTextMessage(String text) : void</text></g><!--class Connection--><g id="elem_Connection"><rect codeLine="29" fill="#F1F1F1" height="96.8906" id="Connection" rx="2.5" ry="2.5" style="stroke:#181818;stroke-width:0.5;" width="286" x="1049" y="636"/><ellipse cx="1147.25" cy="652" fill="#B4A7E5" rx="11" ry="11" style="stroke:#181818;stroke-width:1.0;"/><path d="M1148.2031,648.7813 L1149.9219,648.7813 C1150.3125,648.7813 1150.5,648.75 1150.625,648.6719 C1150.8906,648.5156 1151.0313,648.2344 1151.0313,647.9375 C1151.0313,647.6719 1150.9219,647.4063 1150.6875,647.2344 C1150.5156,647.125 1150.375,647.0938 1149.9219,647.0938 L1144.7813,647.0938 C1144.3438,647.0938 1144.2188,647.1094 1144.0625,647.2031 C1143.8125,647.3594 1143.6563,647.6563 1143.6563,647.9375 C1143.6563,648.2188 1143.7969,648.4688 1144.0156,648.6406 C1144.1719,648.75 1144.3594,648.7813 1144.7813,648.7813 L1146.5,648.7813 L1146.5,655.2969 L1144.7813,655.2969 C1144.3438,655.2969 1144.2188,655.3125 1144.0625,655.4219 C1143.8125,655.5781 1143.6563,655.8594 1143.6563,656.1563 C1143.6563,656.4063 1143.7969,656.6719 1144.0156,656.8281 C1144.1719,656.9531 1144.375,657 1144.7813,657 L1149.9219,657 C1150.6719,657 1151.0313,656.7188 1151.0313,656.1563 C1151.0313,655.875 1150.9219,655.625 1150.6875,655.4531 C1150.5156,655.3281 1150.375,655.2969 1149.9219,655.2969 L1148.2031,655.2969 L1148.2031,648.7813 Z " fill="#000000"/><text fill="#000000" font-family="sans-serif" font-size="14" font-style="italic" lengthAdjust="spacing" textLength="81" x="1167.75" y="656.8467">Connection</text><line style="stroke:#181818;stroke-width:0.5;" x1="1050" x2="1334" y1="668" y2="668"/><line style="stroke:#181818;stroke-width:0.5;" x1="1050" x2="1334" y1="676" y2="676"/><ellipse cx="1060" cy="689.6484" fill="#84BE84" rx="3" ry="3" style="stroke:#038048;stroke-width:1.0;"/><text fill="#000000" font-family="sans-serif" font-size="14" lengthAdjust="spacing" textLength="178" x="1069" y="692.9951">createSession() : Session</text><ellipse cx="1060" cy="705.9453" fill="#84BE84" rx="3" ry="3" style="stroke:#038048;stroke-width:1.0;"/><text fill="#000000" font-family="sans-serif" font-size="14" lengthAdjust="spacing" textLength="88" x="1069" y="709.292">start() : void</text><ellipse cx="1060" cy="722.2422" fill="#84BE84" rx="3" ry="3" style="stroke:#038048;stroke-width:1.0;"/><text fill="#000000" font-family="sans-serif" font-size="14" lengthAdjust="spacing" textLength="260" x="1069" y="725.5889">sendTextMessage(String text) : void</text></g><!--class Queue--><g id="elem_Queue"><rect codeLine="35" fill="#F1F1F1" height="64.2969" id="Queue" rx="2.5" ry="2.5" style="stroke:#181818;stroke-width:0.5;" width="204" x="349" y="322.5"/><ellipse cx="423.25" cy="338.5" fill="#B4A7E5" rx="11" ry="11" style="stroke:#181818;stroke-width:1.0;"/><path d="M424.2031,335.2813 L425.9219,335.2813 C426.3125,335.2813 426.5,335.25 426.625,335.1719 C426.8906,335.0156 427.0313,334.7344 427.0313,334.4375 C427.0313,334.1719 426.9219,333.9063 426.6875,333.7344 C426.5156,333.625 426.375,333.5938 425.9219,333.5938 L420.7813,333.5938 C420.3438,333.5938 420.2188,333.6094 420.0625,333.7031 C419.8125,333.8594 419.6563,334.1563 419.6563,334.4375 C419.6563,334.7188 419.7969,334.9688 420.0156,335.1406 C420.1719,335.25 420.3594,335.2813 420.7813,335.2813 L422.5,335.2813 L422.5,341.7969 L420.7813,341.7969 C420.3438,341.7969 420.2188,341.8125 420.0625,341.9219 C419.8125,342.0781 419.6563,342.3594 419.6563,342.6563 C419.6563,342.9063 419.7969,343.1719 420.0156,343.3281 C420.1719,343.4531 420.375,343.5 420.7813,343.5 L425.9219,343.5 C426.6719,343.5 427.0313,343.2188 427.0313,342.6563 C427.0313,342.375 426.9219,342.125 426.6875,341.9531 C426.5156,341.8281 426.375,341.7969 425.9219,341.7969 L424.2031,341.7969 L424.2031,335.2813 Z " fill="#000000"/><text fill="#000000" font-family="sans-serif" font-size="14" font-style="italic" lengthAdjust="spacing" textLength="47" x="443.75" y="343.3467">Queue</text><line style="stroke:#181818;stroke-width:0.5;" x1="350" x2="552" y1="354.5" y2="354.5"/><line style="stroke:#181818;stroke-width:0.5;" x1="350" x2="552" y1="362.5" y2="362.5"/><ellipse cx="360" cy="376.1484" fill="#84BE84" rx="3" ry="3" style="stroke:#038048;stroke-width:1.0;"/><text fill="#000000" font-family="sans-serif" font-size="14" lengthAdjust="spacing" textLength="178" x="369" y="379.4951">getQueueName() : String</text></g><!--class Topic--><g id="elem_Topic"><rect codeLine="39" fill="#F1F1F1" height="64.2969" id="Topic" rx="2.5" ry="2.5" style="stroke:#181818;stroke-width:0.5;" width="199" x="588.5" y="322.5"/><ellipse cx="664.25" cy="338.5" fill="#B4A7E5" rx="11" ry="11" style="stroke:#181818;stroke-width:1.0;"/><path d="M665.2031,335.2813 L666.9219,335.2813 C667.3125,335.2813 667.5,335.25 667.625,335.1719 C667.8906,335.0156 668.0313,334.7344 668.0313,334.4375 C668.0313,334.1719 667.9219,333.9063 667.6875,333.7344 C667.5156,333.625 667.375,333.5938 666.9219,333.5938 L661.7813,333.5938 C661.3438,333.5938 661.2188,333.6094 661.0625,333.7031 C660.8125,333.8594 660.6563,334.1563 660.6563,334.4375 C660.6563,334.7188 660.7969,334.9688 661.0156,335.1406 C661.1719,335.25 661.3594,335.2813 661.7813,335.2813 L663.5,335.2813 L663.5,341.7969 L661.7813,341.7969 C661.3438,341.7969 661.2188,341.8125 661.0625,341.9219 C660.8125,342.0781 660.6563,342.3594 660.6563,342.6563 C660.6563,342.9063 660.7969,343.1719 661.0156,343.3281 C661.1719,343.4531 661.375,343.5 661.7813,343.5 L666.9219,343.5 C667.6719,343.5 668.0313,343.2188 668.0313,342.6563 C668.0313,342.375 667.9219,342.125 667.6875,341.9531 C667.5156,341.8281 667.375,341.7969 666.9219,341.7969 L665.2031,341.7969 L665.2031,335.2813 Z " fill="#000000"/><text fill="#000000" font-family="sans-serif" font-size="14" font-style="italic" lengthAdjust="spacing" textLength="39" x="684.75" y="343.3467">Topic</text><line style="stroke:#181818;stroke-width:0.5;" x1="589.5" x2="786.5" y1="354.5" y2="354.5"/><line style="stroke:#181818;stroke-width:0.5;" x1="589.5" x2="786.5" y1="362.5" y2="362.5"/><ellipse cx="599.5" cy="376.1484" fill="#84BE84" rx="3" ry="3" style="stroke:#038048;stroke-width:1.0;"/><text fill="#000000" font-family="sans-serif" font-size="14" lengthAdjust="spacing" textLength="173" x="608.5" y="379.4951">getTopicName() : String</text></g><!--class QueueConnectionFactory--><g id="elem_QueueConnectionFactory"><rect codeLine="43" fill="#F1F1F1" height="64.2969" id="QueueConnectionFactory" rx="2.5" ry="2.5" style="stroke:#181818;stroke-width:0.5;" width="352" x="1240" y="495.5"/><ellipse cx="1321.25" cy="511.5" fill="#B4A7E5" rx="11" ry="11" style="stroke:#181818;stroke-width:1.0;"/><path d="M1322.2031,508.2813 L1323.9219,508.2813 C1324.3125,508.2813 1324.5,508.25 1324.625,508.1719 C1324.8906,508.0156 1325.0313,507.7344 1325.0313,507.4375 C1325.0313,507.1719 1324.9219,506.9063 1324.6875,506.7344 C1324.5156,506.625 1324.375,506.5938 1323.9219,506.5938 L1318.7813,506.5938 C1318.3438,506.5938 1318.2188,506.6094 1318.0625,506.7031 C1317.8125,506.8594 1317.6563,507.1563 1317.6563,507.4375 C1317.6563,507.7188 1317.7969,507.9688 1318.0156,508.1406 C1318.1719,508.25 1318.3594,508.2813 1318.7813,508.2813 L1320.5,508.2813 L1320.5,514.7969 L1318.7813,514.7969 C1318.3438,514.7969 1318.2188,514.8125 1318.0625,514.9219 C1317.8125,515.0781 1317.6563,515.3594 1317.6563,515.6563 C1317.6563,515.9063 1317.7969,516.1719 1318.0156,516.3281 C1318.1719,516.4531 1318.375,516.5 1318.7813,516.5 L1323.9219,516.5 C1324.6719,516.5 1325.0313,516.2188 1325.0313,515.6563 C1325.0313,515.375 1324.9219,515.125 1324.6875,514.9531 C1324.5156,514.8281 1324.375,514.7969 1323.9219,514.7969 L1322.2031,514.7969 L1322.2031,508.2813 Z " fill="#000000"/><text fill="#000000" font-family="sans-serif" font-size="14" font-style="italic" lengthAdjust="spacing" textLength="181" x="1341.75" y="516.3467">QueueConnectionFactory</text><line style="stroke:#181818;stroke-width:0.5;" x1="1241" x2="1591" y1="527.5" y2="527.5"/><line style="stroke:#181818;stroke-width:0.5;" x1="1241" x2="1591" y1="535.5" y2="535.5"/><ellipse cx="1251" cy="549.1484" fill="#84BE84" rx="3" ry="3" style="stroke:#038048;stroke-width:1.0;"/><text fill="#000000" font-family="sans-serif" font-size="14" lengthAdjust="spacing" textLength="326" x="1260" y="552.4951">createQueueConnection() : QueueConnection</text></g><!--class QueueBrowser--><g id="elem_QueueBrowser"><rect codeLine="47" fill="#F1F1F1" height="64.2969" id="QueueBrowser" rx="2.5" ry="2.5" style="stroke:#181818;stroke-width:0.5;" width="258" x="602" y="125"/><ellipse cx="674.25" cy="141" fill="#B4A7E5" rx="11" ry="11" style="stroke:#181818;stroke-width:1.0;"/><path d="M675.2031,137.7813 L676.9219,137.7813 C677.3125,137.7813 677.5,137.75 677.625,137.6719 C677.8906,137.5156 678.0313,137.2344 678.0313,136.9375 C678.0313,136.6719 677.9219,136.4063 677.6875,136.2344 C677.5156,136.125 677.375,136.0938 676.9219,136.0938 L671.7813,136.0938 C671.3438,136.0938 671.2188,136.1094 671.0625,136.2031 C670.8125,136.3594 670.6563,136.6563 670.6563,136.9375 C670.6563,137.2188 670.7969,137.4688 671.0156,137.6406 C671.1719,137.75 671.3594,137.7813 671.7813,137.7813 L673.5,137.7813 L673.5,144.2969 L671.7813,144.2969 C671.3438,144.2969 671.2188,144.3125 671.0625,144.4219 C670.8125,144.5781 670.6563,144.8594 670.6563,145.1563 C670.6563,145.4063 670.7969,145.6719 671.0156,145.8281 C671.1719,145.9531 671.375,146 671.7813,146 L676.9219,146 C677.6719,146 678.0313,145.7188 678.0313,145.1563 C678.0313,144.875 677.9219,144.625 677.6875,144.4531 C677.5156,144.3281 677.375,144.2969 676.9219,144.2969 L675.2031,144.2969 L675.2031,137.7813 Z " fill="#000000"/><text fill="#000000" font-family="sans-serif" font-size="14" font-style="italic" lengthAdjust="spacing" textLength="105" x="694.75" y="145.8467">QueueBrowser</text><line style="stroke:#181818;stroke-width:0.5;" x1="603" x2="859" y1="157" y2="157"/><line style="stroke:#181818;stroke-width:0.5;" x1="603" x2="859" y1="165" y2="165"/><ellipse cx="613" cy="178.6484" fill="#84BE84" rx="3" ry="3" style="stroke:#038048;stroke-width:1.0;"/><text fill="#000000" font-family="sans-serif" font-size="14" lengthAdjust="spacing" textLength="232" x="622" y="181.9951">getEnumeration() : Enumeration</text></g><!--class MessageListener--><g id="elem_MessageListener"><rect codeLine="51" fill="#F1F1F1" height="64.2969" id="MessageListener" rx="2.5" ry="2.5" style="stroke:#181818;stroke-width:0.5;" width="286" x="895" y="125"/><ellipse cx="974.25" cy="141" fill="#B4A7E5" rx="11" ry="11" style="stroke:#181818;stroke-width:1.0;"/><path d="M975.2031,137.7813 L976.9219,137.7813 C977.3125,137.7813 977.5,137.75 977.625,137.6719 C977.8906,137.5156 978.0313,137.2344 978.0313,136.9375 C978.0313,136.6719 977.9219,136.4063 977.6875,136.2344 C977.5156,136.125 977.375,136.0938 976.9219,136.0938 L971.7813,136.0938 C971.3438,136.0938 971.2188,136.1094 971.0625,136.2031 C970.8125,136.3594 970.6563,136.6563 970.6563,136.9375 C970.6563,137.2188 970.7969,137.4688 971.0156,137.6406 C971.1719,137.75 971.3594,137.7813 971.7813,137.7813 L973.5,137.7813 L973.5,144.2969 L971.7813,144.2969 C971.3438,144.2969 971.2188,144.3125 971.0625,144.4219 C970.8125,144.5781 970.6563,144.8594 970.6563,145.1563 C970.6563,145.4063 970.7969,145.6719 971.0156,145.8281 C971.1719,145.9531 971.375,146 971.7813,146 L976.9219,146 C977.6719,146 978.0313,145.7188 978.0313,145.1563 C978.0313,144.875 977.9219,144.625 977.6875,144.4531 C977.5156,144.3281 977.375,144.2969 976.9219,144.2969 L975.2031,144.2969 L975.2031,137.7813 Z " fill="#000000"/><text fill="#000000" font-family="sans-serif" font-size="14" font-style="italic" lengthAdjust="spacing" textLength="119" x="994.75" y="145.8467">MessageListener</text><line style="stroke:#181818;stroke-width:0.5;" x1="896" x2="1180" y1="157" y2="157"/><line style="stroke:#181818;stroke-width:0.5;" x1="896" x2="1180" y1="165" y2="165"/><ellipse cx="906" cy="178.6484" fill="#84BE84" rx="3" ry="3" style="stroke:#038048;stroke-width:1.0;"/><text fill="#000000" font-family="sans-serif" font-size="14" lengthAdjust="spacing" textLength="260" x="915" y="181.9951">onMessage(Message message) : void</text></g><!--class MessageDrivenContext--><g id="elem_MessageDrivenContext"><rect codeLine="55" fill="#F1F1F1" height="145.7813" id="MessageDrivenContext" rx="2.5" ry="2.5" style="stroke:#181818;stroke-width:0.5;" width="239" x="51.5" y="84"/><ellipse cx="85.85" cy="100" fill="#B4A7E5" rx="11" ry="11" style="stroke:#181818;stroke-width:1.0;"/><path d="M86.8031,96.7813 L88.5219,96.7813 C88.9125,96.7813 89.1,96.75 89.225,96.6719 C89.4906,96.5156 89.6313,96.2344 89.6313,95.9375 C89.6313,95.6719 89.5219,95.4063 89.2875,95.2344 C89.1156,95.125 88.975,95.0938 88.5219,95.0938 L83.3813,95.0938 C82.9438,95.0938 82.8188,95.1094 82.6625,95.2031 C82.4125,95.3594 82.2563,95.6563 82.2563,95.9375 C82.2563,96.2188 82.3969,96.4688 82.6156,96.6406 C82.7719,96.75 82.9594,96.7813 83.3813,96.7813 L85.1,96.7813 L85.1,103.2969 L83.3813,103.2969 C82.9438,103.2969 82.8188,103.3125 82.6625,103.4219 C82.4125,103.5781 82.2563,103.8594 82.2563,104.1563 C82.2563,104.4063 82.3969,104.6719 82.6156,104.8281 C82.7719,104.9531 82.975,105 83.3813,105 L88.5219,105 C89.2719,105 89.6313,104.7188 89.6313,104.1563 C89.6313,103.875 89.5219,103.625 89.2875,103.4531 C89.1156,103.3281 88.975,103.2969 88.5219,103.2969 L86.8031,103.2969 L86.8031,96.7813 Z " fill="#000000"/><text fill="#000000" font-family="sans-serif" font-size="14" font-style="italic" lengthAdjust="spacing" textLength="164" x="104.15" y="104.8467">MessageDrivenContext</text><line style="stroke:#181818;stroke-width:0.5;" x1="52.5" x2="289.5" y1="116" y2="116"/><line style="stroke:#181818;stroke-width:0.5;" x1="52.5" x2="289.5" y1="124" y2="124"/><ellipse cx="62.5" cy="137.6484" fill="#84BE84" rx="3" ry="3" style="stroke:#038048;stroke-width:1.0;"/><text fill="#000000" font-family="sans-serif" font-size="14" lengthAdjust="spacing" textLength="213" x="71.5" y="140.9951">getCallerPrincipal() : Principal</text><ellipse cx="62.5" cy="153.9453" fill="#84BE84" rx="3" ry="3" style="stroke:#038048;stroke-width:1.0;"/><text fill="#000000" font-family="sans-serif" font-size="14" lengthAdjust="spacing" textLength="200" x="71.5" y="157.292">getRollbackOnly() : boolean</text><ellipse cx="62.5" cy="170.2422" fill="#84BE84" rx="3" ry="3" style="stroke:#038048;stroke-width:1.0;"/><text fill="#000000" font-family="sans-serif" font-size="14" lengthAdjust="spacing" textLength="170" x="71.5" y="173.5889">setRollbackOnly() : void</text><ellipse cx="62.5" cy="186.5391" fill="#84BE84" rx="3" ry="3" style="stroke:#038048;stroke-width:1.0;"/><text fill="#000000" font-family="sans-serif" font-size="14" lengthAdjust="spacing" textLength="162" x="71.5" y="189.8857">newInstance() : Object</text><ellipse cx="62.5" cy="202.8359" fill="#84BE84" rx="3" ry="3" style="stroke:#038048;stroke-width:1.0;"/><text fill="#000000" font-family="sans-serif" font-size="14" lengthAdjust="spacing" textLength="157" x="71.5" y="206.1826">postConstruct() : void</text><ellipse cx="62.5" cy="219.1328" fill="#84BE84" rx="3" ry="3" style="stroke:#038048;stroke-width:1.0;"/><text fill="#000000" font-family="sans-serif" font-size="14" lengthAdjust="spacing" textLength="135" x="71.5" y="222.4795">preDestroy() : void</text></g><!--class QueueSender--><g id="elem_QueueSender"><rect codeLine="64" fill="#F1F1F1" height="64.2969" id="QueueSender" rx="2.5" ry="2.5" style="stroke:#181818;stroke-width:0.5;" width="241" x="325.5" y="125"/><ellipse cx="392.75" cy="141" fill="#B4A7E5" rx="11" ry="11" style="stroke:#181818;stroke-width:1.0;"/><path d="M393.7031,137.7813 L395.4219,137.7813 C395.8125,137.7813 396,137.75 396.125,137.6719 C396.3906,137.5156 396.5313,137.2344 396.5313,136.9375 C396.5313,136.6719 396.4219,136.4063 396.1875,136.2344 C396.0156,136.125 395.875,136.0938 395.4219,136.0938 L390.2813,136.0938 C389.8438,136.0938 389.7188,136.1094 389.5625,136.2031 C389.3125,136.3594 389.1563,136.6563 389.1563,136.9375 C389.1563,137.2188 389.2969,137.4688 389.5156,137.6406 C389.6719,137.75 389.8594,137.7813 390.2813,137.7813 L392,137.7813 L392,144.2969 L390.2813,144.2969 C389.8438,144.2969 389.7188,144.3125 389.5625,144.4219 C389.3125,144.5781 389.1563,144.8594 389.1563,145.1563 C389.1563,145.4063 389.2969,145.6719 389.5156,145.8281 C389.6719,145.9531 389.875,146 390.2813,146 L395.4219,146 C396.1719,146 396.5313,145.7188 396.5313,145.1563 C396.5313,144.875 396.4219,144.625 396.1875,144.4531 C396.0156,144.3281 395.875,144.2969 395.4219,144.2969 L393.7031,144.2969 L393.7031,137.7813 Z " fill="#000000"/><text fill="#000000" font-family="sans-serif" font-size="14" font-style="italic" lengthAdjust="spacing" textLength="98" x="413.25" y="145.8467">QueueSender</text><line style="stroke:#181818;stroke-width:0.5;" x1="326.5" x2="565.5" y1="157" y2="157"/><line style="stroke:#181818;stroke-width:0.5;" x1="326.5" x2="565.5" y1="165" y2="165"/><ellipse cx="336.5" cy="178.6484" fill="#84BE84" rx="3" ry="3" style="stroke:#038048;stroke-width:1.0;"/><text fill="#000000" font-family="sans-serif" font-size="14" lengthAdjust="spacing" textLength="215" x="345.5" y="181.9951">send(Message message) : void</text></g><!--link MessageProducer to Session--><g id="link_MessageProducer_Session"><path codeLine="68" d="M1267.23,403.019 C1210.06,426.69 1146.6636,452.9386 1089.4736,476.6186 " fill="none" id="MessageProducer-to-Session" style="stroke:#181818;stroke-width:1.0;stroke-dasharray:7.0,7.0;"/><polygon fill="#181818" points="1083.93,478.914,1093.7756,479.1667,1088.5497,477.0012,1090.7151,471.7752,1083.93,478.914" style="stroke:#181818;stroke-width:1.0;"/></g><!--link MessageConsumer to Session--><g id="link_MessageConsumer_Session"><path codeLine="69" d="M976.936,403.133 C975.417,426.752 973.971,449.2144 972.452,472.8384 " fill="none" id="MessageConsumer-to-Session" style="stroke:#181818;stroke-width:1.0;stroke-dasharray:7.0,7.0;"/><polygon fill="#181818" points="972.067,478.826,976.6363,470.1012,972.3878,473.8363,968.6527,469.5879,972.067,478.826" style="stroke:#181818;stroke-width:1.0;"/></g><!--link Session to Connection--><g id="link_Session_Connection"><path codeLine="70" d="M1037.42,576.058 C1064.69,595.013 1091.1035,613.3671 1118.3935,632.3391 " fill="none" id="Session-to-Connection" style="stroke:#181818;stroke-width:1.0;stroke-dasharray:7.0,7.0;"/><polygon fill="#181818" points="1123.32,635.764,1118.2135,627.3424,1119.2146,632.9099,1113.647,633.911,1123.32,635.764" style="stroke:#181818;stroke-width:1.0;"/></g><!--link Queue to Destination--><g id="link_Queue_Destination"><path codeLine="71" d="M468.424,386.864 C487.119,420.514 513.4582,467.924 530.1892,498.04 " fill="none" id="Queue-to-Destination" style="stroke:#181818;stroke-width:1.0;stroke-dasharray:7.0,7.0;"/><polygon fill="#181818" points="533.103,503.285,532.2289,493.475,530.6748,498.9142,525.2356,497.3601,533.103,503.285" style="stroke:#181818;stroke-width:1.0;"/></g><!--link Topic to Destination--><g id="link_Topic_Destination"><path codeLine="72" d="M661.955,386.864 C634.012,420.514 594.1191,468.553 569.1111,498.669 " fill="none" id="Topic-to-Destination" style="stroke:#181818;stroke-width:1.0;stroke-dasharray:7.0,7.0;"/><polygon fill="#181818" points="565.278,503.285,574.105,498.9164,568.4722,499.4383,567.9503,493.8056,565.278,503.285" style="stroke:#181818;stroke-width:1.0;"/></g><!--link QueueConnectionFactory to Connection--><g id="link_QueueConnectionFactory_Connection"><path codeLine="73" d="M1370.94,559.68 C1339.38,581.516 1301.5638,607.6856 1265.7638,632.4606 " fill="none" id="QueueConnectionFactory-to-Connection" style="stroke:#181818;stroke-width:1.0;stroke-dasharray:7.0,7.0;"/><polygon fill="#181818" points="1260.83,635.875,1270.5069,634.0426,1264.9415,633.0297,1265.9544,627.4643,1260.83,635.875" style="stroke:#181818;stroke-width:1.0;"/></g><!--link QueueBrowser to Queue--><g id="link_QueueBrowser_Queue"><path codeLine="74" d="M686.324,189.194 C633.983,225.739 552.7085,282.4851 500.4365,318.9821 " fill="none" id="QueueBrowser-to-Queue" style="stroke:#181818;stroke-width:1.0;stroke-dasharray:7.0,7.0;"/><polygon fill="#181818" points="495.517,322.417,505.1862,320.5444,499.6166,319.5546,500.6064,313.985,495.517,322.417" style="stroke:#181818;stroke-width:1.0;"/></g><!--link MessageListener to MessageConsumer--><g id="link_MessageListener_MessageConsumer"><path codeLine="75" d="M1028.68,189.41 C1019.36,220.82 1006.6166,263.7798 995.8766,299.9798 " fill="none" id="MessageListener-to-MessageConsumer" style="stroke:#181818;stroke-width:1.0;stroke-dasharray:7.0,7.0;"/><polygon fill="#181818" points="994.17,305.732,1000.5647,298.2415,995.5922,300.9385,992.8951,295.966,994.17,305.732" style="stroke:#181818;stroke-width:1.0;"/></g><!--link MessageDrivenContext to Message--><g id="link_MessageDrivenContext_Message"><path codeLine="76" d="M174.326,230.242 C175.227,249.82 175.9203,264.8733 176.7973,283.9363 " fill="none" id="MessageDrivenContext-to-Message" style="stroke:#181818;stroke-width:1.0;stroke-dasharray:7.0,7.0;"/><polygon fill="#181818" points="177.073,289.93,180.6552,280.7557,176.8432,284.9353,172.6636,281.1233,177.073,289.93" style="stroke:#181818;stroke-width:1.0;"/></g><!--link QueueSender to Queue--><g id="link_QueueSender_Queue"><path codeLine="77" d="M446.803,189.41 C447.739,226.001 449.1227,280.075 450.0537,316.492 " fill="none" id="QueueSender-to-Queue" style="stroke:#181818;stroke-width:1.0;stroke-dasharray:7.0,7.0;"/><polygon fill="#181818" points="450.207,322.49,453.9757,313.3907,450.0792,317.4916,445.9783,313.5952,450.207,322.49" style="stroke:#181818;stroke-width:1.0;"/></g><!--SRC=[fLJ1JiCm3BttAteS0kq3E70O0mc9iS7uWImrKqQQL4cwKI7-7ITjshGqtIHEhUDdvzb-CHC6r0UXa1x8aNpD3xcUhq1hieVqEqdJwqLbGFkJspGqhViTlapd3Ipht1e59E_SFTi2LgJel9rXNUlT0MYGkcSdFqd2HfWlGHicY65IZ0EQ-8sIMKb1rILg4Dai24spxlyczHJo-dk5N8wIPJPm3sO9d1r1LIkPmSpwyDRMrMPndf3SpoIzUobqcNjw2YZW7Iv7q21_pANOfuRb84ipW229ndfcse005IRnPp4oMuJPRZWI52Tdshx5kXLazz0ks5TrGR27-ka4kfgXY9Yj68_QMKGgm3G2HJCeegdBjQBvT_SOeimi7Ey_RdujeMmU40x1MIyahsTOfub5lik2qJRIMHT6kbkwaXy9DL9LOUK3XCivE9jClb3ofBqiaTs3i4Fg51xOPnJkjLUdaiAtEFROfhCj5Ju4WKNOqRJixWdde3ROCieAmXt3rcemRvBp7Q6VQy4h1zX9oO7KWXXnUsa8E3q9L8oWzMJgxMGzXTJ6ojUealRbL2YmobSoI3NLxItAhxUY9feJtt3p-TtVDvt4LyuvlDyAVLmWeE4Zw0F39JWK_IN8YCWlPUCLtCSxLn8NQHyzt55dv3WQd8pFUeJMBm00]--></g></svg>