<?xml version="1.0" encoding="us-ascii" standalone="no"?><svg xmlns="http://www.w3.org/2000/svg" xmlns:xlink="http://www.w3.org/1999/xlink" contentStyleType="text/css" height="582px" preserveAspectRatio="none" style="width:3567px;height:582px;background:#FFFFFF;" version="1.1" viewBox="0 0 3567 582" width="3567px" zoomAndPan="magnify"><defs/><g><text fill="#000000" font-family="sans-serif" font-size="14" font-weight="bold" lengthAdjust="spacing" textLength="370" x="1591.75" y="22.9951">JPA Main Classes, Interfaces and Annotations</text><!--class Entity--><g id="elem_Entity"><rect codeLine="18" fill="#F1F1F1" height="96.8906" id="Entity" rx="2.5" ry="2.5" style="stroke:#181818;stroke-width:0.5;" width="157" x="1596" y="267.2969"/><ellipse cx="1648.25" cy="283.2969" fill="#E3664A" rx="11" ry="11" style="stroke:#181818;stroke-width:1.0;"/><path d="M1649.1719,280.5469 C1647.2656,280.6875 1645.9531,281.875 1645.9531,283.4531 C1645.9531,284.8594 1647.1563,286.0781 1648.6094,286.0781 C1648.7656,286.0781 1648.9063,286.0625 1649.1719,286.0156 L1649.1719,286.0781 L1649.9688,286.0781 C1650.5938,286.0781 1650.9063,285.8594 1650.9063,285.375 C1650.9063,285.0938 1650.7813,284.9063 1650.5156,284.7813 L1650.5156,280 C1650.5156,278.1094 1649.2031,276.75 1647.3594,276.75 C1645.1563,276.75 1643.5469,278.875 1643.5469,281.8125 L1643.5469,284.6719 C1643.5469,285.9219 1643.8281,287.1406 1644.3438,288.0625 C1645.0625,289.3125 1645.9844,289.875 1647.3906,289.875 C1649,289.875 1650.3906,289.2188 1650.3906,288.4219 C1650.3906,288.0313 1650.0938,287.7188 1649.7188,287.7188 C1649.5156,287.7188 1649.4219,287.7656 1649.1875,288.0156 C1648.8594,288.3438 1648.1875,288.5625 1647.4375,288.5625 C1646.6875,288.5625 1646.1563,288.2969 1645.75,287.7031 C1645.1719,286.9063 1644.8906,285.8594 1644.8906,284.5625 L1644.8906,281.9063 C1644.8906,279.7344 1645.9531,278.0938 1647.3906,278.0938 C1648.4375,278.0938 1649.1719,278.875 1649.1719,280 L1649.1719,280.5469 Z M1649.1719,284.6563 C1648.9375,284.7031 1648.8438,284.7031 1648.7344,284.7031 C1647.9063,284.7031 1647.2969,284.1719 1647.2969,283.4688 C1647.2969,282.6406 1648.0469,282.0313 1649.1719,281.9219 L1649.1719,284.6563 Z " fill="#000000"/><text fill="#000000" font-family="sans-serif" font-size="14" lengthAdjust="spacing" textLength="44" x="1668.75" y="288.1436">Entity</text><line style="stroke:#181818;stroke-width:0.5;" x1="1597" x2="1752" y1="299.2969" y2="299.2969"/><rect fill="none" height="6" style="stroke:#C82930;stroke-width:1.0;" width="6" x="1604" y="309.9453"/><text fill="#000000" font-family="sans-serif" font-size="14" lengthAdjust="spacing" textLength="61" x="1616" y="316.292">id : Long</text><rect fill="none" height="6" style="stroke:#C82930;stroke-width:1.0;" width="6" x="1604" y="326.2422"/><text fill="#000000" font-family="sans-serif" font-size="14" lengthAdjust="spacing" textLength="97" x="1616" y="332.5889">name : String</text><rect fill="none" height="6" style="stroke:#C82930;stroke-width:1.0;" width="6" x="1604" y="342.5391"/><text fill="#000000" font-family="sans-serif" font-size="14" lengthAdjust="spacing" textLength="131" x="1616" y="348.8857">tempData : String</text><line style="stroke:#181818;stroke-width:0.5;" x1="1597" x2="1752" y1="356.1875" y2="356.1875"/></g><!--class EntityManager--><g id="elem_EntityManager"><rect codeLine="9" fill="#F1F1F1" height="145.7813" id="EntityManager" rx="2.5" ry="2.5" style="stroke:#181818;stroke-width:0.5;" width="381" x="1821" y="44.2969"/><ellipse cx="1955.75" cy="60.2969" fill="#B4A7E5" rx="11" ry="11" style="stroke:#181818;stroke-width:1.0;"/><path d="M1956.7031,57.0781 L1958.4219,57.0781 C1958.8125,57.0781 1959,57.0469 1959.125,56.9688 C1959.3906,56.8125 1959.5313,56.5313 1959.5313,56.2344 C1959.5313,55.9688 1959.4219,55.7031 1959.1875,55.5313 C1959.0156,55.4219 1958.875,55.3906 1958.4219,55.3906 L1953.2813,55.3906 C1952.8438,55.3906 1952.7188,55.4063 1952.5625,55.5 C1952.3125,55.6563 1952.1563,55.9531 1952.1563,56.2344 C1952.1563,56.5156 1952.2969,56.7656 1952.5156,56.9375 C1952.6719,57.0469 1952.8594,57.0781 1953.2813,57.0781 L1955,57.0781 L1955,63.5938 L1953.2813,63.5938 C1952.8438,63.5938 1952.7188,63.6094 1952.5625,63.7188 C1952.3125,63.875 1952.1563,64.1563 1952.1563,64.4531 C1952.1563,64.7031 1952.2969,64.9688 1952.5156,65.125 C1952.6719,65.25 1952.875,65.2969 1953.2813,65.2969 L1958.4219,65.2969 C1959.1719,65.2969 1959.5313,65.0156 1959.5313,64.4531 C1959.5313,64.1719 1959.4219,63.9219 1959.1875,63.75 C1959.0156,63.625 1958.875,63.5938 1958.4219,63.5938 L1956.7031,63.5938 L1956.7031,57.0781 Z " fill="#000000"/><text fill="#000000" font-family="sans-serif" font-size="14" font-style="italic" lengthAdjust="spacing" textLength="103" x="1976.25" y="65.1436">EntityManager</text><line style="stroke:#181818;stroke-width:0.5;" x1="1822" x2="2201" y1="76.2969" y2="76.2969"/><line style="stroke:#181818;stroke-width:0.5;" x1="1822" x2="2201" y1="84.2969" y2="84.2969"/><ellipse cx="1832" cy="97.9453" fill="#84BE84" rx="3" ry="3" style="stroke:#038048;stroke-width:1.0;"/><text fill="#000000" font-family="sans-serif" font-size="14" lengthAdjust="spacing" textLength="200" x="1841" y="101.292">persist(Object entity) : void</text><ellipse cx="1832" cy="114.2422" fill="#84BE84" rx="3" ry="3" style="stroke:#038048;stroke-width:1.0;"/><text fill="#000000" font-family="sans-serif" font-size="14" lengthAdjust="spacing" textLength="355" x="1841" y="117.5889">find(Class&lt;T&gt; entityClass, Object primaryKey) : T</text><ellipse cx="1832" cy="130.5391" fill="#84BE84" rx="3" ry="3" style="stroke:#038048;stroke-width:1.0;"/><text fill="#000000" font-family="sans-serif" font-size="14" lengthAdjust="spacing" textLength="205" x="1841" y="133.8857">remove(Object entity) : void</text><ellipse cx="1832" cy="146.8359" fill="#84BE84" rx="3" ry="3" style="stroke:#038048;stroke-width:1.0;"/><text fill="#000000" font-family="sans-serif" font-size="14" lengthAdjust="spacing" textLength="312" x="1841" y="150.1826">createNativeQuery(String sqlString) : Query</text><ellipse cx="1832" cy="163.1328" fill="#84BE84" rx="3" ry="3" style="stroke:#038048;stroke-width:1.0;"/><text fill="#000000" font-family="sans-serif" font-size="14" lengthAdjust="spacing" textLength="87" x="1841" y="166.4795">flush() : void</text><ellipse cx="1832" cy="179.4297" fill="#84BE84" rx="3" ry="3" style="stroke:#038048;stroke-width:1.0;"/><text fill="#000000" font-family="sans-serif" font-size="14" lengthAdjust="spacing" textLength="105" x="1841" y="182.7764">refresh() : void</text></g><!--class Table--><g id="elem_Table"><rect codeLine="19" fill="#F1F1F1" height="48" id="Table" rx="2.5" ry="2.5" style="stroke:#181818;stroke-width:0.5;" width="72" x="293.5" y="441.2969"/><ellipse cx="308.5" cy="457.2969" fill="#E3664A" rx="11" ry="11" style="stroke:#181818;stroke-width:1.0;"/><path d="M309.4219,454.5469 C307.5156,454.6875 306.2031,455.875 306.2031,457.4531 C306.2031,458.8594 307.4063,460.0781 308.8594,460.0781 C309.0156,460.0781 309.1563,460.0625 309.4219,460.0156 L309.4219,460.0781 L310.2188,460.0781 C310.8438,460.0781 311.1563,459.8594 311.1563,459.375 C311.1563,459.0938 311.0313,458.9063 310.7656,458.7813 L310.7656,454 C310.7656,452.1094 309.4531,450.75 307.6094,450.75 C305.4063,450.75 303.7969,452.875 303.7969,455.8125 L303.7969,458.6719 C303.7969,459.9219 304.0781,461.1406 304.5938,462.0625 C305.3125,463.3125 306.2344,463.875 307.6406,463.875 C309.25,463.875 310.6406,463.2188 310.6406,462.4219 C310.6406,462.0313 310.3438,461.7188 309.9688,461.7188 C309.7656,461.7188 309.6719,461.7656 309.4375,462.0156 C309.1094,462.3438 308.4375,462.5625 307.6875,462.5625 C306.9375,462.5625 306.4063,462.2969 306,461.7031 C305.4219,460.9063 305.1406,459.8594 305.1406,458.5625 L305.1406,455.9063 C305.1406,453.7344 306.2031,452.0938 307.6406,452.0938 C308.6875,452.0938 309.4219,452.875 309.4219,454 L309.4219,454.5469 Z M309.4219,458.6563 C309.1875,458.7031 309.0938,458.7031 308.9844,458.7031 C308.1563,458.7031 307.5469,458.1719 307.5469,457.4688 C307.5469,456.6406 308.2969,456.0313 309.4219,455.9219 L309.4219,458.6563 Z " fill="#000000"/><text fill="#000000" font-family="sans-serif" font-size="14" lengthAdjust="spacing" textLength="40" x="322.5" y="462.1436">Table</text><line style="stroke:#181818;stroke-width:0.5;" x1="294.5" x2="364.5" y1="473.2969" y2="473.2969"/><line style="stroke:#181818;stroke-width:0.5;" x1="294.5" x2="364.5" y1="481.2969" y2="481.2969"/></g><!--class Id--><g id="elem_Id"><rect codeLine="20" fill="#F1F1F1" height="48" id="Id" rx="2.5" ry="2.5" style="stroke:#181818;stroke-width:0.5;" width="45" x="919" y="441.2969"/><ellipse cx="934" cy="457.2969" fill="#E3664A" rx="11" ry="11" style="stroke:#181818;stroke-width:1.0;"/><path d="M934.9219,454.5469 C933.0156,454.6875 931.7031,455.875 931.7031,457.4531 C931.7031,458.8594 932.9063,460.0781 934.3594,460.0781 C934.5156,460.0781 934.6563,460.0625 934.9219,460.0156 L934.9219,460.0781 L935.7188,460.0781 C936.3438,460.0781 936.6563,459.8594 936.6563,459.375 C936.6563,459.0938 936.5313,458.9063 936.2656,458.7813 L936.2656,454 C936.2656,452.1094 934.9531,450.75 933.1094,450.75 C930.9063,450.75 929.2969,452.875 929.2969,455.8125 L929.2969,458.6719 C929.2969,459.9219 929.5781,461.1406 930.0938,462.0625 C930.8125,463.3125 931.7344,463.875 933.1406,463.875 C934.75,463.875 936.1406,463.2188 936.1406,462.4219 C936.1406,462.0313 935.8438,461.7188 935.4688,461.7188 C935.2656,461.7188 935.1719,461.7656 934.9375,462.0156 C934.6094,462.3438 933.9375,462.5625 933.1875,462.5625 C932.4375,462.5625 931.9063,462.2969 931.5,461.7031 C930.9219,460.9063 930.6406,459.8594 930.6406,458.5625 L930.6406,455.9063 C930.6406,453.7344 931.7031,452.0938 933.1406,452.0938 C934.1875,452.0938 934.9219,452.875 934.9219,454 L934.9219,454.5469 Z M934.9219,458.6563 C934.6875,458.7031 934.5938,458.7031 934.4844,458.7031 C933.6563,458.7031 933.0469,458.1719 933.0469,457.4688 C933.0469,456.6406 933.7969,456.0313 934.9219,455.9219 L934.9219,458.6563 Z " fill="#000000"/><text fill="#000000" font-family="sans-serif" font-size="14" lengthAdjust="spacing" textLength="13" x="948" y="462.1436">Id</text><line style="stroke:#181818;stroke-width:0.5;" x1="920" x2="963" y1="473.2969" y2="473.2969"/><line style="stroke:#181818;stroke-width:0.5;" x1="920" x2="963" y1="481.2969" y2="481.2969"/></g><!--class GeneratedValue--><g id="elem_GeneratedValue"><rect codeLine="21" fill="#F1F1F1" height="48" id="GeneratedValue" rx="2.5" ry="2.5" style="stroke:#181818;stroke-width:0.5;" width="148" x="1258.5" y="441.2969"/><ellipse cx="1273.5" cy="457.2969" fill="#E3664A" rx="11" ry="11" style="stroke:#181818;stroke-width:1.0;"/><path d="M1274.4219,454.5469 C1272.5156,454.6875 1271.2031,455.875 1271.2031,457.4531 C1271.2031,458.8594 1272.4063,460.0781 1273.8594,460.0781 C1274.0156,460.0781 1274.1563,460.0625 1274.4219,460.0156 L1274.4219,460.0781 L1275.2188,460.0781 C1275.8438,460.0781 1276.1563,459.8594 1276.1563,459.375 C1276.1563,459.0938 1276.0313,458.9063 1275.7656,458.7813 L1275.7656,454 C1275.7656,452.1094 1274.4531,450.75 1272.6094,450.75 C1270.4063,450.75 1268.7969,452.875 1268.7969,455.8125 L1268.7969,458.6719 C1268.7969,459.9219 1269.0781,461.1406 1269.5938,462.0625 C1270.3125,463.3125 1271.2344,463.875 1272.6406,463.875 C1274.25,463.875 1275.6406,463.2188 1275.6406,462.4219 C1275.6406,462.0313 1275.3438,461.7188 1274.9688,461.7188 C1274.7656,461.7188 1274.6719,461.7656 1274.4375,462.0156 C1274.1094,462.3438 1273.4375,462.5625 1272.6875,462.5625 C1271.9375,462.5625 1271.4063,462.2969 1271,461.7031 C1270.4219,460.9063 1270.1406,459.8594 1270.1406,458.5625 L1270.1406,455.9063 C1270.1406,453.7344 1271.2031,452.0938 1272.6406,452.0938 C1273.6875,452.0938 1274.4219,452.875 1274.4219,454 L1274.4219,454.5469 Z M1274.4219,458.6563 C1274.1875,458.7031 1274.0938,458.7031 1273.9844,458.7031 C1273.1563,458.7031 1272.5469,458.1719 1272.5469,457.4688 C1272.5469,456.6406 1273.2969,456.0313 1274.4219,455.9219 L1274.4219,458.6563 Z " fill="#000000"/><text fill="#000000" font-family="sans-serif" font-size="14" lengthAdjust="spacing" textLength="116" x="1287.5" y="462.1436">GeneratedValue</text><line style="stroke:#181818;stroke-width:0.5;" x1="1259.5" x2="1405.5" y1="473.2969" y2="473.2969"/><line style="stroke:#181818;stroke-width:0.5;" x1="1259.5" x2="1405.5" y1="481.2969" y2="481.2969"/></g><!--class Column--><g id="elem_Column"><rect codeLine="22" fill="#F1F1F1" height="48" id="Column" rx="2.5" ry="2.5" style="stroke:#181818;stroke-width:0.5;" width="86" x="1571.5" y="441.2969"/><ellipse cx="1586.5" cy="457.2969" fill="#E3664A" rx="11" ry="11" style="stroke:#181818;stroke-width:1.0;"/><path d="M1587.4219,454.5469 C1585.5156,454.6875 1584.2031,455.875 1584.2031,457.4531 C1584.2031,458.8594 1585.4063,460.0781 1586.8594,460.0781 C1587.0156,460.0781 1587.1563,460.0625 1587.4219,460.0156 L1587.4219,460.0781 L1588.2188,460.0781 C1588.8438,460.0781 1589.1563,459.8594 1589.1563,459.375 C1589.1563,459.0938 1589.0313,458.9063 1588.7656,458.7813 L1588.7656,454 C1588.7656,452.1094 1587.4531,450.75 1585.6094,450.75 C1583.4063,450.75 1581.7969,452.875 1581.7969,455.8125 L1581.7969,458.6719 C1581.7969,459.9219 1582.0781,461.1406 1582.5938,462.0625 C1583.3125,463.3125 1584.2344,463.875 1585.6406,463.875 C1587.25,463.875 1588.6406,463.2188 1588.6406,462.4219 C1588.6406,462.0313 1588.3438,461.7188 1587.9688,461.7188 C1587.7656,461.7188 1587.6719,461.7656 1587.4375,462.0156 C1587.1094,462.3438 1586.4375,462.5625 1585.6875,462.5625 C1584.9375,462.5625 1584.4063,462.2969 1584,461.7031 C1583.4219,460.9063 1583.1406,459.8594 1583.1406,458.5625 L1583.1406,455.9063 C1583.1406,453.7344 1584.2031,452.0938 1585.6406,452.0938 C1586.6875,452.0938 1587.4219,452.875 1587.4219,454 L1587.4219,454.5469 Z M1587.4219,458.6563 C1587.1875,458.7031 1587.0938,458.7031 1586.9844,458.7031 C1586.1563,458.7031 1585.5469,458.1719 1585.5469,457.4688 C1585.5469,456.6406 1586.2969,456.0313 1587.4219,455.9219 L1587.4219,458.6563 Z " fill="#000000"/><text fill="#000000" font-family="sans-serif" font-size="14" lengthAdjust="spacing" textLength="54" x="1600.5" y="462.1436">Column</text><line style="stroke:#181818;stroke-width:0.5;" x1="1572.5" x2="1656.5" y1="473.2969" y2="473.2969"/><line style="stroke:#181818;stroke-width:0.5;" x1="1572.5" x2="1656.5" y1="481.2969" y2="481.2969"/></g><!--class OneToMany--><g id="elem_OneToMany"><rect codeLine="23" fill="#F1F1F1" height="48" id="OneToMany" rx="2.5" ry="2.5" style="stroke:#181818;stroke-width:0.5;" width="116" x="1692.5" y="441.2969"/><ellipse cx="1707.5" cy="457.2969" fill="#E3664A" rx="11" ry="11" style="stroke:#181818;stroke-width:1.0;"/><path d="M1708.4219,454.5469 C1706.5156,454.6875 1705.2031,455.875 1705.2031,457.4531 C1705.2031,458.8594 1706.4063,460.0781 1707.8594,460.0781 C1708.0156,460.0781 1708.1563,460.0625 1708.4219,460.0156 L1708.4219,460.0781 L1709.2188,460.0781 C1709.8438,460.0781 1710.1563,459.8594 1710.1563,459.375 C1710.1563,459.0938 1710.0313,458.9063 1709.7656,458.7813 L1709.7656,454 C1709.7656,452.1094 1708.4531,450.75 1706.6094,450.75 C1704.4063,450.75 1702.7969,452.875 1702.7969,455.8125 L1702.7969,458.6719 C1702.7969,459.9219 1703.0781,461.1406 1703.5938,462.0625 C1704.3125,463.3125 1705.2344,463.875 1706.6406,463.875 C1708.25,463.875 1709.6406,463.2188 1709.6406,462.4219 C1709.6406,462.0313 1709.3438,461.7188 1708.9688,461.7188 C1708.7656,461.7188 1708.6719,461.7656 1708.4375,462.0156 C1708.1094,462.3438 1707.4375,462.5625 1706.6875,462.5625 C1705.9375,462.5625 1705.4063,462.2969 1705,461.7031 C1704.4219,460.9063 1704.1406,459.8594 1704.1406,458.5625 L1704.1406,455.9063 C1704.1406,453.7344 1705.2031,452.0938 1706.6406,452.0938 C1707.6875,452.0938 1708.4219,452.875 1708.4219,454 L1708.4219,454.5469 Z M1708.4219,458.6563 C1708.1875,458.7031 1708.0938,458.7031 1707.9844,458.7031 C1707.1563,458.7031 1706.5469,458.1719 1706.5469,457.4688 C1706.5469,456.6406 1707.2969,456.0313 1708.4219,455.9219 L1708.4219,458.6563 Z " fill="#000000"/><text fill="#000000" font-family="sans-serif" font-size="14" lengthAdjust="spacing" textLength="84" x="1721.5" y="462.1436">OneToMany</text><line style="stroke:#181818;stroke-width:0.5;" x1="1693.5" x2="1807.5" y1="473.2969" y2="473.2969"/><line style="stroke:#181818;stroke-width:0.5;" x1="1693.5" x2="1807.5" y1="481.2969" y2="481.2969"/></g><!--class ManyToOne--><g id="elem_ManyToOne"><rect codeLine="24" fill="#F1F1F1" height="48" id="ManyToOne" rx="2.5" ry="2.5" style="stroke:#181818;stroke-width:0.5;" width="116" x="1843.5" y="441.2969"/><ellipse cx="1858.5" cy="457.2969" fill="#E3664A" rx="11" ry="11" style="stroke:#181818;stroke-width:1.0;"/><path d="M1859.4219,454.5469 C1857.5156,454.6875 1856.2031,455.875 1856.2031,457.4531 C1856.2031,458.8594 1857.4063,460.0781 1858.8594,460.0781 C1859.0156,460.0781 1859.1563,460.0625 1859.4219,460.0156 L1859.4219,460.0781 L1860.2188,460.0781 C1860.8438,460.0781 1861.1563,459.8594 1861.1563,459.375 C1861.1563,459.0938 1861.0313,458.9063 1860.7656,458.7813 L1860.7656,454 C1860.7656,452.1094 1859.4531,450.75 1857.6094,450.75 C1855.4063,450.75 1853.7969,452.875 1853.7969,455.8125 L1853.7969,458.6719 C1853.7969,459.9219 1854.0781,461.1406 1854.5938,462.0625 C1855.3125,463.3125 1856.2344,463.875 1857.6406,463.875 C1859.25,463.875 1860.6406,463.2188 1860.6406,462.4219 C1860.6406,462.0313 1860.3438,461.7188 1859.9688,461.7188 C1859.7656,461.7188 1859.6719,461.7656 1859.4375,462.0156 C1859.1094,462.3438 1858.4375,462.5625 1857.6875,462.5625 C1856.9375,462.5625 1856.4063,462.2969 1856,461.7031 C1855.4219,460.9063 1855.1406,459.8594 1855.1406,458.5625 L1855.1406,455.9063 C1855.1406,453.7344 1856.2031,452.0938 1857.6406,452.0938 C1858.6875,452.0938 1859.4219,452.875 1859.4219,454 L1859.4219,454.5469 Z M1859.4219,458.6563 C1859.1875,458.7031 1859.0938,458.7031 1858.9844,458.7031 C1858.1563,458.7031 1857.5469,458.1719 1857.5469,457.4688 C1857.5469,456.6406 1858.2969,456.0313 1859.4219,455.9219 L1859.4219,458.6563 Z " fill="#000000"/><text fill="#000000" font-family="sans-serif" font-size="14" lengthAdjust="spacing" textLength="84" x="1872.5" y="462.1436">ManyToOne</text><line style="stroke:#181818;stroke-width:0.5;" x1="1844.5" x2="1958.5" y1="473.2969" y2="473.2969"/><line style="stroke:#181818;stroke-width:0.5;" x1="1844.5" x2="1958.5" y1="481.2969" y2="481.2969"/></g><!--class Transient--><g id="elem_Transient"><rect codeLine="25" fill="#F1F1F1" height="48" id="Transient" rx="2.5" ry="2.5" style="stroke:#181818;stroke-width:0.5;" width="100" x="1994.5" y="441.2969"/><ellipse cx="2009.5" cy="457.2969" fill="#E3664A" rx="11" ry="11" style="stroke:#181818;stroke-width:1.0;"/><path d="M2010.4219,454.5469 C2008.5156,454.6875 2007.2031,455.875 2007.2031,457.4531 C2007.2031,458.8594 2008.4063,460.0781 2009.8594,460.0781 C2010.0156,460.0781 2010.1563,460.0625 2010.4219,460.0156 L2010.4219,460.0781 L2011.2188,460.0781 C2011.8438,460.0781 2012.1563,459.8594 2012.1563,459.375 C2012.1563,459.0938 2012.0313,458.9063 2011.7656,458.7813 L2011.7656,454 C2011.7656,452.1094 2010.4531,450.75 2008.6094,450.75 C2006.4063,450.75 2004.7969,452.875 2004.7969,455.8125 L2004.7969,458.6719 C2004.7969,459.9219 2005.0781,461.1406 2005.5938,462.0625 C2006.3125,463.3125 2007.2344,463.875 2008.6406,463.875 C2010.25,463.875 2011.6406,463.2188 2011.6406,462.4219 C2011.6406,462.0313 2011.3438,461.7188 2010.9688,461.7188 C2010.7656,461.7188 2010.6719,461.7656 2010.4375,462.0156 C2010.1094,462.3438 2009.4375,462.5625 2008.6875,462.5625 C2007.9375,462.5625 2007.4063,462.2969 2007,461.7031 C2006.4219,460.9063 2006.1406,459.8594 2006.1406,458.5625 L2006.1406,455.9063 C2006.1406,453.7344 2007.2031,452.0938 2008.6406,452.0938 C2009.6875,452.0938 2010.4219,452.875 2010.4219,454 L2010.4219,454.5469 Z M2010.4219,458.6563 C2010.1875,458.7031 2010.0938,458.7031 2009.9844,458.7031 C2009.1563,458.7031 2008.5469,458.1719 2008.5469,457.4688 C2008.5469,456.6406 2009.2969,456.0313 2010.4219,455.9219 L2010.4219,458.6563 Z " fill="#000000"/><text fill="#000000" font-family="sans-serif" font-size="14" lengthAdjust="spacing" textLength="68" x="2023.5" y="462.1436">Transient</text><line style="stroke:#181818;stroke-width:0.5;" x1="1995.5" x2="2093.5" y1="473.2969" y2="473.2969"/><line style="stroke:#181818;stroke-width:0.5;" x1="1995.5" x2="2093.5" y1="481.2969" y2="481.2969"/></g><!--class Object--><g id="elem_Object"><rect fill="#F1F1F1" height="48" id="Object" rx="2.5" ry="2.5" style="stroke:#181818;stroke-width:0.5;" width="81" x="1634" y="93.2969"/><ellipse cx="1649" cy="109.2969" fill="#ADD1B2" rx="11" ry="11" style="stroke:#181818;stroke-width:1.0;"/><path d="M1651.3438,104.9688 C1650.4063,104.5313 1649.8125,104.3906 1648.9375,104.3906 C1646.3125,104.3906 1644.3125,106.4688 1644.3125,109.1875 L1644.3125,110.3125 C1644.3125,112.8906 1646.4219,114.7813 1649.3125,114.7813 C1650.5313,114.7813 1651.6875,114.4844 1652.4375,113.9375 C1653.0156,113.5313 1653.3438,113.0781 1653.3438,112.6875 C1653.3438,112.2344 1652.9531,111.8438 1652.4844,111.8438 C1652.2656,111.8438 1652.0625,111.9219 1651.875,112.1094 C1651.4219,112.5938 1651.4219,112.5938 1651.2344,112.6875 C1650.8125,112.9531 1650.125,113.0781 1649.3594,113.0781 C1647.3125,113.0781 1646.0156,111.9844 1646.0156,110.2813 L1646.0156,109.1875 C1646.0156,107.4063 1647.2656,106.0938 1649,106.0938 C1649.5781,106.0938 1650.1875,106.25 1650.6563,106.5 C1651.1406,106.7813 1651.3125,107 1651.4063,107.4063 C1651.4688,107.8125 1651.5,107.9375 1651.6406,108.0625 C1651.7813,108.2031 1652.0156,108.3125 1652.2344,108.3125 C1652.5,108.3125 1652.7656,108.1719 1652.9375,107.9531 C1653.0469,107.7969 1653.0781,107.6094 1653.0781,107.1875 L1653.0781,105.7656 C1653.0781,105.3281 1653.0625,105.2031 1652.9688,105.0469 C1652.8125,104.7813 1652.5313,104.6406 1652.2344,104.6406 C1651.9375,104.6406 1651.7344,104.7344 1651.5156,105.0469 L1651.3438,104.9688 Z " fill="#000000"/><text fill="#000000" font-family="sans-serif" font-size="14" lengthAdjust="spacing" textLength="49" x="1663" y="114.1436">Object</text><line style="stroke:#181818;stroke-width:0.5;" x1="1635" x2="1714" y1="125.2969" y2="125.2969"/><line style="stroke:#181818;stroke-width:0.5;" x1="1635" x2="1714" y1="133.2969" y2="133.2969"/></g><g id="elem_N1"><path d="M2129.5,452.7969 L2129.5,477.9297 L2487.5,477.9297 L2487.5,462.7969 L2477.5,452.7969 L2129.5,452.7969 " fill="#FEFFDD" style="stroke:#181818;stroke-width:0.5;"/><path d="M2477.5,452.7969 L2477.5,462.7969 L2487.5,462.7969 L2477.5,452.7969 " fill="#FEFFDD" style="stroke:#181818;stroke-width:1.0;"/><text fill="#000000" font-family="sans-serif" font-size="13" lengthAdjust="spacing" textLength="337" x="2135.5" y="469.8638">An entity represents a table in a relational database.</text></g><g id="elem_N2"><path d="M1788,303.2969 L1788,328.4297 A0,0 0 0 0 1788,328.4297 L2375,328.4297 A0,0 0 0 0 2375,328.4297 L2375,313.2969 L2365,303.2969 L2081.38,303.2969 L2037.17,190.3509 L2073.38,303.2969 L1788,303.2969 A0,0 0 0 0 1788,303.2969 " fill="#FEFFDD" style="stroke:#181818;stroke-width:0.5;"/><path d="M2365,303.2969 L2365,313.2969 L2375,313.2969 L2365,303.2969 " fill="#FEFFDD" style="stroke:#181818;stroke-width:0.5;"/><text fill="#000000" font-family="sans-serif" font-size="13" lengthAdjust="spacing" textLength="566" x="1794" y="320.3638">The EntityManager API is used to create, read, update and delete operations for entities.</text></g><g id="elem_N3"><path d="M428,550.2969 L428,575.4297 A0,0 0 0 0 428,575.4297 L777,575.4297 A0,0 0 0 0 777,575.4297 L777,560.2969 L767,550.2969 L647.557,550.2969 L918.995,472.6369 L639.557,550.2969 L428,550.2969 A0,0 0 0 0 428,550.2969 " fill="#FEFFDD" style="stroke:#181818;stroke-width:0.5;"/><path d="M767,550.2969 L767,560.2969 L777,560.2969 L767,550.2969 " fill="#FEFFDD" style="stroke:#181818;stroke-width:0.5;"/><text fill="#000000" font-family="sans-serif" font-size="13" lengthAdjust="spacing" textLength="328" x="434" y="567.3638">@Id is used to specify the primary key of an entity.</text></g><g id="elem_N4"><path d="M812,550.2969 L812,575.4297 A0,0 0 0 0 812,575.4297 L1307,575.4297 A0,0 0 0 0 1307,575.4297 L1307,560.2969 L1297,550.2969 L1096.69,550.2969 L1266.41,489.4148 L1088.69,550.2969 L812,550.2969 A0,0 0 0 0 812,550.2969 " fill="#FEFFDD" style="stroke:#181818;stroke-width:0.5;"/><path d="M1297,550.2969 L1297,560.2969 L1307,560.2969 L1297,550.2969 " fill="#FEFFDD" style="stroke:#181818;stroke-width:0.5;"/><text fill="#000000" font-family="sans-serif" font-size="13" lengthAdjust="spacing" textLength="474" x="818" y="567.3638">@GeneratedValue is used to specify the primary key generation strategy.</text></g><g id="elem_N5"><path d="M1342,550.2969 L1342,575.4297 A0,0 0 0 0 1342,575.4297 L1887,575.4297 A0,0 0 0 0 1887,575.4297 L1887,560.2969 L1877,550.2969 L1618.5,550.2969 L1614.5,489.4148 L1610.5,550.2969 L1342,550.2969 A0,0 0 0 0 1342,550.2969 " fill="#FEFFDD" style="stroke:#181818;stroke-width:0.5;"/><path d="M1877,550.2969 L1877,560.2969 L1887,560.2969 L1877,550.2969 " fill="#FEFFDD" style="stroke:#181818;stroke-width:0.5;"/><text fill="#000000" font-family="sans-serif" font-size="13" lengthAdjust="spacing" textLength="524" x="1348" y="567.3638">@Column is used to specify the mapped column for a persistent property or field.</text></g><g id="elem_N6"><path d="M1922,550.2969 L1922,575.4297 L2441,575.4297 L2441,560.2969 L2431,550.2969 L1922,550.2969 " fill="#FEFFDD" style="stroke:#181818;stroke-width:0.5;"/><path d="M2431,550.2969 L2431,560.2969 L2441,560.2969 L2431,550.2969 " fill="#FEFFDD" style="stroke:#181818;stroke-width:1.0;"/><text fill="#000000" font-family="sans-serif" font-size="13" lengthAdjust="spacing" textLength="498" x="1928" y="567.3638">@OneToMany is used to specify a one-to-many relationship between entities.</text></g><g id="elem_N7"><path d="M2476,550.2969 L2476,575.4297 L2995,575.4297 L2995,560.2969 L2985,550.2969 L2476,550.2969 " fill="#FEFFDD" style="stroke:#181818;stroke-width:0.5;"/><path d="M2985,550.2969 L2985,560.2969 L2995,560.2969 L2985,550.2969 " fill="#FEFFDD" style="stroke:#181818;stroke-width:1.0;"/><text fill="#000000" font-family="sans-serif" font-size="13" lengthAdjust="spacing" textLength="498" x="2482" y="567.3638">@ManyToOne is used to specify a many-to-one relationship between entities.</text></g><g id="elem_N8"><path d="M3030.5,550.2969 L3030.5,575.4297 L3560.5,575.4297 L3560.5,560.2969 L3550.5,550.2969 L3030.5,550.2969 " fill="#FEFFDD" style="stroke:#181818;stroke-width:0.5;"/><path d="M3550.5,550.2969 L3550.5,560.2969 L3560.5,560.2969 L3550.5,550.2969 " fill="#FEFFDD" style="stroke:#181818;stroke-width:1.0;"/><text fill="#000000" font-family="sans-serif" font-size="13" lengthAdjust="spacing" textLength="509" x="3036.5" y="567.3638">@Transient is used to specify that a field is not to be persisted in the database.</text></g><g id="elem_N9"><path d="M6,550.2969 L6,575.4297 A0,0 0 0 0 6,575.4297 L393,575.4297 A0,0 0 0 0 393,575.4297 L393,560.2969 L383,550.2969 L219.302,550.2969 L298.031,489.4148 L211.302,550.2969 L6,550.2969 A0,0 0 0 0 6,550.2969 " fill="#FEFFDD" style="stroke:#181818;stroke-width:0.5;"/><path d="M383,550.2969 L383,560.2969 L393,560.2969 L383,550.2969 " fill="#FEFFDD" style="stroke:#181818;stroke-width:0.5;"/><text fill="#000000" font-family="sans-serif" font-size="13" lengthAdjust="spacing" textLength="366" x="12" y="567.3638">@Table is used to specify the primary table for an entity.</text></g><!--reverse link Object to Entity--><g id="link_Object_Entity"><path codeLine="27" d="M1674.5,159.6099 C1674.5,190.4129 1674.5,227.4119 1674.5,267.1809 " fill="none" id="Object-backto-Entity" style="stroke:#181818;stroke-width:1.0;"/><polygon fill="none" points="1674.5,141.6099,1668.5,159.6099,1680.5,159.6099,1674.5,141.6099" style="stroke:#181818;stroke-width:1.0;"/><text fill="#000000" font-family="sans-serif" font-size="13" lengthAdjust="spacing" textLength="52" x="1675.5" y="233.3638">Extends</text></g><!--link Entity to Id--><g id="link_Entity_Id"><path codeLine="28" d="M1595.88,340.1599 C1523.16,361.1059 1411.78,391.4999 1313.5,411.2969 C1182.4,437.7049 1028.6869,455.1753 970.2669,461.3393 " fill="none" id="Entity-to-Id" style="stroke:#181818;stroke-width:1.0;stroke-dasharray:7.0,7.0;"/><polygon fill="#181818" points="964.3,461.9689,973.67,465.0024,969.2724,461.4442,972.8306,457.0466,964.3,461.9689" style="stroke:#181818;stroke-width:1.0;"/><text fill="#000000" font-family="sans-serif" font-size="13" lengthAdjust="spacing" textLength="31" x="1384.5" y="407.3638">Uses</text></g><!--link Entity to GeneratedValue--><g id="link_Entity_GeneratedValue"><path codeLine="29" d="M1595.97,353.3209 C1556.93,371.2189 1508.93,392.8369 1465.5,411.2969 C1441.6,421.4579 1420.6207,429.9512 1397.5707,439.0532 " fill="none" id="Entity-to-GeneratedValue" style="stroke:#181818;stroke-width:1.0;stroke-dasharray:7.0,7.0;"/><polygon fill="#181818" points="1391.99,441.2569,1401.8301,441.6718,1396.6405,439.4205,1398.8919,434.2309,1391.99,441.2569" style="stroke:#181818;stroke-width:1.0;"/><text fill="#000000" font-family="sans-serif" font-size="13" lengthAdjust="spacing" textLength="31" x="1501.5" y="407.3638">Uses</text></g><!--link Entity to Column--><g id="link_Entity_Column"><path codeLine="30" d="M1655.02,364.6859 C1644.62,390.2579 1634.5397,415.0216 1626.2397,435.4376 " fill="none" id="Entity-to-Column" style="stroke:#181818;stroke-width:1.0;stroke-dasharray:7.0,7.0;"/><polygon fill="#181818" points="1623.98,440.9959,1631.075,434.165,1625.8631,436.364,1623.664,431.1521,1623.98,440.9959" style="stroke:#181818;stroke-width:1.0;"/><text fill="#000000" font-family="sans-serif" font-size="13" lengthAdjust="spacing" textLength="31" x="1644.5" y="407.3638">Uses</text></g><!--link Entity to OneToMany--><g id="link_Entity_OneToMany"><path codeLine="31" d="M1699.18,364.6859 C1712.35,390.2579 1725.2217,415.2463 1735.7417,435.6623 " fill="none" id="Entity-to-OneToMany" style="stroke:#181818;stroke-width:1.0;stroke-dasharray:7.0,7.0;"/><polygon fill="#181818" points="1738.49,440.9959,1737.9233,431.1633,1736.1998,436.5512,1730.8119,434.8277,1738.49,440.9959" style="stroke:#181818;stroke-width:1.0;"/><text fill="#000000" font-family="sans-serif" font-size="13" lengthAdjust="spacing" textLength="31" x="1723.5" y="407.3638">Uses</text></g><!--link Entity to ManyToOne--><g id="link_Entity_ManyToOne"><path codeLine="32" d="M1747.89,364.4819 C1787.39,390.1539 1829.3086,417.391 1860.8186,437.863 " fill="none" id="Entity-to-ManyToOne" style="stroke:#181818;stroke-width:1.0;stroke-dasharray:7.0,7.0;"/><polygon fill="#181818" points="1865.85,441.1319,1860.4822,432.8743,1861.6572,438.4078,1856.1237,439.5828,1865.85,441.1319" style="stroke:#181818;stroke-width:1.0;"/><text fill="#000000" font-family="sans-serif" font-size="13" lengthAdjust="spacing" textLength="31" x="1816.5" y="407.3638">Uses</text></g><!--link Entity to Transient--><g id="link_Entity_Transient"><path codeLine="33" d="M1753.25,356.7239 C1759.05,359.3689 1764.84,361.9209 1770.5,364.2969 C1807.82,379.9699 1818.42,380.5669 1856.5,394.2969 C1903.35,411.1889 1950.9052,428.9368 1988.7152,443.1798 " fill="none" id="Entity-to-Transient" style="stroke:#181818;stroke-width:1.0;stroke-dasharray:7.0,7.0;"/><polygon fill="#181818" points="1994.33,445.2949,1987.3178,438.379,1989.651,443.5323,1984.4977,445.8654,1994.33,445.2949" style="stroke:#181818;stroke-width:1.0;"/><text fill="#000000" font-family="sans-serif" font-size="13" lengthAdjust="spacing" textLength="31" x="1904.5" y="407.3638">Uses</text></g><!--link Entity to Table--><g id="link_Entity_Table"><path codeLine="34" d="M1595.88,325.4189 C1341.21,353.3479 550.9692,440.0098 371.6002,459.6798 " fill="none" id="Entity-to-Table" style="stroke:#181818;stroke-width:1.0;stroke-dasharray:7.0,7.0;"/><polygon fill="#181818" points="365.636,460.3339,375.0184,463.329,370.6062,459.7888,374.1463,455.3766,365.636,460.3339" style="stroke:#181818;stroke-width:1.0;"/><text fill="#000000" font-family="sans-serif" font-size="13" lengthAdjust="spacing" textLength="31" x="963.5" y="407.3638">Uses</text></g><!--link EntityManager to Entity--><g id="link_EntityManager_Entity"><path codeLine="35" d="M1887.93,190.3509 C1842.84,216.6389 1798.3134,242.6039 1758.2134,265.9829 " fill="none" id="EntityManager-to-Entity" style="stroke:#181818;stroke-width:1.0;stroke-dasharray:7.0,7.0;"/><polygon fill="#181818" points="1753.03,269.0049,1762.8197,267.9275,1757.3495,266.4865,1758.7904,261.0163,1753.03,269.0049" style="stroke:#181818;stroke-width:1.0;"/><text fill="#000000" font-family="sans-serif" font-size="13" lengthAdjust="spacing" textLength="57" x="1834.5" y="233.3638">Manages</text></g><!--link Entity to N1--><g id="link_Entity_N1"><path codeLine="48" d="M1753.11,357.9119 C1758.92,360.2609 1764.75,362.4239 1770.5,364.2969 C1845.11,388.6169 1867.3,380.2199 1944.5,394.2969 C2052.6,414.0079 2178.43,438.5659 2250.25,452.7369 " fill="none" id="Entity-N1" style="stroke:#181818;stroke-width:1.0;stroke-dasharray:7.0,7.0;"/></g><!--link OneToMany to N6--><g id="link_OneToMany_N6"><path codeLine="53" d="M1808.89,484.8016 C1814.49,486.3935 1820.09,487.9196 1825.5,489.2969 C1925.59,514.773 2043.29,537.321 2115.13,550.2632 " fill="none" id="OneToMany-N6" style="stroke:#181818;stroke-width:1.0;stroke-dasharray:7.0,7.0;"/></g><!--link ManyToOne to N7--><g id="link_ManyToOne_N7"><path codeLine="54" d="M1959.76,485.4103 C1965.38,486.8767 1971.02,488.2073 1976.5,489.2969 C2142.35,522.2952 2331.69,540.4139 2479.76,550.2862 " fill="none" id="ManyToOne-N7" style="stroke:#181818;stroke-width:1.0;stroke-dasharray:7.0,7.0;"/></g><!--link Transient to N8--><g id="link_Transient_N8"><path codeLine="55" d="M2094.59,485.1128 C2100.23,486.7475 2105.95,488.1956 2111.5,489.2969 C2200.63,506.9865 2729.67,534.7464 3049.65,550.2819 " fill="none" id="Transient-N8" style="stroke:#181818;stroke-width:1.0;stroke-dasharray:7.0,7.0;"/></g><!--SRC=[ZLFRRjGm47ttLupwj8ZTIj2MNeGgLgL21Nf1BBpFhYTRGs87sociW7zd9d4ssIX5VVFSpioSEOucvWJlx-PmZSR2HOuXK9Z2bOtaCrnH0BGQvjQwYD4u6vHQIH9SscZY1duhW9dHS0OVdLsBOR4WDZz7Rnf7fA9yYn4xvr-bJDiW0LsZnJNv6kzvIJwO42Utos-qYa1rnZEkVt16Iq9ch9xKmxvUdATuRKuXrPJU5EWt7wYkMqYHfy8zqEEWAqyOwORNVA1F5VdDf1aNme-yUKbs7QbdoAjmF-a3UCeyzNsy9swPIulsFGjSvjHtNEc-zOuiUHv9VyMysicxS7bLsBxdrjB2COax-68l78TscdgqmV3wIgKRpgfozkUyPUuCBdz5iZgquVtzSnwC_LzO6dtdxdmZ2SsO8u7jj2EnxT0ZiUtiOp4XSzVVYah2AVCC6YVhc1aXs9lR90NmLFBvs63DGwpH-4iW-_EQESn1iuoN66X_3p30pOk4iRWVodX-TmKcG1L8GtJGI6lAKAYdK9MCG_N7qfGJFrqfHChtWipvPY138RLvcTgyuIlqG4D9AvDj87Bt97VuJXjm6KEdfHB2GOimEDaJqDPDXIWdH2bTjw27BMWwyoDW1PObUrTDago7a3wu7BBqiZpJpu7CKAuJ-b6Btcbbf062ipIBRbP8GdkfS6zAM5ByIMI7PBvgSJkTZU8Ae00p_fDmZrlSJgEZX61ay7fHYNEDX9UqfKIBw8ItWTPEjlYDClz_kKQ-DTa3APmgrVqQaV3mguZUM6ZoE503lOZpKALxYt6aklE8_Kfrj8fzh3ewn3vHpVZoFlq7]--></g></svg>