<?xml version="1.0" encoding="us-ascii" standalone="no"?><svg xmlns="http://www.w3.org/2000/svg" xmlns:xlink="http://www.w3.org/1999/xlink" contentStyleType="text/css" height="457px" preserveAspectRatio="none" style="width:2037px;height:457px;background:#FFFFFF;" version="1.1" viewBox="0 0 2037 457" width="2037px" zoomAndPan="magnify"><defs/><g><!--class Remote--><g id="elem_Remote"><rect codeLine="1" fill="#F1F1F1" height="64.2969" id="Remote" rx="2.5" ry="2.5" style="stroke:#181818;stroke-width:0.5;" width="539" x="876.5" y="237.5"/><ellipse cx="1113.75" cy="253.5" fill="#B4A7E5" rx="11" ry="11" style="stroke:#181818;stroke-width:1.0;"/><path d="M1114.7031,250.2813 L1116.4219,250.2813 C1116.8125,250.2813 1117,250.25 1117.125,250.1719 C1117.3906,250.0156 1117.5313,249.7344 1117.5313,249.4375 C1117.5313,249.1719 1117.4219,248.9063 1117.1875,248.7344 C1117.0156,248.625 1116.875,248.5938 1116.4219,248.5938 L1111.2813,248.5938 C1110.8438,248.5938 1110.7188,248.6094 1110.5625,248.7031 C1110.3125,248.8594 1110.1563,249.1563 1110.1563,249.4375 C1110.1563,249.7188 1110.2969,249.9688 1110.5156,250.1406 C1110.6719,250.25 1110.8594,250.2813 1111.2813,250.2813 L1113,250.2813 L1113,256.7969 L1111.2813,256.7969 C1110.8438,256.7969 1110.7188,256.8125 1110.5625,256.9219 C1110.3125,257.0781 1110.1563,257.3594 1110.1563,257.6563 C1110.1563,257.9063 1110.2969,258.1719 1110.5156,258.3281 C1110.6719,258.4531 1110.875,258.5 1111.2813,258.5 L1116.4219,258.5 C1117.1719,258.5 1117.5313,258.2188 1117.5313,257.6563 C1117.5313,257.375 1117.4219,257.125 1117.1875,256.9531 C1117.0156,256.8281 1116.875,256.7969 1116.4219,256.7969 L1114.7031,256.7969 L1114.7031,250.2813 Z " fill="#000000"/><text fill="#000000" font-family="sans-serif" font-size="14" font-style="italic" lengthAdjust="spacing" textLength="56" x="1134.25" y="258.3467">Remote</text><line style="stroke:#181818;stroke-width:0.5;" x1="877.5" x2="1414.5" y1="269.5" y2="269.5"/><line style="stroke:#181818;stroke-width:0.5;" x1="877.5" x2="1414.5" y1="277.5" y2="277.5"/><ellipse cx="887.5" cy="291.1484" fill="#84BE84" rx="3" ry="3" style="stroke:#038048;stroke-width:1.0;"/><text fill="#000000" font-family="sans-serif" font-size="14" lengthAdjust="spacing" textLength="513" x="896.5" y="294.4951">invoke(obj: RemoteObject, method: Method, params: Object[]): Object</text></g><!--class Serializable--><g id="elem_Serializable"><rect codeLine="5" fill="#F1F1F1" height="64.2969" id="Serializable" rx="2.5" ry="2.5" style="stroke:#181818;stroke-width:0.5;" width="149" x="794.5" y="386"/><ellipse cx="824.8" cy="402" fill="#B4A7E5" rx="11" ry="11" style="stroke:#181818;stroke-width:1.0;"/><path d="M825.7531,398.7813 L827.4719,398.7813 C827.8625,398.7813 828.05,398.75 828.175,398.6719 C828.4406,398.5156 828.5813,398.2344 828.5813,397.9375 C828.5813,397.6719 828.4719,397.4063 828.2375,397.2344 C828.0656,397.125 827.925,397.0938 827.4719,397.0938 L822.3313,397.0938 C821.8938,397.0938 821.7688,397.1094 821.6125,397.2031 C821.3625,397.3594 821.2063,397.6563 821.2063,397.9375 C821.2063,398.2188 821.3469,398.4688 821.5656,398.6406 C821.7219,398.75 821.9094,398.7813 822.3313,398.7813 L824.05,398.7813 L824.05,405.2969 L822.3313,405.2969 C821.8938,405.2969 821.7688,405.3125 821.6125,405.4219 C821.3625,405.5781 821.2063,405.8594 821.2063,406.1563 C821.2063,406.4063 821.3469,406.6719 821.5656,406.8281 C821.7219,406.9531 821.925,407 822.3313,407 L827.4719,407 C828.2219,407 828.5813,406.7188 828.5813,406.1563 C828.5813,405.875 828.4719,405.625 828.2375,405.4531 C828.0656,405.3281 827.925,405.2969 827.4719,405.2969 L825.7531,405.2969 L825.7531,398.7813 Z " fill="#000000"/><text fill="#000000" font-family="sans-serif" font-size="14" font-style="italic" lengthAdjust="spacing" textLength="83" x="842.2" y="406.8467">Serializable</text><line style="stroke:#181818;stroke-width:0.5;" x1="795.5" x2="942.5" y1="418" y2="418"/><line style="stroke:#181818;stroke-width:0.5;" x1="795.5" x2="942.5" y1="426" y2="426"/><ellipse cx="805.5" cy="439.6484" fill="#84BE84" rx="3" ry="3" style="stroke:#038048;stroke-width:1.0;"/><text fill="#000000" font-family="sans-serif" font-size="14" lengthAdjust="spacing" textLength="123" x="814.5" y="442.9951">toString(): String</text></g><!--class RemoteObject--><g id="elem_RemoteObject"><rect codeLine="9" fill="#F1F1F1" height="113.1875" id="RemoteObject" rx="2.5" ry="2.5" style="stroke:#181818;stroke-width:0.5;" width="294" x="446" y="213"/><ellipse cx="535.25" cy="229" fill="#ADD1B2" rx="11" ry="11" style="stroke:#181818;stroke-width:1.0;"/><path d="M537.5938,224.6719 C536.6563,224.2344 536.0625,224.0938 535.1875,224.0938 C532.5625,224.0938 530.5625,226.1719 530.5625,228.8906 L530.5625,230.0156 C530.5625,232.5938 532.6719,234.4844 535.5625,234.4844 C536.7813,234.4844 537.9375,234.1875 538.6875,233.6406 C539.2656,233.2344 539.5938,232.7813 539.5938,232.3906 C539.5938,231.9375 539.2031,231.5469 538.7344,231.5469 C538.5156,231.5469 538.3125,231.625 538.125,231.8125 C537.6719,232.2969 537.6719,232.2969 537.4844,232.3906 C537.0625,232.6563 536.375,232.7813 535.6094,232.7813 C533.5625,232.7813 532.2656,231.6875 532.2656,229.9844 L532.2656,228.8906 C532.2656,227.1094 533.5156,225.7969 535.25,225.7969 C535.8281,225.7969 536.4375,225.9531 536.9063,226.2031 C537.3906,226.4844 537.5625,226.7031 537.6563,227.1094 C537.7188,227.5156 537.75,227.6406 537.8906,227.7656 C538.0313,227.9063 538.2656,228.0156 538.4844,228.0156 C538.75,228.0156 539.0156,227.875 539.1875,227.6563 C539.2969,227.5 539.3281,227.3125 539.3281,226.8906 L539.3281,225.4688 C539.3281,225.0313 539.3125,224.9063 539.2188,224.75 C539.0625,224.4844 538.7813,224.3438 538.4844,224.3438 C538.1875,224.3438 537.9844,224.4375 537.7656,224.75 L537.5938,224.6719 Z " fill="#000000"/><text fill="#000000" font-family="sans-serif" font-size="14" lengthAdjust="spacing" textLength="107" x="555.75" y="233.8467">RemoteObject</text><line style="stroke:#181818;stroke-width:0.5;" x1="447" x2="739" y1="245" y2="245"/><line style="stroke:#181818;stroke-width:0.5;" x1="447" x2="739" y1="253" y2="253"/><ellipse cx="457" cy="266.6484" fill="#84BE84" rx="3" ry="3" style="stroke:#038048;stroke-width:1.0;"/><text fill="#000000" font-family="sans-serif" font-size="14" lengthAdjust="spacing" textLength="117" x="466" y="269.9951">RemoteObject()</text><ellipse cx="457" cy="282.9453" fill="#84BE84" rx="3" ry="3" style="stroke:#038048;stroke-width:1.0;"/><text fill="#000000" font-family="sans-serif" font-size="14" lengthAdjust="spacing" textLength="152" x="466" y="286.292">getRef(): RemoteRef</text><ellipse cx="457" cy="299.2422" fill="#84BE84" rx="3" ry="3" style="stroke:#038048;stroke-width:1.0;"/><text fill="#000000" font-family="sans-serif" font-size="14" lengthAdjust="spacing" textLength="268" x="466" y="302.5889">writeObject(out: ObjectOutput): void</text><ellipse cx="457" cy="315.5391" fill="#84BE84" rx="3" ry="3" style="stroke:#038048;stroke-width:1.0;"/><text fill="#000000" font-family="sans-serif" font-size="14" lengthAdjust="spacing" textLength="239" x="466" y="318.8857">readObject(in: ObjectInput): void</text></g><!--class RemoteServer--><g id="elem_RemoteServer"><rect codeLine="16" fill="#F1F1F1" height="80.5938" id="RemoteServer" rx="2.5" ry="2.5" style="stroke:#181818;stroke-width:0.5;" width="190" x="7" y="39.5"/><ellipse cx="45.85" cy="55.5" fill="#ADD1B2" rx="11" ry="11" style="stroke:#181818;stroke-width:1.0;"/><path d="M48.1938,51.1719 C47.2563,50.7344 46.6625,50.5938 45.7875,50.5938 C43.1625,50.5938 41.1625,52.6719 41.1625,55.3906 L41.1625,56.5156 C41.1625,59.0938 43.2719,60.9844 46.1625,60.9844 C47.3813,60.9844 48.5375,60.6875 49.2875,60.1406 C49.8656,59.7344 50.1938,59.2813 50.1938,58.8906 C50.1938,58.4375 49.8031,58.0469 49.3344,58.0469 C49.1156,58.0469 48.9125,58.125 48.725,58.3125 C48.2719,58.7969 48.2719,58.7969 48.0844,58.8906 C47.6625,59.1563 46.975,59.2813 46.2094,59.2813 C44.1625,59.2813 42.8656,58.1875 42.8656,56.4844 L42.8656,55.3906 C42.8656,53.6094 44.1156,52.2969 45.85,52.2969 C46.4281,52.2969 47.0375,52.4531 47.5063,52.7031 C47.9906,52.9844 48.1625,53.2031 48.2563,53.6094 C48.3188,54.0156 48.35,54.1406 48.4906,54.2656 C48.6313,54.4063 48.8656,54.5156 49.0844,54.5156 C49.35,54.5156 49.6156,54.375 49.7875,54.1563 C49.8969,54 49.9281,53.8125 49.9281,53.3906 L49.9281,51.9688 C49.9281,51.5313 49.9125,51.4063 49.8188,51.25 C49.6625,50.9844 49.3813,50.8438 49.0844,50.8438 C48.7875,50.8438 48.5844,50.9375 48.3656,51.25 L48.1938,51.1719 Z " fill="#000000"/><text fill="#000000" font-family="sans-serif" font-size="14" lengthAdjust="spacing" textLength="105" x="65.15" y="60.3467">RemoteServer</text><line style="stroke:#181818;stroke-width:0.5;" x1="8" x2="196" y1="71.5" y2="71.5"/><line style="stroke:#181818;stroke-width:0.5;" x1="8" x2="196" y1="79.5" y2="79.5"/><ellipse cx="18" cy="93.1484" fill="#84BE84" rx="3" ry="3" style="stroke:#038048;stroke-width:1.0;"/><text fill="#000000" font-family="sans-serif" font-size="14" lengthAdjust="spacing" textLength="115" x="27" y="96.4951">RemoteServer()</text><ellipse cx="18" cy="109.4453" fill="#84BE84" rx="3" ry="3" style="stroke:#038048;stroke-width:1.0;"/><text fill="#000000" font-family="sans-serif" font-size="14" lengthAdjust="spacing" textLength="164" x="27" y="112.792">getClientHost(): String</text></g><!--class UnicastRemoteObject--><g id="elem_UnicastRemoteObject"><rect codeLine="21" fill="#F1F1F1" height="145.7813" id="UnicastRemoteObject" rx="2.5" ry="2.5" style="stroke:#181818;stroke-width:0.5;" width="722" x="232" y="7"/><ellipse cx="509.25" cy="23" fill="#ADD1B2" rx="11" ry="11" style="stroke:#181818;stroke-width:1.0;"/><path d="M511.5938,18.6719 C510.6563,18.2344 510.0625,18.0938 509.1875,18.0938 C506.5625,18.0938 504.5625,20.1719 504.5625,22.8906 L504.5625,24.0156 C504.5625,26.5938 506.6719,28.4844 509.5625,28.4844 C510.7813,28.4844 511.9375,28.1875 512.6875,27.6406 C513.2656,27.2344 513.5938,26.7813 513.5938,26.3906 C513.5938,25.9375 513.2031,25.5469 512.7344,25.5469 C512.5156,25.5469 512.3125,25.625 512.125,25.8125 C511.6719,26.2969 511.6719,26.2969 511.4844,26.3906 C511.0625,26.6563 510.375,26.7813 509.6094,26.7813 C507.5625,26.7813 506.2656,25.6875 506.2656,23.9844 L506.2656,22.8906 C506.2656,21.1094 507.5156,19.7969 509.25,19.7969 C509.8281,19.7969 510.4375,19.9531 510.9063,20.2031 C511.3906,20.4844 511.5625,20.7031 511.6563,21.1094 C511.7188,21.5156 511.75,21.6406 511.8906,21.7656 C512.0313,21.9063 512.2656,22.0156 512.4844,22.0156 C512.75,22.0156 513.0156,21.875 513.1875,21.6563 C513.2969,21.5 513.3281,21.3125 513.3281,20.8906 L513.3281,19.4688 C513.3281,19.0313 513.3125,18.9063 513.2188,18.75 C513.0625,18.4844 512.7813,18.3438 512.4844,18.3438 C512.1875,18.3438 511.9844,18.4375 511.7656,18.75 L511.5938,18.6719 Z " fill="#000000"/><text fill="#000000" font-family="sans-serif" font-size="14" lengthAdjust="spacing" textLength="159" x="529.75" y="27.8467">UnicastRemoteObject</text><line style="stroke:#181818;stroke-width:0.5;" x1="233" x2="953" y1="39" y2="39"/><line style="stroke:#181818;stroke-width:0.5;" x1="233" x2="953" y1="47" y2="47"/><ellipse cx="243" cy="60.6484" fill="#84BE84" rx="3" ry="3" style="stroke:#038048;stroke-width:1.0;"/><text fill="#000000" font-family="sans-serif" font-size="14" lengthAdjust="spacing" textLength="169" x="252" y="63.9951">UnicastRemoteObject()</text><ellipse cx="243" cy="76.9453" fill="#84BE84" rx="3" ry="3" style="stroke:#038048;stroke-width:1.0;"/><text fill="#000000" font-family="sans-serif" font-size="14" lengthAdjust="spacing" textLength="230" x="252" y="80.292">UnicastRemoteObject(port: int)</text><ellipse cx="243" cy="93.2422" fill="#84BE84" rx="3" ry="3" style="stroke:#038048;stroke-width:1.0;"/><text fill="#000000" font-family="sans-serif" font-size="14" lengthAdjust="spacing" textLength="696" x="252" y="96.5889">UnicastRemoteObject(port: int, csf: RMIClientSocketFactory, ssf: RMIServerSocketFactory): void</text><ellipse cx="243" cy="109.5391" fill="#84BE84" rx="3" ry="3" style="stroke:#038048;stroke-width:1.0;"/><text fill="#000000" font-family="sans-serif" font-size="14" lengthAdjust="spacing" text-decoration="underline" textLength="107" x="252" y="112.8857">clone(): Object</text><ellipse cx="243" cy="125.8359" fill="#84BE84" rx="3" ry="3" style="stroke:#038048;stroke-width:1.0;"/><text fill="#000000" font-family="sans-serif" font-size="14" lengthAdjust="spacing" text-decoration="underline" textLength="306" x="252" y="129.1826">exportObject(obj: Remote, port: int): void</text><ellipse cx="243" cy="142.1328" fill="#84BE84" rx="3" ry="3" style="stroke:#038048;stroke-width:1.0;"/><text fill="#000000" font-family="sans-serif" font-size="14" lengthAdjust="spacing" text-decoration="underline" textLength="367" x="252" y="145.4795">unexportObject(obj: Remote, force: boolean): void</text></g><!--class Registry--><g id="elem_Registry"><rect codeLine="30" fill="#F1F1F1" height="129.4844" id="Registry" rx="2.5" ry="2.5" style="stroke:#181818;stroke-width:0.5;" width="313" x="989.5" y="15.5"/><ellipse cx="1112.75" cy="31.5" fill="#B4A7E5" rx="11" ry="11" style="stroke:#181818;stroke-width:1.0;"/><path d="M1113.7031,28.2813 L1115.4219,28.2813 C1115.8125,28.2813 1116,28.25 1116.125,28.1719 C1116.3906,28.0156 1116.5313,27.7344 1116.5313,27.4375 C1116.5313,27.1719 1116.4219,26.9063 1116.1875,26.7344 C1116.0156,26.625 1115.875,26.5938 1115.4219,26.5938 L1110.2813,26.5938 C1109.8438,26.5938 1109.7188,26.6094 1109.5625,26.7031 C1109.3125,26.8594 1109.1563,27.1563 1109.1563,27.4375 C1109.1563,27.7188 1109.2969,27.9688 1109.5156,28.1406 C1109.6719,28.25 1109.8594,28.2813 1110.2813,28.2813 L1112,28.2813 L1112,34.7969 L1110.2813,34.7969 C1109.8438,34.7969 1109.7188,34.8125 1109.5625,34.9219 C1109.3125,35.0781 1109.1563,35.3594 1109.1563,35.6563 C1109.1563,35.9063 1109.2969,36.1719 1109.5156,36.3281 C1109.6719,36.4531 1109.875,36.5 1110.2813,36.5 L1115.4219,36.5 C1116.1719,36.5 1116.5313,36.2188 1116.5313,35.6563 C1116.5313,35.375 1116.4219,35.125 1116.1875,34.9531 C1116.0156,34.8281 1115.875,34.7969 1115.4219,34.7969 L1113.7031,34.7969 L1113.7031,28.2813 Z " fill="#000000"/><text fill="#000000" font-family="sans-serif" font-size="14" font-style="italic" lengthAdjust="spacing" textLength="58" x="1133.25" y="36.3467">Registry</text><line style="stroke:#181818;stroke-width:0.5;" x1="990.5" x2="1301.5" y1="47.5" y2="47.5"/><line style="stroke:#181818;stroke-width:0.5;" x1="990.5" x2="1301.5" y1="55.5" y2="55.5"/><ellipse cx="1000.5" cy="69.1484" fill="#84BE84" rx="3" ry="3" style="stroke:#038048;stroke-width:1.0;"/><text fill="#000000" font-family="sans-serif" font-size="14" lengthAdjust="spacing" textLength="272" x="1009.5" y="72.4951">bind(name: String, obj: Remote): void</text><ellipse cx="1000.5" cy="85.4453" fill="#84BE84" rx="3" ry="3" style="stroke:#038048;stroke-width:1.0;"/><text fill="#000000" font-family="sans-serif" font-size="14" lengthAdjust="spacing" textLength="287" x="1009.5" y="88.792">rebind(name: String, obj: Remote): void</text><ellipse cx="1000.5" cy="101.7422" fill="#84BE84" rx="3" ry="3" style="stroke:#038048;stroke-width:1.0;"/><text fill="#000000" font-family="sans-serif" font-size="14" lengthAdjust="spacing" textLength="219" x="1009.5" y="105.0889">lookup(name: String): Remote</text><ellipse cx="1000.5" cy="118.0391" fill="#84BE84" rx="3" ry="3" style="stroke:#038048;stroke-width:1.0;"/><text fill="#000000" font-family="sans-serif" font-size="14" lengthAdjust="spacing" textLength="191" x="1009.5" y="121.3857">unbind(name: String): void</text><ellipse cx="1000.5" cy="134.3359" fill="#84BE84" rx="3" ry="3" style="stroke:#038048;stroke-width:1.0;"/><text fill="#000000" font-family="sans-serif" font-size="14" lengthAdjust="spacing" textLength="95" x="1009.5" y="137.6826">list(): String[]</text></g><!--class LocateRegistry--><g id="elem_LocateRegistry"><rect codeLine="38" fill="#F1F1F1" height="96.8906" id="LocateRegistry" rx="2.5" ry="2.5" style="stroke:#181818;stroke-width:0.5;" width="344" x="1686" y="31.5"/><ellipse cx="1799.25" cy="47.5" fill="#ADD1B2" rx="11" ry="11" style="stroke:#181818;stroke-width:1.0;"/><path d="M1801.5938,43.1719 C1800.6563,42.7344 1800.0625,42.5938 1799.1875,42.5938 C1796.5625,42.5938 1794.5625,44.6719 1794.5625,47.3906 L1794.5625,48.5156 C1794.5625,51.0938 1796.6719,52.9844 1799.5625,52.9844 C1800.7813,52.9844 1801.9375,52.6875 1802.6875,52.1406 C1803.2656,51.7344 1803.5938,51.2813 1803.5938,50.8906 C1803.5938,50.4375 1803.2031,50.0469 1802.7344,50.0469 C1802.5156,50.0469 1802.3125,50.125 1802.125,50.3125 C1801.6719,50.7969 1801.6719,50.7969 1801.4844,50.8906 C1801.0625,51.1563 1800.375,51.2813 1799.6094,51.2813 C1797.5625,51.2813 1796.2656,50.1875 1796.2656,48.4844 L1796.2656,47.3906 C1796.2656,45.6094 1797.5156,44.2969 1799.25,44.2969 C1799.8281,44.2969 1800.4375,44.4531 1800.9063,44.7031 C1801.3906,44.9844 1801.5625,45.2031 1801.6563,45.6094 C1801.7188,46.0156 1801.75,46.1406 1801.8906,46.2656 C1802.0313,46.4063 1802.2656,46.5156 1802.4844,46.5156 C1802.75,46.5156 1803.0156,46.375 1803.1875,46.1563 C1803.2969,46 1803.3281,45.8125 1803.3281,45.3906 L1803.3281,43.9688 C1803.3281,43.5313 1803.3125,43.4063 1803.2188,43.25 C1803.0625,42.9844 1802.7813,42.8438 1802.4844,42.8438 C1802.1875,42.8438 1801.9844,42.9375 1801.7656,43.25 L1801.5938,43.1719 Z " fill="#000000"/><text fill="#000000" font-family="sans-serif" font-size="14" lengthAdjust="spacing" textLength="109" x="1819.75" y="52.3467">LocateRegistry</text><line style="stroke:#181818;stroke-width:0.5;" x1="1687" x2="2029" y1="63.5" y2="63.5"/><line style="stroke:#181818;stroke-width:0.5;" x1="1687" x2="2029" y1="71.5" y2="71.5"/><ellipse cx="1697" cy="85.1484" fill="#84BE84" rx="3" ry="3" style="stroke:#038048;stroke-width:1.0;"/><text fill="#000000" font-family="sans-serif" font-size="14" lengthAdjust="spacing" textLength="247" x="1706" y="88.4951">createRegistry(port: int): Registry</text><ellipse cx="1697" cy="101.4453" fill="#84BE84" rx="3" ry="3" style="stroke:#038048;stroke-width:1.0;"/><text fill="#000000" font-family="sans-serif" font-size="14" lengthAdjust="spacing" text-decoration="underline" textLength="164" x="1706" y="104.792">getRegistry(): Registry</text><ellipse cx="1697" cy="117.7422" fill="#84BE84" rx="3" ry="3" style="stroke:#038048;stroke-width:1.0;"/><text fill="#000000" font-family="sans-serif" font-size="14" lengthAdjust="spacing" text-decoration="underline" textLength="318" x="1706" y="121.0889">getRegistry(host: String, port: int): Registry</text></g><!--class Naming--><g id="elem_Naming"><rect codeLine="44" fill="#F1F1F1" height="113.1875" id="Naming" rx="2.5" ry="2.5" style="stroke:#181818;stroke-width:0.5;" width="313" x="1337.5" y="23.5"/><ellipse cx="1462.75" cy="39.5" fill="#ADD1B2" rx="11" ry="11" style="stroke:#181818;stroke-width:1.0;"/><path d="M1465.0938,35.1719 C1464.1563,34.7344 1463.5625,34.5938 1462.6875,34.5938 C1460.0625,34.5938 1458.0625,36.6719 1458.0625,39.3906 L1458.0625,40.5156 C1458.0625,43.0938 1460.1719,44.9844 1463.0625,44.9844 C1464.2813,44.9844 1465.4375,44.6875 1466.1875,44.1406 C1466.7656,43.7344 1467.0938,43.2813 1467.0938,42.8906 C1467.0938,42.4375 1466.7031,42.0469 1466.2344,42.0469 C1466.0156,42.0469 1465.8125,42.125 1465.625,42.3125 C1465.1719,42.7969 1465.1719,42.7969 1464.9844,42.8906 C1464.5625,43.1563 1463.875,43.2813 1463.1094,43.2813 C1461.0625,43.2813 1459.7656,42.1875 1459.7656,40.4844 L1459.7656,39.3906 C1459.7656,37.6094 1461.0156,36.2969 1462.75,36.2969 C1463.3281,36.2969 1463.9375,36.4531 1464.4063,36.7031 C1464.8906,36.9844 1465.0625,37.2031 1465.1563,37.6094 C1465.2188,38.0156 1465.25,38.1406 1465.3906,38.2656 C1465.5313,38.4063 1465.7656,38.5156 1465.9844,38.5156 C1466.25,38.5156 1466.5156,38.375 1466.6875,38.1563 C1466.7969,38 1466.8281,37.8125 1466.8281,37.3906 L1466.8281,35.9688 C1466.8281,35.5313 1466.8125,35.4063 1466.7188,35.25 C1466.5625,34.9844 1466.2813,34.8438 1465.9844,34.8438 C1465.6875,34.8438 1465.4844,34.9375 1465.2656,35.25 L1465.0938,35.1719 Z " fill="#000000"/><text fill="#000000" font-family="sans-serif" font-size="14" lengthAdjust="spacing" textLength="54" x="1483.25" y="44.3467">Naming</text><line style="stroke:#181818;stroke-width:0.5;" x1="1338.5" x2="1649.5" y1="55.5" y2="55.5"/><line style="stroke:#181818;stroke-width:0.5;" x1="1338.5" x2="1649.5" y1="63.5" y2="63.5"/><ellipse cx="1348.5" cy="77.1484" fill="#84BE84" rx="3" ry="3" style="stroke:#038048;stroke-width:1.0;"/><text fill="#000000" font-family="sans-serif" font-size="14" lengthAdjust="spacing" text-decoration="underline" textLength="219" x="1357.5" y="80.4951">lookup(name: String): Remote</text><ellipse cx="1348.5" cy="93.4453" fill="#84BE84" rx="3" ry="3" style="stroke:#038048;stroke-width:1.0;"/><text fill="#000000" font-family="sans-serif" font-size="14" lengthAdjust="spacing" text-decoration="underline" textLength="272" x="1357.5" y="96.792">bind(name: String, obj: Remote): void</text><ellipse cx="1348.5" cy="109.7422" fill="#84BE84" rx="3" ry="3" style="stroke:#038048;stroke-width:1.0;"/><text fill="#000000" font-family="sans-serif" font-size="14" lengthAdjust="spacing" text-decoration="underline" textLength="287" x="1357.5" y="113.0889">rebind(name: String, obj: Remote): void</text><ellipse cx="1348.5" cy="126.0391" fill="#84BE84" rx="3" ry="3" style="stroke:#038048;stroke-width:1.0;"/><text fill="#000000" font-family="sans-serif" font-size="14" lengthAdjust="spacing" text-decoration="underline" textLength="191" x="1357.5" y="129.3857">unbind(name: String): void</text></g><!--link Registry to Remote--><g id="link_Registry_Remote"><path codeLine="51" d="M1146,144.741 C1146,175.953 1146,194.127 1146,219.273 " fill="none" id="Registry-to-Remote" style="stroke:#181818;stroke-width:1.0;"/><polygon fill="none" points="1146,237.273,1152,219.273,1140,219.273,1146,237.273" style="stroke:#181818;stroke-width:1.0;"/></g><!--link Remote to Serializable--><g id="link_Remote_Serializable"><path codeLine="53" d="M1087.26,301.569 C1040.25,326.43 990.5566,352.7108 943.5716,377.5605 " fill="none" id="Remote-to-Serializable" style="stroke:#181818;stroke-width:1.0;"/><polygon fill="none" points="927.66,385.9759,946.3768,382.8643,940.7665,372.2566,927.66,385.9759" style="stroke:#181818;stroke-width:1.0;"/></g><!--link RemoteObject to Serializable--><g id="link_RemoteObject_Serializable"><path codeLine="54" d="M697.737,326.094 C735.861,346.33 761.6879,360.0393 794.4089,377.4073 " fill="none" id="RemoteObject-to-Serializable" style="stroke:#181818;stroke-width:1.0;"/><polygon fill="none" points="810.308,385.8464,797.2219,372.1076,791.5959,382.707,810.308,385.8464" style="stroke:#181818;stroke-width:1.0;"/></g><!--link UnicastRemoteObject to RemoteObject--><g id="link_UnicastRemoteObject_RemoteObject"><path codeLine="55" d="M593,153.224 C593,173.032 593,176.194 593,194.91 " fill="none" id="UnicastRemoteObject-to-RemoteObject" style="stroke:#181818;stroke-width:1.0;"/><polygon fill="none" points="593,212.91,599,194.91,587,194.91,593,212.91" style="stroke:#181818;stroke-width:1.0;"/></g><!--link RemoteServer to RemoteObject--><g id="link_RemoteServer_RemoteObject"><path codeLine="56" d="M156.955,120.6 C174.592,132.126 194.596,144.017 214,153 C287.657,187.1 356.5624,209.592 428.1774,229.012 " fill="none" id="RemoteServer-to-RemoteObject" style="stroke:#181818;stroke-width:1.0;"/><polygon fill="none" points="445.55,233.723,429.7477,223.2212,426.6071,234.8029,445.55,233.723" style="stroke:#181818;stroke-width:1.0;"/></g><!--link Naming to Remote--><g id="link_Naming_Remote"><path codeLine="58" d="M1390.53,136.749 C1329.42,169.673 1270.1857,201.586 1219.4757,228.913 " fill="none" id="Naming-to-Remote" style="stroke:#181818;stroke-width:1.0;"/><polygon fill="none" points="1203.63,237.452,1222.322,234.1949,1216.6293,223.6311,1203.63,237.452" style="stroke:#181818;stroke-width:1.0;"/></g><!--SRC=[bLJ1Ri8m3BttAt8iMlS3FUmoQHhI619e9yGX3GO2ROmIbuqn_dqfQTDq5C5EJVsU7Vlb9L8Hw2KNm2PG804xHemzIBN7BSIORT8wFius82XX1T0Q5oaRdRy9st7D2vCoXy_cWsOPdQ98-k9Jq9BdyfjdURq5uPIqLAlOPhXLbI5oRandIySE8_6WYgo09h2iiXrcVwhmfvQUXoKrtOnBsfLaoNkKYugdWIzgcbGDQwW2qfzkx0Hxq64tBkAxUSubA7f5GtqZVIWfkA7BoNe0Lx8FsA6s8rbPRpCI9ipIYZCQkiQcABP0BrmGwaF2J0sw8JfWeDBH42SfJapag21k3pV4uAlQjD6yjOmrXs-tfsIfhYSkKGj8MOQO0rV1YSZ0hYjfI1-SYfbKYrZn0Xhb4nOKx9pxtTGSSLlkEbJljWelrKMfC5k6HfZDMokyeU2LNyF-XVLZ6uj3uPfWHxop-sloFPorjMKxRszvtzyxBopBzUMBtHB34- -MrsVyuqW2yrpLtixXjNry_7bgcepg1-uS2z-Zg7CfB-6-gniKhcz4vvMuXADQrG3v1G00]--></g></svg>