<?xml version="1.0" encoding="us-ascii" standalone="no"?><svg xmlns="http://www.w3.org/2000/svg" xmlns:xlink="http://www.w3.org/1999/xlink" contentStyleType="text/css" height="414px" preserveAspectRatio="none" style="width:1195px;height:414px;background:#FFFFFF;" version="1.1" viewBox="0 0 1195 414" width="1195px" zoomAndPan="magnify"><defs/><g><!--class ServerSocket--><g id="elem_ServerSocket"><rect codeLine="1" fill="#F1F1F1" height="194.6719" id="ServerSocket" rx="2.5" ry="2.5" style="stroke:#181818;stroke-width:0.5;" width="443" x="48" y="7"/><ellipse cx="216.25" cy="23" fill="#ADD1B2" rx="11" ry="11" style="stroke:#181818;stroke-width:1.0;"/><path d="M218.5938,18.6719 C217.6563,18.2344 217.0625,18.0938 216.1875,18.0938 C213.5625,18.0938 211.5625,20.1719 211.5625,22.8906 L211.5625,24.0156 C211.5625,26.5938 213.6719,28.4844 216.5625,28.4844 C217.7813,28.4844 218.9375,28.1875 219.6875,27.6406 C220.2656,27.2344 220.5938,26.7813 220.5938,26.3906 C220.5938,25.9375 220.2031,25.5469 219.7344,25.5469 C219.5156,25.5469 219.3125,25.625 219.125,25.8125 C218.6719,26.2969 218.6719,26.2969 218.4844,26.3906 C218.0625,26.6563 217.375,26.7813 216.6094,26.7813 C214.5625,26.7813 213.2656,25.6875 213.2656,23.9844 L213.2656,22.8906 C213.2656,21.1094 214.5156,19.7969 216.25,19.7969 C216.8281,19.7969 217.4375,19.9531 217.9063,20.2031 C218.3906,20.4844 218.5625,20.7031 218.6563,21.1094 C218.7188,21.5156 218.75,21.6406 218.8906,21.7656 C219.0313,21.9063 219.2656,22.0156 219.4844,22.0156 C219.75,22.0156 220.0156,21.875 220.1875,21.6563 C220.2969,21.5 220.3281,21.3125 220.3281,20.8906 L220.3281,19.4688 C220.3281,19.0313 220.3125,18.9063 220.2188,18.75 C220.0625,18.4844 219.7813,18.3438 219.4844,18.3438 C219.1875,18.3438 218.9844,18.4375 218.7656,18.75 L218.5938,18.6719 Z " fill="#000000"/><text fill="#000000" font-family="sans-serif" font-size="14" lengthAdjust="spacing" textLength="98" x="236.75" y="27.8467">ServerSocket</text><line style="stroke:#181818;stroke-width:0.5;" x1="49" x2="490" y1="39" y2="39"/><line style="stroke:#181818;stroke-width:0.5;" x1="49" x2="490" y1="47" y2="47"/><ellipse cx="59" cy="60.6484" fill="#84BE84" rx="3" ry="3" style="stroke:#038048;stroke-width:1.0;"/><text fill="#000000" font-family="sans-serif" font-size="14" lengthAdjust="spacing" textLength="108" x="68" y="63.9951">ServerSocket()</text><ellipse cx="59" cy="76.9453" fill="#84BE84" rx="3" ry="3" style="stroke:#038048;stroke-width:1.0;"/><text fill="#000000" font-family="sans-serif" font-size="14" lengthAdjust="spacing" textLength="164" x="68" y="80.292">ServerSocket(int port)</text><ellipse cx="59" cy="93.2422" fill="#84BE84" rx="3" ry="3" style="stroke:#038048;stroke-width:1.0;"/><text fill="#000000" font-family="sans-serif" font-size="14" lengthAdjust="spacing" textLength="253" x="68" y="96.5889">ServerSocket(int port, int backlog)</text><ellipse cx="59" cy="109.5391" fill="#84BE84" rx="3" ry="3" style="stroke:#038048;stroke-width:1.0;"/><text fill="#000000" font-family="sans-serif" font-size="14" lengthAdjust="spacing" textLength="417" x="68" y="112.8857">ServerSocket(int port, int backlog, InetAddress bindAddr)</text><ellipse cx="59" cy="125.8359" fill="#84BE84" rx="3" ry="3" style="stroke:#038048;stroke-width:1.0;"/><text fill="#000000" font-family="sans-serif" font-size="14" lengthAdjust="spacing" textLength="120" x="68" y="129.1826">accept(): Socket</text><ellipse cx="59" cy="142.1328" fill="#84BE84" rx="3" ry="3" style="stroke:#038048;stroke-width:1.0;"/><text fill="#000000" font-family="sans-serif" font-size="14" lengthAdjust="spacing" textLength="259" x="68" y="145.4795">bind(SocketAddress endpoint): void</text><ellipse cx="59" cy="158.4297" fill="#84BE84" rx="3" ry="3" style="stroke:#038048;stroke-width:1.0;"/><text fill="#000000" font-family="sans-serif" font-size="14" lengthAdjust="spacing" textLength="86" x="68" y="161.7764">close(): void</text><ellipse cx="59" cy="174.7266" fill="#84BE84" rx="3" ry="3" style="stroke:#038048;stroke-width:1.0;"/><text fill="#000000" font-family="sans-serif" font-size="14" lengthAdjust="spacing" textLength="216" x="68" y="178.0732">getInetAddress(): InetAddress</text><ellipse cx="59" cy="191.0234" fill="#84BE84" rx="3" ry="3" style="stroke:#038048;stroke-width:1.0;"/><text fill="#000000" font-family="sans-serif" font-size="14" lengthAdjust="spacing" textLength="132" x="68" y="194.3701">getLocalPort(): int</text></g><!--class Socket--><g id="elem_Socket"><rect codeLine="13" fill="#F1F1F1" height="178.375" id="Socket" rx="2.5" ry="2.5" style="stroke:#181818;stroke-width:0.5;" width="296" x="526.5" y="15.5"/><ellipse cx="644.75" cy="31.5" fill="#ADD1B2" rx="11" ry="11" style="stroke:#181818;stroke-width:1.0;"/><path d="M647.0938,27.1719 C646.1563,26.7344 645.5625,26.5938 644.6875,26.5938 C642.0625,26.5938 640.0625,28.6719 640.0625,31.3906 L640.0625,32.5156 C640.0625,35.0938 642.1719,36.9844 645.0625,36.9844 C646.2813,36.9844 647.4375,36.6875 648.1875,36.1406 C648.7656,35.7344 649.0938,35.2813 649.0938,34.8906 C649.0938,34.4375 648.7031,34.0469 648.2344,34.0469 C648.0156,34.0469 647.8125,34.125 647.625,34.3125 C647.1719,34.7969 647.1719,34.7969 646.9844,34.8906 C646.5625,35.1563 645.875,35.2813 645.1094,35.2813 C643.0625,35.2813 641.7656,34.1875 641.7656,32.4844 L641.7656,31.3906 C641.7656,29.6094 643.0156,28.2969 644.75,28.2969 C645.3281,28.2969 645.9375,28.4531 646.4063,28.7031 C646.8906,28.9844 647.0625,29.2031 647.1563,29.6094 C647.2188,30.0156 647.25,30.1406 647.3906,30.2656 C647.5313,30.4063 647.7656,30.5156 647.9844,30.5156 C648.25,30.5156 648.5156,30.375 648.6875,30.1563 C648.7969,30 648.8281,29.8125 648.8281,29.3906 L648.8281,27.9688 C648.8281,27.5313 648.8125,27.4063 648.7188,27.25 C648.5625,26.9844 648.2813,26.8438 647.9844,26.8438 C647.6875,26.8438 647.4844,26.9375 647.2656,27.25 L647.0938,27.1719 Z " fill="#000000"/><text fill="#000000" font-family="sans-serif" font-size="14" lengthAdjust="spacing" textLength="51" x="665.25" y="36.3467">Socket</text><line style="stroke:#181818;stroke-width:0.5;" x1="527.5" x2="821.5" y1="47.5" y2="47.5"/><line style="stroke:#181818;stroke-width:0.5;" x1="527.5" x2="821.5" y1="55.5" y2="55.5"/><ellipse cx="537.5" cy="69.1484" fill="#84BE84" rx="3" ry="3" style="stroke:#038048;stroke-width:1.0;"/><text fill="#000000" font-family="sans-serif" font-size="14" lengthAdjust="spacing" textLength="61" x="546.5" y="72.4951">Socket()</text><ellipse cx="537.5" cy="85.4453" fill="#84BE84" rx="3" ry="3" style="stroke:#038048;stroke-width:1.0;"/><text fill="#000000" font-family="sans-serif" font-size="14" lengthAdjust="spacing" textLength="270" x="546.5" y="88.792">Socket(InetAddress address, int port)</text><ellipse cx="537.5" cy="101.7422" fill="#84BE84" rx="3" ry="3" style="stroke:#038048;stroke-width:1.0;"/><text fill="#000000" font-family="sans-serif" font-size="14" lengthAdjust="spacing" textLength="205" x="546.5" y="105.0889">Socket(String host, int port)</text><ellipse cx="537.5" cy="118.0391" fill="#84BE84" rx="3" ry="3" style="stroke:#038048;stroke-width:1.0;"/><text fill="#000000" font-family="sans-serif" font-size="14" lengthAdjust="spacing" textLength="86" x="546.5" y="121.3857">close(): void</text><ellipse cx="537.5" cy="134.3359" fill="#84BE84" rx="3" ry="3" style="stroke:#038048;stroke-width:1.0;"/><text fill="#000000" font-family="sans-serif" font-size="14" lengthAdjust="spacing" textLength="226" x="546.5" y="137.6826">getInputStream(): InputStream</text><ellipse cx="537.5" cy="150.6328" fill="#84BE84" rx="3" ry="3" style="stroke:#038048;stroke-width:1.0;"/><text fill="#000000" font-family="sans-serif" font-size="14" lengthAdjust="spacing" textLength="252" x="546.5" y="153.9795">getOutputStream(): OutputStream</text><ellipse cx="537.5" cy="166.9297" fill="#84BE84" rx="3" ry="3" style="stroke:#038048;stroke-width:1.0;"/><text fill="#000000" font-family="sans-serif" font-size="14" lengthAdjust="spacing" textLength="216" x="546.5" y="170.2764">getInetAddress(): InetAddress</text><ellipse cx="537.5" cy="183.2266" fill="#84BE84" rx="3" ry="3" style="stroke:#038048;stroke-width:1.0;"/><text fill="#000000" font-family="sans-serif" font-size="14" lengthAdjust="spacing" textLength="95" x="546.5" y="186.5732">getPort(): int</text></g><!--class DatagramSocket--><g id="elem_DatagramSocket"><rect codeLine="24" fill="#F1F1F1" height="145.7813" id="DatagramSocket" rx="2.5" ry="2.5" style="stroke:#181818;stroke-width:0.5;" width="334" x="854.5" y="262"/><ellipse cx="956.25" cy="278" fill="#ADD1B2" rx="11" ry="11" style="stroke:#181818;stroke-width:1.0;"/><path d="M958.5938,273.6719 C957.6563,273.2344 957.0625,273.0938 956.1875,273.0938 C953.5625,273.0938 951.5625,275.1719 951.5625,277.8906 L951.5625,279.0156 C951.5625,281.5938 953.6719,283.4844 956.5625,283.4844 C957.7813,283.4844 958.9375,283.1875 959.6875,282.6406 C960.2656,282.2344 960.5938,281.7813 960.5938,281.3906 C960.5938,280.9375 960.2031,280.5469 959.7344,280.5469 C959.5156,280.5469 959.3125,280.625 959.125,280.8125 C958.6719,281.2969 958.6719,281.2969 958.4844,281.3906 C958.0625,281.6563 957.375,281.7813 956.6094,281.7813 C954.5625,281.7813 953.2656,280.6875 953.2656,278.9844 L953.2656,277.8906 C953.2656,276.1094 954.5156,274.7969 956.25,274.7969 C956.8281,274.7969 957.4375,274.9531 957.9063,275.2031 C958.3906,275.4844 958.5625,275.7031 958.6563,276.1094 C958.7188,276.5156 958.75,276.6406 958.8906,276.7656 C959.0313,276.9063 959.2656,277.0156 959.4844,277.0156 C959.75,277.0156 960.0156,276.875 960.1875,276.6563 C960.2969,276.5 960.3281,276.3125 960.3281,275.8906 L960.3281,274.4688 C960.3281,274.0313 960.3125,273.9063 960.2188,273.75 C960.0625,273.4844 959.7813,273.3438 959.4844,273.3438 C959.1875,273.3438 958.9844,273.4375 958.7656,273.75 L958.5938,273.6719 Z " fill="#000000"/><text fill="#000000" font-family="sans-serif" font-size="14" lengthAdjust="spacing" textLength="122" x="976.75" y="282.8467">DatagramSocket</text><line style="stroke:#181818;stroke-width:0.5;" x1="855.5" x2="1187.5" y1="294" y2="294"/><line style="stroke:#181818;stroke-width:0.5;" x1="855.5" x2="1187.5" y1="302" y2="302"/><ellipse cx="865.5" cy="315.6484" fill="#84BE84" rx="3" ry="3" style="stroke:#038048;stroke-width:1.0;"/><text fill="#000000" font-family="sans-serif" font-size="14" lengthAdjust="spacing" textLength="132" x="874.5" y="318.9951">DatagramSocket()</text><ellipse cx="865.5" cy="331.9453" fill="#84BE84" rx="3" ry="3" style="stroke:#038048;stroke-width:1.0;"/><text fill="#000000" font-family="sans-serif" font-size="14" lengthAdjust="spacing" textLength="188" x="874.5" y="335.292">DatagramSocket(int port)</text><ellipse cx="865.5" cy="348.2422" fill="#84BE84" rx="3" ry="3" style="stroke:#038048;stroke-width:1.0;"/><text fill="#000000" font-family="sans-serif" font-size="14" lengthAdjust="spacing" textLength="308" x="874.5" y="351.5889">DatagramSocket(SocketAddress bindaddr)</text><ellipse cx="865.5" cy="364.5391" fill="#84BE84" rx="3" ry="3" style="stroke:#038048;stroke-width:1.0;"/><text fill="#000000" font-family="sans-serif" font-size="14" lengthAdjust="spacing" textLength="86" x="874.5" y="367.8857">close(): void</text><ellipse cx="865.5" cy="380.8359" fill="#84BE84" rx="3" ry="3" style="stroke:#038048;stroke-width:1.0;"/><text fill="#000000" font-family="sans-serif" font-size="14" lengthAdjust="spacing" textLength="237" x="874.5" y="384.1826">receive(DatagramPacket p): void</text><ellipse cx="865.5" cy="397.1328" fill="#84BE84" rx="3" ry="3" style="stroke:#038048;stroke-width:1.0;"/><text fill="#000000" font-family="sans-serif" font-size="14" lengthAdjust="spacing" textLength="218" x="874.5" y="400.4795">send(DatagramPacket p): void</text></g><!--class DatagramPacket--><g id="elem_DatagramPacket"><rect codeLine="33" fill="#F1F1F1" height="145.7813" id="DatagramPacket" rx="2.5" ry="2.5" style="stroke:#181818;stroke-width:0.5;" width="525" x="7" y="262"/><ellipse cx="204.75" cy="278" fill="#ADD1B2" rx="11" ry="11" style="stroke:#181818;stroke-width:1.0;"/><path d="M207.0938,273.6719 C206.1563,273.2344 205.5625,273.0938 204.6875,273.0938 C202.0625,273.0938 200.0625,275.1719 200.0625,277.8906 L200.0625,279.0156 C200.0625,281.5938 202.1719,283.4844 205.0625,283.4844 C206.2813,283.4844 207.4375,283.1875 208.1875,282.6406 C208.7656,282.2344 209.0938,281.7813 209.0938,281.3906 C209.0938,280.9375 208.7031,280.5469 208.2344,280.5469 C208.0156,280.5469 207.8125,280.625 207.625,280.8125 C207.1719,281.2969 207.1719,281.2969 206.9844,281.3906 C206.5625,281.6563 205.875,281.7813 205.1094,281.7813 C203.0625,281.7813 201.7656,280.6875 201.7656,278.9844 L201.7656,277.8906 C201.7656,276.1094 203.0156,274.7969 204.75,274.7969 C205.3281,274.7969 205.9375,274.9531 206.4063,275.2031 C206.8906,275.4844 207.0625,275.7031 207.1563,276.1094 C207.2188,276.5156 207.25,276.6406 207.3906,276.7656 C207.5313,276.9063 207.7656,277.0156 207.9844,277.0156 C208.25,277.0156 208.5156,276.875 208.6875,276.6563 C208.7969,276.5 208.8281,276.3125 208.8281,275.8906 L208.8281,274.4688 C208.8281,274.0313 208.8125,273.9063 208.7188,273.75 C208.5625,273.4844 208.2813,273.3438 207.9844,273.3438 C207.6875,273.3438 207.4844,273.4375 207.2656,273.75 L207.0938,273.6719 Z " fill="#000000"/><text fill="#000000" font-family="sans-serif" font-size="14" lengthAdjust="spacing" textLength="121" x="225.25" y="282.8467">DatagramPacket</text><line style="stroke:#181818;stroke-width:0.5;" x1="8" x2="531" y1="294" y2="294"/><line style="stroke:#181818;stroke-width:0.5;" x1="8" x2="531" y1="302" y2="302"/><ellipse cx="18" cy="315.6484" fill="#84BE84" rx="3" ry="3" style="stroke:#038048;stroke-width:1.0;"/><text fill="#000000" font-family="sans-serif" font-size="14" lengthAdjust="spacing" textLength="282" x="27" y="318.9951">DatagramPacket(byte[] buf, int length)</text><ellipse cx="18" cy="331.9453" fill="#84BE84" rx="3" ry="3" style="stroke:#038048;stroke-width:1.0;"/><text fill="#000000" font-family="sans-serif" font-size="14" lengthAdjust="spacing" textLength="499" x="27" y="335.292">DatagramPacket(byte[] buf, int length, InetAddress address, int port)</text><ellipse cx="18" cy="348.2422" fill="#84BE84" rx="3" ry="3" style="stroke:#038048;stroke-width:1.0;"/><text fill="#000000" font-family="sans-serif" font-size="14" lengthAdjust="spacing" textLength="122" x="27" y="351.5889">getData(): byte[]</text><ellipse cx="18" cy="364.5391" fill="#84BE84" rx="3" ry="3" style="stroke:#038048;stroke-width:1.0;"/><text fill="#000000" font-family="sans-serif" font-size="14" lengthAdjust="spacing" textLength="115" x="27" y="367.8857">getLength(): int</text><ellipse cx="18" cy="380.8359" fill="#84BE84" rx="3" ry="3" style="stroke:#038048;stroke-width:1.0;"/><text fill="#000000" font-family="sans-serif" font-size="14" lengthAdjust="spacing" textLength="187" x="27" y="384.1826">getAddress(): InetAddress</text><ellipse cx="18" cy="397.1328" fill="#84BE84" rx="3" ry="3" style="stroke:#038048;stroke-width:1.0;"/><text fill="#000000" font-family="sans-serif" font-size="14" lengthAdjust="spacing" textLength="95" x="27" y="400.4795">getPort(): int</text></g><!--class MulticastSocket--><g id="elem_MulticastSocket"><rect codeLine="42" fill="#F1F1F1" height="129.4844" id="MulticastSocket" rx="2.5" ry="2.5" style="stroke:#181818;stroke-width:0.5;" width="328" x="857.5" y="40"/><ellipse cx="959.25" cy="56" fill="#ADD1B2" rx="11" ry="11" style="stroke:#181818;stroke-width:1.0;"/><path d="M961.5938,51.6719 C960.6563,51.2344 960.0625,51.0938 959.1875,51.0938 C956.5625,51.0938 954.5625,53.1719 954.5625,55.8906 L954.5625,57.0156 C954.5625,59.5938 956.6719,61.4844 959.5625,61.4844 C960.7813,61.4844 961.9375,61.1875 962.6875,60.6406 C963.2656,60.2344 963.5938,59.7813 963.5938,59.3906 C963.5938,58.9375 963.2031,58.5469 962.7344,58.5469 C962.5156,58.5469 962.3125,58.625 962.125,58.8125 C961.6719,59.2969 961.6719,59.2969 961.4844,59.3906 C961.0625,59.6563 960.375,59.7813 959.6094,59.7813 C957.5625,59.7813 956.2656,58.6875 956.2656,56.9844 L956.2656,55.8906 C956.2656,54.1094 957.5156,52.7969 959.25,52.7969 C959.8281,52.7969 960.4375,52.9531 960.9063,53.2031 C961.3906,53.4844 961.5625,53.7031 961.6563,54.1094 C961.7188,54.5156 961.75,54.6406 961.8906,54.7656 C962.0313,54.9063 962.2656,55.0156 962.4844,55.0156 C962.75,55.0156 963.0156,54.875 963.1875,54.6563 C963.2969,54.5 963.3281,54.3125 963.3281,53.8906 L963.3281,52.4688 C963.3281,52.0313 963.3125,51.9063 963.2188,51.75 C963.0625,51.4844 962.7813,51.3438 962.4844,51.3438 C962.1875,51.3438 961.9844,51.4375 961.7656,51.75 L961.5938,51.6719 Z " fill="#000000"/><text fill="#000000" font-family="sans-serif" font-size="14" lengthAdjust="spacing" textLength="116" x="979.75" y="60.8467">MulticastSocket</text><line style="stroke:#181818;stroke-width:0.5;" x1="858.5" x2="1184.5" y1="72" y2="72"/><line style="stroke:#181818;stroke-width:0.5;" x1="858.5" x2="1184.5" y1="80" y2="80"/><ellipse cx="868.5" cy="93.6484" fill="#84BE84" rx="3" ry="3" style="stroke:#038048;stroke-width:1.0;"/><text fill="#000000" font-family="sans-serif" font-size="14" lengthAdjust="spacing" textLength="182" x="877.5" y="96.9951">MulticastSocket(int port)</text><ellipse cx="868.5" cy="109.9453" fill="#84BE84" rx="3" ry="3" style="stroke:#038048;stroke-width:1.0;"/><text fill="#000000" font-family="sans-serif" font-size="14" lengthAdjust="spacing" textLength="302" x="877.5" y="113.292">MulticastSocket(SocketAddress bindaddr)</text><ellipse cx="868.5" cy="126.2422" fill="#84BE84" rx="3" ry="3" style="stroke:#038048;stroke-width:1.0;"/><text fill="#000000" font-family="sans-serif" font-size="14" lengthAdjust="spacing" textLength="285" x="877.5" y="129.5889">joinGroup(InetAddress mcastaddr): void</text><ellipse cx="868.5" cy="142.5391" fill="#84BE84" rx="3" ry="3" style="stroke:#038048;stroke-width:1.0;"/><text fill="#000000" font-family="sans-serif" font-size="14" lengthAdjust="spacing" textLength="297" x="877.5" y="145.8857">leaveGroup(InetAddress mcastaddr): void</text><ellipse cx="868.5" cy="158.8359" fill="#84BE84" rx="3" ry="3" style="stroke:#038048;stroke-width:1.0;"/><text fill="#000000" font-family="sans-serif" font-size="14" lengthAdjust="spacing" textLength="197" x="877.5" y="162.1826">setTimeToLive(int ttl): void</text></g><!--link MulticastSocket to DatagramSocket--><g id="link_MulticastSocket_DatagramSocket"><path codeLine="50" d="M1021.5,169.15 C1021.5,197.938 1021.5,214.096 1021.5,243.834 " fill="none" id="MulticastSocket-to-DatagramSocket" style="stroke:#181818;stroke-width:1.0;"/><polygon fill="none" points="1021.5,261.834,1027.5,243.834,1015.5,243.834,1021.5,261.834" style="stroke:#181818;stroke-width:1.0;"/></g><!--SRC=[bLF1JiCm3BttAtBinFO3792Ga13I49Ew6-AGfgOBIvigSIiXuD-9cvKbsOQwq-BdPzVFpnEAMyiAC0EOGeiz8FlA6Bi9aNnnWiWMMQSDNiui6RrABlPArpDfI_RK0jvNbG4tL2dRYjvZCHS2EZV9BVCD22D2xiEf1jggqwwZumrQLiGIIbl80w0633v3cI0y4DPQSBLnyr7QzSj-iapuLOLB2jVZtw40xd-znEEsFB508zkQxRJ5X71-uAv7LmAyyGF_XGV2IuyH8updYZwhzu4ZhmrlGjqnvlKdMAGeoSMMaOjyilb4km41Se1yQh7XunXTGB7Ez8lv4nq7GgJ3OtdvYV3wnih-tJkYeArnjvZDZC_tlFjkpTIB9Fecqy6D7QRjU-nwivvxXL9mYw5R2HXRaoR_yUR3_R4UZUwxwCWRAXuvHqSKy07cKItWLZQmrMjocKP3L85vgQBLwlikkSbV]--></g></svg>