<?xml version="1.0" encoding="us-ascii" standalone="no"?><svg xmlns="http://www.w3.org/2000/svg" xmlns:xlink="http://www.w3.org/1999/xlink" contentStyleType="text/css" height="316px" preserveAspectRatio="none" style="width:903px;height:316px;background:#FFFFFF;" version="1.1" viewBox="0 0 903 316" width="903px" zoomAndPan="magnify"><defs/><g><!--class Thread--><g id="elem_Thread"><rect codeLine="1" fill="#F1F1F1" height="178.375" id="Thread" rx="2.5" ry="2.5" style="stroke:#181818;stroke-width:0.5;" width="203" x="7" y="7"/><ellipse cx="79.25" cy="23" fill="#ADD1B2" rx="11" ry="11" style="stroke:#181818;stroke-width:1.0;"/><path d="M81.5938,18.6719 C80.6563,18.2344 80.0625,18.0938 79.1875,18.0938 C76.5625,18.0938 74.5625,20.1719 74.5625,22.8906 L74.5625,24.0156 C74.5625,26.5938 76.6719,28.4844 79.5625,28.4844 C80.7813,28.4844 81.9375,28.1875 82.6875,27.6406 C83.2656,27.2344 83.5938,26.7813 83.5938,26.3906 C83.5938,25.9375 83.2031,25.5469 82.7344,25.5469 C82.5156,25.5469 82.3125,25.625 82.125,25.8125 C81.6719,26.2969 81.6719,26.2969 81.4844,26.3906 C81.0625,26.6563 80.375,26.7813 79.6094,26.7813 C77.5625,26.7813 76.2656,25.6875 76.2656,23.9844 L76.2656,22.8906 C76.2656,21.1094 77.5156,19.7969 79.25,19.7969 C79.8281,19.7969 80.4375,19.9531 80.9063,20.2031 C81.3906,20.4844 81.5625,20.7031 81.6563,21.1094 C81.7188,21.5156 81.75,21.6406 81.8906,21.7656 C82.0313,21.9063 82.2656,22.0156 82.4844,22.0156 C82.75,22.0156 83.0156,21.875 83.1875,21.6563 C83.2969,21.5 83.3281,21.3125 83.3281,20.8906 L83.3281,19.4688 C83.3281,19.0313 83.3125,18.9063 83.2188,18.75 C83.0625,18.4844 82.7813,18.3438 82.4844,18.3438 C82.1875,18.3438 81.9844,18.4375 81.7656,18.75 L81.5938,18.6719 Z " fill="#000000"/><text fill="#000000" font-family="sans-serif" font-size="14" lengthAdjust="spacing" textLength="50" x="99.75" y="27.8467">Thread</text><line style="stroke:#181818;stroke-width:0.5;" x1="8" x2="209" y1="39" y2="39"/><line style="stroke:#181818;stroke-width:0.5;" x1="8" x2="209" y1="47" y2="47"/><ellipse cx="18" cy="60.6484" fill="#84BE84" rx="3" ry="3" style="stroke:#038048;stroke-width:1.0;"/><text fill="#000000" font-family="sans-serif" font-size="14" lengthAdjust="spacing" textLength="60" x="27" y="63.9951">Thread()</text><ellipse cx="18" cy="76.9453" fill="#84BE84" rx="3" ry="3" style="stroke:#038048;stroke-width:1.0;"/><text fill="#000000" font-family="sans-serif" font-size="14" lengthAdjust="spacing" textLength="177" x="27" y="80.292">Thread(Runnable target)</text><ellipse cx="18" cy="93.2422" fill="#84BE84" rx="3" ry="3" style="stroke:#038048;stroke-width:1.0;"/><text fill="#000000" font-family="sans-serif" font-size="14" lengthAdjust="spacing" textLength="84" x="27" y="96.5889">start(): void</text><ellipse cx="18" cy="109.5391" fill="#84BE84" rx="3" ry="3" style="stroke:#038048;stroke-width:1.0;"/><text fill="#000000" font-family="sans-serif" font-size="14" lengthAdjust="spacing" textLength="72" x="27" y="112.8857">run(): void</text><ellipse cx="18" cy="125.8359" fill="#84BE84" rx="3" ry="3" style="stroke:#038048;stroke-width:1.0;"/><text fill="#000000" font-family="sans-serif" font-size="14" lengthAdjust="spacing" textLength="160" x="27" y="129.1826">sleep(long millis): void</text><ellipse cx="18" cy="142.1328" fill="#84BE84" rx="3" ry="3" style="stroke:#038048;stroke-width:1.0;"/><text fill="#000000" font-family="sans-serif" font-size="14" lengthAdjust="spacing" textLength="79" x="27" y="145.4795">wait(): void</text><ellipse cx="18" cy="158.4297" fill="#84BE84" rx="3" ry="3" style="stroke:#038048;stroke-width:1.0;"/><text fill="#000000" font-family="sans-serif" font-size="14" lengthAdjust="spacing" textLength="92" x="27" y="161.7764">notify(): void</text><ellipse cx="18" cy="174.7266" fill="#84BE84" rx="3" ry="3" style="stroke:#038048;stroke-width:1.0;"/><text fill="#000000" font-family="sans-serif" font-size="14" lengthAdjust="spacing" textLength="106" x="27" y="178.0732">notifyAll():void</text></g><!--class Runnable--><g id="elem_Runnable"><rect codeLine="12" fill="#F1F1F1" height="64.2969" id="Runnable" rx="2.5" ry="2.5" style="stroke:#181818;stroke-width:0.5;" width="100" x="188.5" y="245"/><ellipse cx="203.5" cy="261" fill="#B4A7E5" rx="11" ry="11" style="stroke:#181818;stroke-width:1.0;"/><path d="M204.4531,257.7813 L206.1719,257.7813 C206.5625,257.7813 206.75,257.75 206.875,257.6719 C207.1406,257.5156 207.2813,257.2344 207.2813,256.9375 C207.2813,256.6719 207.1719,256.4063 206.9375,256.2344 C206.7656,256.125 206.625,256.0938 206.1719,256.0938 L201.0313,256.0938 C200.5938,256.0938 200.4688,256.1094 200.3125,256.2031 C200.0625,256.3594 199.9063,256.6563 199.9063,256.9375 C199.9063,257.2188 200.0469,257.4688 200.2656,257.6406 C200.4219,257.75 200.6094,257.7813 201.0313,257.7813 L202.75,257.7813 L202.75,264.2969 L201.0313,264.2969 C200.5938,264.2969 200.4688,264.3125 200.3125,264.4219 C200.0625,264.5781 199.9063,264.8594 199.9063,265.1563 C199.9063,265.4063 200.0469,265.6719 200.2656,265.8281 C200.4219,265.9531 200.625,266 201.0313,266 L206.1719,266 C206.9219,266 207.2813,265.7188 207.2813,265.1563 C207.2813,264.875 207.1719,264.625 206.9375,264.4531 C206.7656,264.3281 206.625,264.2969 206.1719,264.2969 L204.4531,264.2969 L204.4531,257.7813 Z " fill="#000000"/><text fill="#000000" font-family="sans-serif" font-size="14" font-style="italic" lengthAdjust="spacing" textLength="68" x="217.5" y="265.8467">Runnable</text><line style="stroke:#181818;stroke-width:0.5;" x1="189.5" x2="287.5" y1="277" y2="277"/><line style="stroke:#181818;stroke-width:0.5;" x1="189.5" x2="287.5" y1="285" y2="285"/><ellipse cx="199.5" cy="298.6484" fill="#84BE84" rx="3" ry="3" style="stroke:#038048;stroke-width:1.0;"/><text fill="#000000" font-family="sans-serif" font-size="14" lengthAdjust="spacing" textLength="72" x="208.5" y="301.9951">run(): void</text></g><!--class SwingWorker--><g id="elem_SwingWorker"><rect codeLine="16" fill="#F1F1F1" height="178.375" id="SwingWorker" rx="2.5" ry="2.5" style="stroke:#181818;stroke-width:0.5;" width="247" x="245" y="7"/><ellipse cx="316.75" cy="23" fill="#ADD1B2" rx="11" ry="11" style="stroke:#181818;stroke-width:1.0;"/><path d="M319.0938,18.6719 C318.1563,18.2344 317.5625,18.0938 316.6875,18.0938 C314.0625,18.0938 312.0625,20.1719 312.0625,22.8906 L312.0625,24.0156 C312.0625,26.5938 314.1719,28.4844 317.0625,28.4844 C318.2813,28.4844 319.4375,28.1875 320.1875,27.6406 C320.7656,27.2344 321.0938,26.7813 321.0938,26.3906 C321.0938,25.9375 320.7031,25.5469 320.2344,25.5469 C320.0156,25.5469 319.8125,25.625 319.625,25.8125 C319.1719,26.2969 319.1719,26.2969 318.9844,26.3906 C318.5625,26.6563 317.875,26.7813 317.1094,26.7813 C315.0625,26.7813 313.7656,25.6875 313.7656,23.9844 L313.7656,22.8906 C313.7656,21.1094 315.0156,19.7969 316.75,19.7969 C317.3281,19.7969 317.9375,19.9531 318.4063,20.2031 C318.8906,20.4844 319.0625,20.7031 319.1563,21.1094 C319.2188,21.5156 319.25,21.6406 319.3906,21.7656 C319.5313,21.9063 319.7656,22.0156 319.9844,22.0156 C320.25,22.0156 320.5156,21.875 320.6875,21.6563 C320.7969,21.5 320.8281,21.3125 320.8281,20.8906 L320.8281,19.4688 C320.8281,19.0313 320.8125,18.9063 320.7188,18.75 C320.5625,18.4844 320.2813,18.3438 319.9844,18.3438 C319.6875,18.3438 319.4844,18.4375 319.2656,18.75 L319.0938,18.6719 Z " fill="#000000"/><text fill="#000000" font-family="sans-serif" font-size="14" lengthAdjust="spacing" textLength="95" x="337.25" y="27.8467">SwingWorker</text><line style="stroke:#181818;stroke-width:0.5;" x1="246" x2="491" y1="39" y2="39"/><line style="stroke:#181818;stroke-width:0.5;" x1="246" x2="491" y1="47" y2="47"/><ellipse cx="256" cy="60.6484" fill="#84BE84" rx="3" ry="3" style="stroke:#038048;stroke-width:1.0;"/><text fill="#000000" font-family="sans-serif" font-size="14" lengthAdjust="spacing" textLength="105" x="265" y="63.9951">SwingWorker()</text><ellipse cx="256" cy="76.9453" fill="#84BE84" rx="3" ry="3" style="stroke:#038048;stroke-width:1.0;"/><text fill="#000000" font-family="sans-serif" font-size="14" lengthAdjust="spacing" textLength="107" x="265" y="80.292">execute(): void</text><ellipse cx="256" cy="93.2422" fill="#84BE84" rx="3" ry="3" style="stroke:#038048;stroke-width:1.0;"/><text fill="#000000" font-family="sans-serif" font-size="14" lengthAdjust="spacing" textLength="85" x="265" y="96.5889">done(): void</text><ellipse cx="256" cy="109.5391" fill="#84BE84" rx="3" ry="3" style="stroke:#038048;stroke-width:1.0;"/><text fill="#000000" font-family="sans-serif" font-size="14" lengthAdjust="spacing" textLength="180" x="265" y="112.8857">publish(V... chunks): void</text><ellipse cx="256" cy="125.8359" fill="#84BE84" rx="3" ry="3" style="stroke:#038048;stroke-width:1.0;"/><text fill="#000000" font-family="sans-serif" font-size="14" lengthAdjust="spacing" textLength="217" x="265" y="129.1826">process(List&lt;V&gt; chunks): void</text><ellipse cx="256" cy="142.1328" fill="#84BE84" rx="3" ry="3" style="stroke:#038048;stroke-width:1.0;"/><text fill="#000000" font-family="sans-serif" font-size="14" lengthAdjust="spacing" textLength="144" x="265" y="145.4795">doInBackground(): T</text><ellipse cx="256" cy="158.4297" fill="#84BE84" rx="3" ry="3" style="stroke:#038048;stroke-width:1.0;"/><text fill="#000000" font-family="sans-serif" font-size="14" lengthAdjust="spacing" textLength="53" x="265" y="161.7764">get(): T</text><ellipse cx="256" cy="174.7266" fill="#84BE84" rx="3" ry="3" style="stroke:#038048;stroke-width:1.0;"/><text fill="#000000" font-family="sans-serif" font-size="14" lengthAdjust="spacing" textLength="221" x="265" y="178.0732">setProgress(int progress): void</text></g><!--class Lock--><g id="elem_Lock"><rect codeLine="27" fill="#F1F1F1" height="80.5938" id="Lock" rx="2.5" ry="2.5" style="stroke:#181818;stroke-width:0.5;" width="122" x="527.5" y="55.5"/><ellipse cx="567.7" cy="71.5" fill="#ADD1B2" rx="11" ry="11" style="stroke:#181818;stroke-width:1.0;"/><path d="M570.0438,67.1719 C569.1063,66.7344 568.5125,66.5938 567.6375,66.5938 C565.0125,66.5938 563.0125,68.6719 563.0125,71.3906 L563.0125,72.5156 C563.0125,75.0938 565.1219,76.9844 568.0125,76.9844 C569.2313,76.9844 570.3875,76.6875 571.1375,76.1406 C571.7156,75.7344 572.0438,75.2813 572.0438,74.8906 C572.0438,74.4375 571.6531,74.0469 571.1844,74.0469 C570.9656,74.0469 570.7625,74.125 570.575,74.3125 C570.1219,74.7969 570.1219,74.7969 569.9344,74.8906 C569.5125,75.1563 568.825,75.2813 568.0594,75.2813 C566.0125,75.2813 564.7156,74.1875 564.7156,72.4844 L564.7156,71.3906 C564.7156,69.6094 565.9656,68.2969 567.7,68.2969 C568.2781,68.2969 568.8875,68.4531 569.3563,68.7031 C569.8406,68.9844 570.0125,69.2031 570.1063,69.6094 C570.1688,70.0156 570.2,70.1406 570.3406,70.2656 C570.4813,70.4063 570.7156,70.5156 570.9344,70.5156 C571.2,70.5156 571.4656,70.375 571.6375,70.1563 C571.7469,70 571.7781,69.8125 571.7781,69.3906 L571.7781,67.9688 C571.7781,67.5313 571.7625,67.4063 571.6688,67.25 C571.5125,66.9844 571.2313,66.8438 570.9344,66.8438 C570.6375,66.8438 570.4344,66.9375 570.2156,67.25 L570.0438,67.1719 Z " fill="#000000"/><text fill="#000000" font-family="sans-serif" font-size="14" lengthAdjust="spacing" textLength="34" x="587.3" y="76.3467">Lock</text><line style="stroke:#181818;stroke-width:0.5;" x1="528.5" x2="648.5" y1="87.5" y2="87.5"/><line style="stroke:#181818;stroke-width:0.5;" x1="528.5" x2="648.5" y1="95.5" y2="95.5"/><ellipse cx="538.5" cy="109.1484" fill="#84BE84" rx="3" ry="3" style="stroke:#038048;stroke-width:1.0;"/><text fill="#000000" font-family="sans-serif" font-size="14" lengthAdjust="spacing" textLength="79" x="547.5" y="112.4951">lock(): void</text><ellipse cx="538.5" cy="125.4453" fill="#84BE84" rx="3" ry="3" style="stroke:#038048;stroke-width:1.0;"/><text fill="#000000" font-family="sans-serif" font-size="14" lengthAdjust="spacing" textLength="96" x="547.5" y="128.792">unlock(): void</text></g><!--class LockManager--><g id="elem_LockManager"><rect codeLine="32" fill="#F1F1F1" height="96.8906" id="LockManager" rx="2.5" ry="2.5" style="stroke:#181818;stroke-width:0.5;" width="211" x="685" y="47.5"/><ellipse cx="738.75" cy="63.5" fill="#ADD1B2" rx="11" ry="11" style="stroke:#181818;stroke-width:1.0;"/><path d="M741.0938,59.1719 C740.1563,58.7344 739.5625,58.5938 738.6875,58.5938 C736.0625,58.5938 734.0625,60.6719 734.0625,63.3906 L734.0625,64.5156 C734.0625,67.0938 736.1719,68.9844 739.0625,68.9844 C740.2813,68.9844 741.4375,68.6875 742.1875,68.1406 C742.7656,67.7344 743.0938,67.2813 743.0938,66.8906 C743.0938,66.4375 742.7031,66.0469 742.2344,66.0469 C742.0156,66.0469 741.8125,66.125 741.625,66.3125 C741.1719,66.7969 741.1719,66.7969 740.9844,66.8906 C740.5625,67.1563 739.875,67.2813 739.1094,67.2813 C737.0625,67.2813 735.7656,66.1875 735.7656,64.4844 L735.7656,63.3906 C735.7656,61.6094 737.0156,60.2969 738.75,60.2969 C739.3281,60.2969 739.9375,60.4531 740.4063,60.7031 C740.8906,60.9844 741.0625,61.2031 741.1563,61.6094 C741.2188,62.0156 741.25,62.1406 741.3906,62.2656 C741.5313,62.4063 741.7656,62.5156 741.9844,62.5156 C742.25,62.5156 742.5156,62.375 742.6875,62.1563 C742.7969,62 742.8281,61.8125 742.8281,61.3906 L742.8281,59.9688 C742.8281,59.5313 742.8125,59.4063 742.7188,59.25 C742.5625,58.9844 742.2813,58.8438 741.9844,58.8438 C741.6875,58.8438 741.4844,58.9375 741.2656,59.25 L741.0938,59.1719 Z " fill="#000000"/><text fill="#000000" font-family="sans-serif" font-size="14" lengthAdjust="spacing" textLength="95" x="759.25" y="68.3467">LockManager</text><line style="stroke:#181818;stroke-width:0.5;" x1="686" x2="895" y1="79.5" y2="79.5"/><line style="stroke:#181818;stroke-width:0.5;" x1="686" x2="895" y1="87.5" y2="87.5"/><ellipse cx="696" cy="101.1484" fill="#84BE84" rx="3" ry="3" style="stroke:#038048;stroke-width:1.0;"/><text fill="#000000" font-family="sans-serif" font-size="14" lengthAdjust="spacing" textLength="135" x="705" y="104.4951">acquireLock(): void</text><ellipse cx="696" cy="117.4453" fill="#84BE84" rx="3" ry="3" style="stroke:#038048;stroke-width:1.0;"/><text fill="#000000" font-family="sans-serif" font-size="14" lengthAdjust="spacing" textLength="135" x="705" y="120.792">releaseLock(): void</text><ellipse cx="696" cy="133.7422" fill="#84BE84" rx="3" ry="3" style="stroke:#038048;stroke-width:1.0;"/><text fill="#000000" font-family="sans-serif" font-size="14" lengthAdjust="spacing" textLength="185" x="705" y="137.0889">isLockAcquired(): boolean</text></g><!--link Thread to Runnable--><g id="link_Thread_Runnable"><path codeLine="39" d="M172.548,185.189 C188.058,206.545 193.0627,213.436 205.1837,230.1259 " fill="none" id="Thread-to-Runnable" style="stroke:#181818;stroke-width:1.0;"/><polygon fill="none" points="215.761,244.6902,210.0385,226.6001,200.3289,233.6516,215.761,244.6902" style="stroke:#181818;stroke-width:1.0;"/></g><!--link SwingWorker to Runnable--><g id="link_SwingWorker_Runnable"><path codeLine="40" d="M304.452,185.189 C288.942,206.545 283.9373,213.436 271.8163,230.1259 " fill="none" id="SwingWorker-to-Runnable" style="stroke:#181818;stroke-width:1.0;"/><polygon fill="none" points="261.239,244.6902,276.6711,233.6516,266.9615,226.6001,261.239,244.6902" style="stroke:#181818;stroke-width:1.0;"/></g><!--SRC=[PPB1JiCm38RlVOeSEw7j0H2QD6v8HK8mZNEQUcdKp2vEma23ToTfHvMkjz-VxTY_MsMbSsBVCiX6N0eXxaPThZBz6X1bRK5uoHhya79H-t9rBpx9D0bmm3nq5g0lBQ4M9sEjSLdkBCsi5ScRu_UIxAoDS62_HM7G0n-b0Z7jSxaT7ClKuEZjR52_4tV0OrK6Hc_m1IfuoASsXBEu3tLSl2qFcyr6g3PWbxlecHGuLrR6-OV3TbdGq1C-IjLffe1DUdYVSBpWf1tu5oRDwPteJ_JNOE6d8jMDHcnK-P81PsJMyInHwlyBIFKH34DrqyzWGRe5DYwHtTWpB5yJnKfC4uhh3xDU_sodhr7aDvzb_W00]--></g></svg>